<svg xmlns="http://www.w3.org/2000/svg" viewBox="0 0 24 24">
    <g>
        <path d="M20.75 22H3.25C2.01 22 1 20.99 1 19.75V4.25C1 3.01 2.01 2 3.25 2h17.5C21.99 2 23 3.01 23 4.25v15.5c0 1.24-1.01 2.25-2.25 2.25zM3.25 3.5c-.414 0-.75.337-.75.75v15.5c0 .413.336.75.75.75h17.5c.414 0 .75-.337.75-.75V4.25c0-.413-.336-.75-.75-.75H3.25z"/>
        <path d="M16.758 6.982h-5.806c-.414 0-.75.336-.75.75s.336.75.75.75h3.995L6.92 16.508c-.292.293-.292.768 0 1.06.147.147.34.22.53.22s.385-.072.53-.22l8.027-8.025v3.995c0 .414.336.75.75.75s.75-.336.75-.75V7.732c0-.414-.335-.75-.75-.75z"/>
    </g>
</svg>
