<svg xmlns="http://www.w3.org/2000/svg" viewBox="0 0 24 24">
    <g>
        <path d="M20.222 9.16h-1.334c.015-.09.028-.182.028-.277V6.57c0-.98-.797-1.777-1.778-1.777H3.5V3.358c0-.414-.336-.75-.75-.75s-.75.336-.75.75V20.83c0 .415.336.75.75.75s.75-.335.75-.75v-1.434h10.556c.98 0 1.778-.797 1.778-1.777v-2.313c0-.095-.014-.187-.028-.278h4.417c.98 0 1.778-.798 1.778-1.778v-2.31c0-.983-.797-1.78-1.778-1.78zM17.14 6.293c.152 0 .277.124.277.277v2.31c0 .154-.125.28-.278.28H3.5V6.29h13.64zm-2.807 9.014v2.312c0 .153-.125.277-.278.277H3.5v-2.868h10.556c.153 0 .277.126.277.28zM20.5 13.25c0 .153-.125.277-.278.277H3.5V10.66h16.722c.153 0 .278.124.278.277v2.313z"/>
    </g>
</svg>
