<svg xmlns="http://www.w3.org/2000/svg" viewBox="0 0 24 24">
    <g>
        <path d="M21.592 5.576c.877-.967.882-2.298.006-3.174-.877-.877-2.208-.87-3.174.006 0 0-.003 0-.004.002l-.006.006-.005.004s-.002 0-.002.002L8.398 11.27c-1.716-.214-3.424.31-4.534 1.42-3.872 3.874-1.523 9.616-1.422 9.858.1.24.32.41.577.45.037.007.075.01.113.01.218 0 .428-.095.57-.265 1.83-2.15 3.043-2.023 4.328-1.89 1.164.122 2.477.258 3.834-1.282.975-1.106 1.302-2.585.922-4.03l8.792-9.948h.002l.004-.006.006-.006.002-.004zm-1.055-2.113c.305.305.28.74-.06 1.11-.003.003-.004.007-.006.01 0 0-.003 0-.004.003l-5.662 6.406-1.796-1.796 6.406-5.662c.002 0 .002-.003.004-.005.002-.003.006-.004.008-.006.37-.34.807-.365 1.11-.06zm-8.62 10.797L9.74 12.084l2.142-1.894 1.927 1.927-1.894 2.143zm-1.178 4.32c-.848.96-1.488.895-2.552.78-1.27-.13-2.808-.293-4.722 1.463-.415-1.673-.784-4.83 1.457-7.072.807-.805 2.086-1.168 3.377-.983l2.977 2.976c.333 1.03.15 2.057-.538 2.836z"/>
    </g>
</svg>
