<svg xmlns="http://www.w3.org/2000/svg" viewBox="0 0 24 24">
    <g>
        <path d="M19.708 2H4.292C3.028 2 2 3.028 2 4.292v15.416C2 20.972 3.028 22 4.292 22h15.416C20.972 22 22 20.972 22 19.708V4.292C22 3.028 20.972 2 19.708 2zm.792 17.708c0 .437-.355.792-.792.792H4.292c-.437 0-.792-.355-.792-.792V6.418c0-.437.354-.79.79-.792h15.42c.436 0 .79.355.79.79V19.71z"/>
        <circle cx="7.032" cy="8.75" r="1.285"/>
        <circle cx="7.032" cy="13.156" r="1.285"/>
        <circle cx="16.968" cy="8.75" r="1.285"/>
        <circle cx="16.968" cy="13.156" r="1.285"/>
        <circle cx="12" cy="8.75" r="1.285"/>
        <circle cx="12" cy="13.156" r="1.285"/>
        <circle cx="7.032" cy="17.486" r="1.285"/>
        <circle cx="12" cy="17.486" r="1.285"/>
    </g>
</svg>
