<svg xmlns="http://www.w3.org/2000/svg" viewBox="0 0 24 24">
    <g>
        <path d="M23.804 11.5l-6.496-7.25c-.278-.31-.752-.334-1.06-.06-.308.277-.334.752-.058 1.06L22.238 12l-6.047 6.75c-.275.308-.25.782.06 1.06.142.127.32.19.5.19.204 0 .41-.084.558-.25l6.496-7.25c.252-.28.258-.713 0-1zm-23.606 0l6.496-7.25c.278-.31.752-.334 1.06-.06.308.277.334.752.058 1.06L1.764 12l6.047 6.75c.277.308.25.782-.057 1.06-.143.127-.322.19-.5.19-.206 0-.41-.084-.56-.25L.197 12.5c-.252-.28-.257-.713 0-1zm9.872 12c-.045 0-.09-.004-.135-.012-.407-.073-.68-.463-.605-.87l3.863-21.5c.074-.407.466-.674.87-.606.408.073.68.463.606.87l-3.864 21.5c-.065.363-.38.618-.737.618z"/>
    </g>
</svg>
