<svg xmlns="http://www.w3.org/2000/svg" viewBox="0 0 24 24">
    <g>
        <path d="M11.47 14.53c.146.146.338.22.53.22s.384-.073.53-.22l5-5c.293-.293.293-.768 0-1.06s-.768-.294-1.06 0l-3.72 3.72V2c0-.414-.337-.75-.75-.75s-.75.336-.75.75v10.19L7.53 8.47c-.293-.293-.768-.293-1.06 0s-.294.768 0 1.06l5 5z"/>
        <path d="M21.25 13.25c-.414 0-.75.336-.75.75v5.652c0 .437-.355.792-.792.792H4.292c-.437 0-.792-.355-.792-.792V14c0-.414-.336-.75-.75-.75S2 13.586 2 14v5.652c0 1.264 1.028 2.292 2.292 2.292h15.416c1.264 0 2.292-1.028 2.292-2.292V14c0-.414-.336-.75-.75-.75z"/>
    </g>
</svg>
