<svg xmlns="http://www.w3.org/2000/svg" viewBox="0 -1024 1024 1079">
	<path transform="translate(0 -37)" d="M146 -716C198 -790 257 -818 312 -837C335 -844 347 -869 339 -891C332 -913 307 -925 285 -918C223 -897 143 -860 76 -765C9 -669 3 -581 4 -516C5 -492 24 -474 47 -474H48C72 -475 90 -494 90 -518C88 -577 94 -641 146 -716ZM948 -765C881 -860 801 -897 739 -918C717 -925 692 -913 685 -891C677 -869 689 -844 712 -837C767 -818 826 -790 878 -716C930 -641 936 -577 934 -518C933 -494 952 -475 976 -474H977C1000 -474 1019 -492 1019 -516C1021 -581 1015 -669 948 -765ZM176 -478C201 -479 219 -499 219 -522C218 -558 221 -598 253 -644C285 -689 321 -707 355 -718C378 -726 390 -750 382 -772C375 -794 350 -806 328 -799C285 -784 230 -759 183 -693C137 -626 132 -565 133 -520C134 -497 153 -478 176 -478ZM696 -799C674 -806 650 -794 642 -772C634 -750 646 -726 669 -718C703 -706 739 -689 771 -644C803 -598 806 -558 805 -522C805 -499 823 -479 847 -479H848C871 -479 890 -497 891 -520C892 -565 887 -626 841 -693C794 -759 739 -784 696 -799ZM773 -415C774 -502 745 -579 692 -632C645 -680 581 -706 512 -706C443 -706 379 -680 332 -632C279 -579 250 -502 251 -415C252 -274 186 -221 184 -219C173 -211 168 -196 172 -183C177 -170 189 -161 203 -161H340C347 -72 421 -1 512 -1C603 -1 677 -72 684 -161H821C835 -161 847 -170 851 -183C856 -196 851 -210 841 -219C838 -221 772 -274 773 -415ZM512 -86C468 -86 432 -119 425 -161H599C592 -119 556 -86 512 -86Z"/>
</svg>