<svg xmlns="http://www.w3.org/2000/svg" viewBox="0 -1024 1024 1079">
	<path transform="translate(0 -37)" d="M863 -337C847 -411 763 -486 692 -513L669 -724L733 -819C740 -829 740 -842 734 -853C729 -864 718 -870 706 -870H316C304 -870 293 -864 287 -853C281 -842 282 -829 288 -819L352 -723L332 -513C261 -486 177 -411 161 -337C159 -330 160 -320 166 -312C171 -306 179 -299 195 -299H369L493 -13C496 -5 504 0 512 0C521 0 528 -5 532 -13L656 -299H829C845 -299 853 -306 858 -311C864 -320 865 -330 863 -337Z"/>
</svg>