<svg xmlns="http://www.w3.org/2000/svg" viewBox="0 -1024 1024 1079">
	<path transform="translate(0 -37)" d="M314 -171C278 -171 248 -200 248 -237V-638L305 -581C315 -571 328 -566 341 -566C354 -566 367 -571 377 -581C397 -601 397 -634 377 -654L233 -798C213 -818 180 -818 161 -798L17 -654C-4 -634 -4 -601 17 -581C37 -561 69 -561 89 -581L145 -638V-237C145 -144 221 -68 314 -68H536C564 -68 587 -91 587 -119C587 -148 564 -171 536 -171ZM1008 -300C987 -320 955 -320 935 -300L879 -243V-644C879 -737 803 -813 710 -813H488C460 -813 437 -790 437 -762C437 -733 460 -710 488 -710H710C746 -710 776 -681 776 -644V-243L720 -300C700 -320 667 -320 647 -300C627 -280 627 -247 647 -227L791 -83C801 -73 814 -68 827 -68C841 -68 854 -73 864 -83L1008 -227C1028 -247 1028 -280 1008 -300Z"/>
</svg>