<svg xmlns="http://www.w3.org/2000/svg" viewBox="0 -1024 1024 1079">
	<path transform="translate(0 -37)" d="M779 -480V-779C779 -832 736 -875 683 -875H171C118 -875 75 -832 75 -779V-117C75 -64 118 -21 171 -21H832C897 -21 949 -74 949 -139V-448C949 -466 935 -480 917 -480ZM256 -587C238 -587 224 -601 224 -619C224 -636 238 -651 256 -651H597C615 -651 629 -636 629 -619C629 -601 615 -587 597 -587ZM256 -416C238 -416 224 -430 224 -448C224 -466 238 -480 256 -480H597C615 -480 629 -466 629 -448C629 -430 615 -416 597 -416ZM885 -416V-139C885 -109 861 -85 832 -85C803 -85 779 -109 779 -139V-416ZM256 -245C238 -245 224 -260 224 -277C224 -295 238 -309 256 -309H459C476 -309 491 -295 491 -277C491 -260 476 -245 459 -245Z"/>
</svg>