<svg xmlns="http://www.w3.org/2000/svg" viewBox="0 -1024 1024 1079">
	<path transform="translate(0 -37)" d="M784 -604C676 -749 569 -898 568 -899C565 -905 557 -908 550 -907C544 -905 539 -899 538 -892C538 -890 528 -713 405 -558C405 -558 366 -652 362 -732C361 -739 355 -746 347 -747C339 -747 332 -743 330 -735C330 -735 308 -667 196 -519C143 -448 126 -375 145 -303C194 -115 464 6 476 11L482 12H483C492 12 499 5 499 -4L495 -14C483 -38 376 -238 481 -359C537 -423 568 -481 573 -522C701 -307 585 -88 585 -88C582 -82 583 -75 587 -70C592 -64 599 -63 605 -65C751 -117 853 -190 881 -282C909 -374 877 -480 784 -604Z"/>
</svg>