<svg xmlns="http://www.w3.org/2000/svg" viewBox="0 -1024 1024 1079">
	<path transform="translate(0 -37)" d="M181 -875C129 -875 85 -831 85 -779V-117C85 -65 129 -21 181 -21H843C895 -21 939 -65 939 -117V-779C939 -831 895 -875 843 -875ZM299 -587C281 -587 267 -601 267 -619C267 -636 281 -651 299 -651H725C743 -651 757 -636 757 -619C757 -601 743 -587 725 -587ZM299 -416C281 -416 267 -430 267 -448C267 -466 281 -480 299 -480H725C743 -480 757 -466 757 -448C757 -430 743 -416 725 -416ZM299 -245C281 -245 267 -260 267 -277C267 -295 281 -309 299 -309H469C487 -309 501 -295 501 -277C501 -260 487 -245 469 -245Z"/>
</svg>