<svg xmlns="http://www.w3.org/2000/svg" viewBox="0 -1024 1024 1079">
	<path transform="translate(0 -37)" d="M1009 -749C973 -734 935 -723 895 -718C936 -743 967 -782 982 -828C944 -805 901 -789 856 -780C820 -818 768 -843 711 -843C601 -843 512 -754 512 -644C512 -628 514 -613 517 -599C352 -607 205 -686 107 -806C90 -777 81 -743 81 -706C81 -637 116 -576 169 -541C136 -542 106 -551 79 -566V-563C79 -467 147 -387 238 -368C222 -364 204 -361 186 -361C173 -361 161 -363 149 -365C174 -286 247 -228 334 -227C266 -174 181 -142 87 -142C71 -142 56 -143 40 -145C128 -88 232 -55 345 -55C710 -55 910 -358 910 -621V-646C948 -674 982 -709 1009 -749Z"/>
</svg>