<svg xmlns="http://www.w3.org/2000/svg" viewBox="0 -1024 1024 1079">
	<path transform="translate(0 -37)" d="M926 -257C925 -258 834 -327 836 -515C837 -623 801 -719 736 -785C677 -844 598 -877 512 -878C426 -877 347 -844 288 -785C223 -719 187 -623 188 -515C189 -330 102 -260 98 -257C87 -249 83 -235 87 -222C91 -209 104 -200 117 -200H309C313 -91 402 -4 512 -4C622 -4 711 -91 715 -200H907C920 -200 933 -209 937 -222C941 -235 937 -249 926 -257ZM512 -89C449 -89 399 -138 394 -200H630C625 -138 575 -89 512 -89Z"/>
</svg>