<svg xmlns="http://www.w3.org/2000/svg" viewBox="0 -1024 1024 1079">
	<path transform="translate(0 -37)" d="M309 -847C326 -853 335 -871 329 -887C323 -904 305 -913 289 -908C224 -886 149 -851 85 -758C20 -666 13 -584 15 -516C16 -499 30 -485 47 -485H48C66 -485 80 -500 79 -518C78 -575 83 -644 137 -722C191 -799 252 -828 309 -847ZM939 -758C875 -851 800 -886 736 -908C719 -913 701 -904 695 -888C689 -871 698 -853 715 -847C772 -828 833 -799 887 -722C941 -644 946 -575 945 -518C944 -500 958 -485 976 -485H977C994 -485 1008 -498 1009 -516C1011 -584 1004 -666 939 -758ZM177 -489C195 -490 209 -504 208 -522C207 -560 211 -602 244 -650C278 -698 316 -716 352 -728C369 -734 378 -752 372 -769C366 -785 348 -794 331 -789C290 -775 237 -750 192 -686C147 -622 143 -564 144 -520C145 -503 159 -489 176 -489ZM693 -789C676 -794 658 -785 652 -769C646 -752 655 -734 672 -728C708 -716 746 -698 780 -650C813 -602 817 -560 816 -522C816 -504 829 -490 847 -489H848C865 -489 880 -503 880 -520C881 -564 877 -622 832 -686C787 -750 734 -775 693 -789ZM773 -415C774 -502 745 -579 692 -632C645 -680 581 -706 512 -706C443 -706 379 -680 332 -632C279 -579 250 -502 251 -415C252 -274 186 -221 184 -219C173 -211 168 -196 172 -183C177 -170 189 -161 203 -161H361C368 -84 433 -22 512 -22C591 -22 656 -84 663 -161H821C835 -161 847 -170 851 -183C856 -196 851 -210 841 -219C838 -221 772 -274 773 -415ZM269 -225C293 -265 316 -327 315 -416C314 -486 336 -545 377 -587C412 -622 460 -642 512 -643C564 -642 612 -622 647 -587C688 -545 709 -486 709 -416C708 -327 731 -265 754 -225ZM512 -86C468 -86 431 -119 425 -161H599C593 -119 556 -86 512 -86Z"/>
</svg>