<svg xmlns="http://www.w3.org/2000/svg" viewBox="0 -1024 1024 1079">
	<path transform="translate(0 -37)" d="M181 -875C128 -875 85 -832 85 -779V-117C85 -64 128 -21 181 -21H843C896 -21 939 -64 939 -117V-779C939 -832 896 -875 843 -875ZM843 -811C860 -811 875 -796 875 -779V-366L710 -530C704 -536 696 -540 687 -540C679 -540 671 -536 665 -530L480 -343L403 -420C397 -426 389 -430 380 -430C372 -431 364 -426 358 -420L149 -207V-779C149 -796 164 -811 181 -811ZM378 -671C415 -671 444 -642 444 -605C444 -569 415 -540 378 -540C342 -540 313 -569 313 -605C313 -642 342 -671 378 -671ZM739 -85L526 -298L688 -462L875 -275V-117C875 -100 860 -85 843 -85ZM381 -352L649 -85H181C164 -85 150 -99 150 -116Z"/>
</svg>