<svg xmlns="http://www.w3.org/2000/svg" viewBox="0 -1024 1024 1079">
	<path transform="translate(0 -37)" d="M149 -874C96 -874 53 -831 53 -778V-116C53 -63 96 -21 149 -21H875C928 -21 971 -63 971 -116V-778C971 -831 928 -874 875 -874ZM907 -116C907 -99 892 -85 875 -85H149C132 -85 117 -99 117 -116V-778C117 -796 132 -810 149 -810H875C892 -810 907 -796 907 -778ZM346 -516C363 -516 384 -508 397 -495L448 -538C422 -567 384 -585 346 -585C269 -585 209 -525 209 -448C209 -371 269 -311 346 -311C388 -311 422 -329 448 -358V-465H329V-414H380V-388C371 -384 358 -380 346 -380C307 -380 277 -410 277 -448C277 -482 307 -516 346 -516ZM499 -311V-585H572V-311ZM695 -512H811V-585H623V-311H695V-397H781V-469H695Z"/>
</svg>