<svg xmlns="http://www.w3.org/2000/svg" viewBox="0 -1024 1024 1079">
	<path transform="translate(0 -37)" d="M1015 -866H1011C1007 -866 618 -815 397 -367C234 -43 243 55 256 55C269 60 401 -222 542 -337C764 -384 823 -491 823 -491C823 -491 759 -482 734 -482C700 -482 674 -491 661 -495C717 -546 764 -559 810 -567C849 -576 887 -585 938 -619C1032 -687 1020 -853 1015 -862ZM239 -653V-794C239 -811 226 -828 205 -828C183 -828 175 -811 175 -794V-653H34C17 -653 0 -640 0 -619C0 -597 13 -585 34 -585H175V-444C175 -427 188 -410 209 -410C230 -410 243 -422 243 -444V-589H384C401 -589 418 -602 418 -623C418 -644 397 -653 375 -653Z"/>
</svg>