<svg xmlns="http://www.w3.org/2000/svg" viewBox="0 -1024 1024 1079">
	<path transform="translate(0 -37)" d="M977 -689C966 -694 953 -693 943 -685L827 -591V-735C827 -787 784 -831 731 -831H135C82 -831 39 -787 39 -735V-116C39 -63 82 -20 135 -20H731C784 -20 827 -63 827 -116V-260L943 -166C949 -161 956 -159 963 -159C968 -159 973 -160 977 -162C988 -167 996 -178 996 -191V-660C996 -672 988 -683 977 -689ZM763 -116C763 -98 748 -84 731 -84H135C117 -84 103 -98 103 -116V-735C103 -752 117 -767 135 -767H731C748 -767 763 -752 763 -735ZM433 -218C319 -218 226 -311 226 -425C226 -540 319 -633 433 -633C547 -633 640 -540 640 -425C640 -311 547 -218 433 -218ZM932 -593V-258L827 -342V-508ZM433 -569C354 -569 290 -504 290 -425C290 -346 354 -282 433 -282C512 -282 576 -346 576 -425C576 -504 512 -569 433 -569Z"/>
</svg>