<svg xmlns="http://www.w3.org/2000/svg" viewBox="0 -1024 1024 1079">
	<path transform="translate(0 -37)" d="M883 -504C883 -708 717 -875 512 -875C308 -875 141 -708 141 -504C141 -423 167 -346 216 -281C285 -192 484 -35 492 -28C498 -24 505 -21 512 -21C519 -21 526 -24 532 -28C540 -35 739 -192 808 -280V-281H809C857 -346 883 -423 883 -504ZM512 -94C460 -137 319 -253 266 -320C226 -373 205 -437 205 -504C205 -673 343 -811 512 -811C681 -811 819 -673 819 -504C819 -437 798 -373 758 -320C705 -253 564 -137 512 -94ZM512 -349C423 -349 350 -422 350 -511C350 -600 423 -672 512 -672C601 -672 674 -600 674 -511C674 -422 601 -349 512 -349ZM512 -608C458 -608 414 -565 414 -511C414 -457 458 -413 512 -413C566 -413 610 -457 610 -511C610 -565 566 -608 512 -608Z"/>
</svg>