<svg xmlns="http://www.w3.org/2000/svg" viewBox="0 -1024 1024 1079">
	<path transform="translate(0 -37)" d="M512 11C259 11 53 -195 53 -448C53 -701 259 -907 512 -907C765 -907 971 -701 971 -448C971 -195 765 11 512 11ZM512 -843C294 -843 117 -666 117 -448C117 -230 294 -53 512 -53C730 -53 907 -230 907 -448C907 -666 730 -843 512 -843ZM395 -620C430 -620 458 -591 458 -556C458 -522 430 -493 395 -493C360 -493 332 -522 332 -556C332 -591 360 -620 395 -620ZM629 -620C664 -620 692 -591 692 -556C692 -522 664 -493 629 -493C594 -493 566 -522 566 -556C566 -591 594 -620 629 -620ZM512 -230C431 -230 357 -270 313 -338C304 -353 308 -373 323 -382C338 -392 358 -388 367 -373C399 -323 453 -294 512 -294C571 -294 625 -323 657 -373C667 -388 686 -392 701 -382C716 -373 720 -353 711 -338C667 -270 593 -230 512 -230Z"/>
</svg>