<svg xmlns="http://www.w3.org/2000/svg" viewBox="0 -1024 1024 1079">
	<path transform="translate(0 -37)" d="M889 -821V-925C889 -942 874 -957 857 -957C839 -957 825 -942 825 -925V-821H721C703 -821 689 -807 689 -789C689 -772 703 -757 721 -757H825V-654C825 -636 839 -622 857 -622C874 -622 889 -636 889 -654V-757H992C1010 -757 1024 -772 1024 -789C1024 -807 1010 -821 992 -821ZM857 -528C839 -528 825 -514 825 -496V-151C825 -134 810 -119 793 -119H175C157 -119 143 -134 143 -151V-606L432 -413C448 -403 466 -397 484 -397C502 -397 520 -403 535 -413L729 -542C743 -551 747 -571 737 -585C728 -599 709 -603 694 -593L501 -465C490 -458 477 -458 466 -465L143 -681V-725C143 -743 157 -757 175 -757H563C580 -757 595 -772 595 -789C595 -807 580 -821 563 -821H175C122 -821 79 -778 79 -725V-151C79 -98 122 -55 175 -55H793C845 -55 889 -98 889 -151V-496C889 -514 874 -528 857 -528Z"/>
</svg>