<svg xmlns="http://www.w3.org/2000/svg" viewBox="0 -1024 1024 1079">
	<path transform="translate(0 -37)" d="M383 -22C372 -22 364 -25 358 -31L111 -278C99 -290 99 -311 111 -323C124 -336 144 -336 157 -323L376 -103L881 -818C891 -832 911 -836 925 -826C940 -815 943 -795 933 -781L407 -35C401 -28 393 -23 383 -22ZM117 -680C100 -680 85 -694 85 -712C85 -729 100 -744 117 -744H600C617 -744 632 -729 632 -712C632 -694 617 -680 600 -680ZM117 -504C100 -504 85 -519 85 -536C85 -554 100 -568 117 -568H424C442 -568 456 -554 456 -536C456 -519 442 -504 424 -504Z"/>
</svg>