<svg xmlns="http://www.w3.org/2000/svg" viewBox="0 -1024 1024 1079">
	<path transform="translate(0 -37)" d="M127 -200C134 -200 141 -202 146 -206C151 -210 264 -296 262 -515C261 -607 289 -685 344 -740C390 -787 454 -813 522 -814C578 -813 631 -796 675 -763C680 -758 687 -756 694 -756C704 -756 713 -760 720 -769C730 -783 728 -803 713 -814C659 -855 593 -877 522 -878C436 -877 357 -844 298 -785C233 -719 197 -623 198 -515C200 -330 112 -260 108 -257C94 -247 91 -227 102 -213C108 -204 118 -200 127 -200ZM949 -864C936 -876 916 -876 904 -864L108 -68C95 -55 95 -35 108 -22C114 -16 122 -13 130 -13C138 -13 147 -16 153 -22L949 -818C961 -831 961 -851 949 -864ZM846 -515C846 -525 846 -535 845 -546C844 -563 829 -577 812 -576C794 -575 781 -559 781 -542C782 -533 782 -524 782 -515C781 -393 816 -312 847 -264H493C475 -264 461 -249 461 -232C461 -214 475 -200 493 -200H643C638 -137 586 -86 522 -86C479 -86 440 -108 418 -145C409 -160 389 -165 374 -155C359 -146 354 -127 364 -111C397 -56 457 -22 522 -22C622 -22 702 -101 707 -200H917C930 -200 943 -209 947 -222C951 -234 947 -249 936 -257C932 -260 845 -330 846 -515Z"/>
</svg>