<svg xmlns="http://www.w3.org/2000/svg" viewBox="0 -1024 1024 1079">
	<path transform="translate(0 -37)" d="M821 -875C804 -875 789 -860 789 -843V-839C760 -849 729 -855 695 -855C633 -855 572 -837 514 -820C457 -803 403 -788 350 -788C310 -788 274 -797 240 -817C230 -823 218 -823 208 -817C198 -811 192 -801 192 -789V-373C192 -361 198 -351 208 -345C252 -319 298 -307 350 -307C412 -307 473 -325 532 -342C589 -358 642 -374 695 -374C729 -374 760 -367 789 -353V-53C789 -36 804 -21 821 -21C839 -21 853 -36 853 -53V-843C853 -860 839 -875 821 -875ZM695 -438C633 -438 572 -420 514 -403C457 -387 403 -371 350 -371C316 -371 285 -378 256 -392V-739C286 -729 317 -724 350 -724C412 -724 473 -741 532 -759C589 -775 642 -791 695 -791C729 -791 760 -784 789 -770V-423C760 -433 729 -438 695 -438Z"/>
</svg>