<svg xmlns="http://www.w3.org/2000/svg" viewBox="0 -1024 1024 1079">
	<path transform="translate(0 -37)" d="M512 11C259 11 53 -195 53 -448C53 -701 259 -907 512 -907C765 -907 971 -701 971 -448C971 -195 765 11 512 11ZM512 -843C294 -843 117 -666 117 -448C117 -230 294 -53 512 -53C730 -53 907 -230 907 -448C907 -666 730 -843 512 -843ZM428 -629C422 -633 413 -633 406 -630C400 -626 395 -619 395 -611V-285C395 -277 400 -270 406 -266L417 -264C421 -264 425 -265 428 -267L684 -430C690 -434 694 -441 694 -448C694 -455 690 -462 684 -466Z"/>
</svg>