<svg xmlns="http://www.w3.org/2000/svg" viewBox="0 -1024 1024 1079">
	<path transform="translate(0 -37)" d="M512 11C259 11 53 -195 53 -448C53 -701 259 -907 512 -907C765 -907 971 -701 971 -448C971 -195 765 11 512 11ZM512 -843C294 -843 117 -666 117 -448C117 -230 294 -53 512 -53C730 -53 907 -230 907 -448C907 -666 730 -843 512 -843ZM614 -653C610 -658 604 -662 597 -662H429C423 -662 416 -658 412 -653C408 -648 407 -641 409 -634L486 -374C489 -365 497 -359 507 -359H519C529 -359 537 -365 540 -374L617 -634C619 -641 618 -648 614 -653ZM513 -313C543 -313 568 -289 568 -259C568 -229 543 -204 513 -204C483 -204 458 -229 458 -259C458 -289 483 -313 513 -313Z"/>
</svg>