<svg xmlns="http://www.w3.org/2000/svg" viewBox="0 -1024 1024 1079">
	<path transform="translate(0 -37)" d="M512 11C259 11 53 -195 53 -448C53 -701 259 -907 512 -907C765 -907 971 -701 971 -448C971 -195 765 11 512 11ZM512 -843C294 -843 117 -666 117 -448C117 -230 294 -53 512 -53C730 -53 907 -230 907 -448C907 -666 730 -843 512 -843ZM677 -622C662 -632 642 -628 633 -613L456 -342L368 -429C356 -442 335 -442 323 -429C310 -417 310 -396 323 -384L438 -269C444 -262 452 -259 461 -259C469 -259 477 -262 483 -269L501 -294L686 -578C696 -593 692 -613 677 -622Z"/>
</svg>