<svg xmlns="http://www.w3.org/2000/svg" viewBox="0 -1024 1024 1079">
	<path transform="translate(0 -37)" d="M512 11C259 11 53 -195 53 -448C53 -701 259 -907 512 -907C765 -907 971 -701 971 -448C971 -195 765 11 512 11ZM512 -843C294 -843 117 -666 117 -448C117 -230 294 -53 512 -53C730 -53 907 -230 907 -448C907 -666 730 -843 512 -843ZM557 -448L677 -567C689 -580 689 -600 677 -612C664 -625 644 -625 631 -612L512 -493L393 -613C380 -625 360 -625 348 -613C335 -600 335 -580 348 -567L467 -448L347 -329C335 -316 335 -296 347 -283C354 -277 362 -274 370 -274C378 -274 386 -277 393 -283L512 -403L631 -283C637 -277 646 -274 654 -274C662 -274 670 -277 677 -283C689 -296 689 -316 677 -329Z"/>
</svg>