<svg xmlns="http://www.w3.org/2000/svg" viewBox="0 -1024 1024 1079">
	<path transform="translate(0 -37)" d="M149 -491C114 -491 85 -519 85 -555V-811C85 -846 114 -875 149 -875H405C441 -875 469 -846 469 -811V-555C469 -519 441 -491 405 -491ZM619 -491C583 -491 555 -519 555 -555V-811C555 -846 583 -875 619 -875H875C910 -875 939 -846 939 -811V-555C939 -519 910 -491 875 -491ZM149 -21C114 -21 85 -50 85 -85V-341C85 -377 114 -405 149 -405H405C441 -405 469 -377 469 -341V-85C469 -50 441 -21 405 -21ZM619 -21C583 -21 555 -50 555 -85V-341C555 -377 583 -405 619 -405H875C910 -405 939 -377 939 -341V-85C939 -50 910 -21 875 -21Z"/>
</svg>