<svg xmlns="http://www.w3.org/2000/svg" viewBox="0 -1024 1024 1079">
	<path transform="translate(0 -37)" d="M512 -907C259 -907 53 -701 53 -448C53 -195 259 11 512 11C765 11 971 -195 971 -448C971 -701 765 -907 512 -907ZM395 -620C430 -620 458 -591 458 -557C458 -522 430 -493 395 -493C360 -493 332 -522 332 -557C332 -591 360 -620 395 -620ZM629 -620C664 -620 692 -591 692 -557C692 -522 664 -493 629 -493C594 -493 566 -522 566 -557C566 -591 594 -620 629 -620ZM711 -338C667 -270 593 -230 512 -230C431 -230 357 -270 313 -338C304 -353 308 -373 323 -382C338 -392 358 -388 367 -373C399 -323 453 -294 512 -294C571 -294 625 -323 657 -373C667 -388 686 -392 701 -382C716 -373 720 -353 711 -338Z"/>
</svg>