<svg xmlns="http://www.w3.org/2000/svg" viewBox="0 -1024 1024 1079">
	<path transform="translate(0 -37)" d="M728 -647L744 -829C746 -847 733 -862 715 -864C697 -865 682 -852 680 -835L664 -647H394L410 -829C412 -847 399 -862 381 -864C363 -865 348 -852 347 -835L330 -647H161C144 -647 129 -633 129 -615C129 -597 144 -583 161 -583H325L301 -313H128C110 -313 96 -299 96 -281C96 -263 110 -249 128 -249H296L280 -67C278 -49 291 -34 309 -32H312C328 -32 342 -45 344 -61L360 -249H630L614 -67C612 -49 625 -34 643 -32H646C662 -32 676 -45 677 -61L694 -249H863C880 -249 895 -263 895 -281C895 -299 880 -313 863 -313H699L723 -583H896C914 -583 928 -597 928 -615C928 -633 914 -647 896 -647ZM659 -583L635 -313H365L389 -583Z"/>
</svg>