<svg xmlns="http://www.w3.org/2000/svg" viewBox="0 -1024 1024 1079">
	<path transform="translate(0 -37)" d="M527 -870C518 -875 506 -875 497 -870L66 -637C50 -629 45 -609 53 -594C59 -583 70 -577 81 -577C86 -577 91 -578 96 -581L131 -599L201 -108C210 -56 256 -20 314 -20H710C768 -20 814 -56 824 -109L893 -600L928 -581C943 -572 963 -578 971 -594C980 -609 974 -629 958 -637ZM833 -632L760 -119C756 -94 730 -84 710 -84H314C294 -84 268 -94 264 -118L191 -632L512 -805ZM351 -440C351 -351 423 -279 512 -279C601 -279 673 -351 673 -440C673 -529 601 -601 512 -601C423 -601 351 -529 351 -440ZM609 -440C609 -386 566 -343 512 -343C458 -343 415 -386 415 -440C415 -494 458 -537 512 -537C566 -537 609 -494 609 -440Z"/>
</svg>