<svg xmlns="http://www.w3.org/2000/svg" viewBox="0 -1024 1024 1079">
	<path transform="translate(0 -37)" d="M926 -257C925 -258 834 -327 836 -515C837 -623 801 -719 736 -785C677 -844 598 -877 512 -878C426 -877 347 -844 288 -785C223 -719 187 -623 188 -515C189 -330 102 -260 98 -257C87 -249 83 -235 87 -222C91 -208 104 -200 117 -200H327C332 -101 412 -22 512 -22C611 -22 692 -101 697 -200H907C920 -200 933 -208 937 -222C941 -235 937 -249 926 -257ZM187 -264C218 -312 253 -393 252 -515C251 -607 279 -685 334 -740C380 -787 444 -813 512 -814C580 -813 644 -787 690 -740C745 -685 773 -607 772 -515C771 -393 806 -312 837 -264ZM512 -86C448 -86 396 -137 391 -200H633C628 -137 576 -86 512 -86Z"/>
</svg>