<svg xmlns="http://www.w3.org/2000/svg" viewBox="0 -1024 1024 1079">
	<path transform="translate(0 -37)" d="M512 -456C570 -456 635 -462 676 -509C711 -549 722 -610 710 -697C694 -817 620 -889 512 -889C404 -889 330 -817 314 -697C302 -610 313 -549 348 -509C389 -462 454 -456 512 -456ZM377 -688C384 -739 411 -825 512 -825C613 -825 640 -739 647 -688C656 -622 649 -576 628 -552C608 -529 574 -520 512 -520C450 -520 416 -529 396 -552C375 -576 368 -622 377 -688ZM865 -139C828 -290 683 -395 512 -395C341 -395 196 -290 159 -139C151 -110 158 -80 176 -57C193 -34 220 -22 250 -22H774C804 -22 831 -34 848 -57C867 -80 873 -110 865 -139ZM798 -96C793 -89 785 -85 774 -85H250C239 -85 231 -89 226 -96C220 -103 218 -114 221 -124C251 -246 371 -331 512 -331C653 -331 773 -246 803 -124C806 -114 804 -103 798 -96Z"/>
</svg>