<svg xmlns="http://www.w3.org/2000/svg" viewBox="0 -1024 1024 1079">
	<path transform="translate(0 -37)" d="M497 -5C446 -5 405 -43 400 -93L399 -100C398 -112 391 -122 379 -127C367 -132 354 -130 345 -122L340 -118C303 -87 244 -90 210 -124L188 -146C152 -182 150 -238 182 -276L186 -281C194 -291 196 -304 191 -315C187 -327 176 -334 164 -335L157 -336C107 -341 69 -382 69 -433V-463C69 -514 107 -555 157 -560L164 -561C176 -562 187 -569 191 -581C196 -592 194 -605 186 -615L182 -620C150 -658 152 -714 188 -750L210 -772C244 -806 303 -809 340 -778L345 -774C355 -766 368 -764 379 -769C391 -773 398 -784 399 -796L400 -803C405 -853 446 -891 497 -891H527C578 -891 619 -853 624 -803V-796C626 -784 633 -773 645 -769C656 -764 669 -766 679 -774L684 -778C721 -809 780 -806 814 -772L836 -750C872 -714 874 -658 842 -620L838 -615C830 -605 828 -592 832 -581C837 -569 848 -562 860 -561L866 -560C917 -555 955 -514 955 -463V-433C955 -382 917 -341 867 -336L860 -335C848 -334 837 -327 833 -315C828 -304 830 -291 838 -282L842 -276C874 -238 872 -182 836 -146L814 -124C780 -90 721 -87 684 -118L679 -122C669 -130 656 -132 645 -127C633 -123 626 -112 625 -100L624 -93C619 -43 578 -6 527 -6ZM366 -194C379 -194 392 -191 403 -186C437 -172 460 -142 463 -106L464 -99C465 -82 479 -69 497 -69H528C545 -69 559 -82 560 -99L561 -106C564 -142 587 -172 620 -186C654 -200 693 -194 720 -171L725 -167C732 -161 740 -160 746 -160C754 -160 763 -163 769 -169L791 -191C803 -203 804 -222 793 -235L789 -241C765 -268 760 -306 773 -340C787 -373 818 -396 854 -399L861 -400C878 -401 891 -416 891 -433V-464C891 -481 878 -495 861 -496L854 -497C818 -500 787 -523 773 -556C760 -590 765 -628 789 -656L793 -661C804 -674 803 -693 791 -705L769 -727C763 -733 754 -736 746 -736C740 -736 732 -735 725 -729L720 -725C693 -702 653 -696 621 -709C587 -723 564 -754 561 -790L560 -797C559 -814 545 -827 528 -827H497C480 -827 466 -814 464 -797L463 -790C460 -754 437 -723 404 -710C370 -696 332 -702 305 -725L300 -729C292 -735 284 -736 278 -736C270 -736 261 -733 255 -727L233 -705C221 -693 220 -674 231 -661L236 -656C259 -628 265 -590 251 -556C237 -523 206 -500 170 -497L163 -496C146 -495 133 -481 133 -463V-432C133 -415 146 -401 163 -400L170 -399C206 -396 237 -373 251 -340C264 -306 259 -268 236 -240L231 -235C220 -222 221 -203 233 -191L255 -169C261 -163 270 -160 278 -160C284 -160 292 -161 299 -167L304 -171C322 -186 344 -194 366 -194ZM512 -610C423 -610 350 -537 350 -448C350 -359 423 -286 512 -286C601 -286 674 -359 674 -448C674 -537 601 -610 512 -610ZM512 -350C458 -350 414 -394 414 -448C414 -502 458 -546 512 -546C566 -546 610 -502 610 -448C610 -394 566 -350 512 -350Z"/>
</svg>