<svg xmlns="http://www.w3.org/2000/svg" viewBox="0 -1024 1024 1079">
	<path transform="translate(0 -37)" d="M684 -650C665 -650 650 -637 644 -620L643 -615C643 -615 597 -675 503 -675C381 -675 293 -573 293 -431C293 -325 367 -238 460 -238C558 -238 614 -302 614 -302C614 -302 640 -227 764 -227C785 -227 970 -240 970 -448C970 -701 765 -906 512 -906C259 -906 54 -701 54 -448C54 -195 259 10 512 10C608 10 684 -13 760 -65C767 -70 772 -77 774 -85C775 -94 773 -102 768 -109C759 -123 738 -127 724 -117C660 -73 594 -53 512 -53C294 -53 117 -230 117 -448C117 -666 294 -843 512 -843C730 -843 907 -666 907 -448C907 -324 829 -282 769 -282C746 -282 673 -291 687 -371C687 -371 727 -602 727 -607C727 -631 708 -650 684 -650ZM589 -370C564 -335 530 -315 493 -314L489 -313C425 -313 381 -361 379 -432C375 -522 437 -601 513 -603H517C578 -603 620 -558 623 -490C624 -446 612 -404 589 -370Z"/>
</svg>