<svg xmlns="http://www.w3.org/2000/svg" viewBox="0 -1024 1024 1079">
	<path transform="translate(0 25)" d="M512 -906C496 -906 482 -919 482 -936V-994C482 -1011 496 -1024 512 -1024C528 -1024 542 -1011 542 -994V-936C542 -919 528 -906 512 -906ZM234 -790C222 -779 203 -779 192 -791L150 -832C139 -844 138 -863 150 -874C162 -886 180 -885 192 -874L233 -832C245 -821 245 -802 234 -790ZM874 -874C886 -862 885 -844 874 -832L832 -791C821 -779 802 -779 790 -790C779 -802 779 -821 791 -832L832 -874C844 -885 863 -886 874 -874ZM512 -847C327 -847 177 -697 177 -512C177 -377 257 -256 382 -204C385 -202 389 -201 394 -201C410 -201 423 -214 423 -231C423 -243 416 -253 405 -258C303 -301 236 -401 236 -512C236 -664 360 -788 512 -788C664 -788 788 -664 788 -512C788 -401 721 -301 619 -258C608 -253 600 -243 600 -231C600 -214 614 -201 630 -201C634 -201 638 -202 642 -203C766 -256 847 -377 847 -512C847 -697 697 -847 512 -847ZM118 -512C118 -496 105 -482 88 -482H30C13 -482 0 -496 0 -512C0 -528 13 -542 30 -542H88C105 -542 118 -528 118 -512ZM1024 -512C1024 -496 1011 -482 994 -482H936C919 -482 906 -496 906 -512C906 -528 919 -542 936 -542H994C1011 -542 1024 -528 1024 -512ZM512 -210C496 -210 482 -223 482 -239V-454C482 -471 496 -484 512 -484C528 -484 542 -471 542 -454V-239C542 -223 528 -210 512 -210ZM670 -128C670 -112 656 -98 640 -98H384C368 -98 354 -112 354 -128C354 -144 368 -158 384 -158H640C656 -158 670 -144 670 -128ZM630 -30C630 -13 617 0 600 0H424C407 0 394 -13 394 -30C394 -46 407 -59 424 -59H600C617 -59 630 -46 630 -30Z"/>
</svg>
