<svg xmlns="http://www.w3.org/2000/svg" viewBox="0 -1024 1024 1079">
	<path transform="translate(0 -37)" d="M907 -875C889 -875 875 -860 875 -843V-821L145 -578C139 -587 129 -594 117 -594C100 -594 85 -580 85 -562V-317C85 -299 100 -285 117 -285C135 -285 149 -299 149 -316L313 -262C308 -244 305 -226 305 -207C305 -105 388 -21 490 -21C569 -21 639 -72 664 -145L875 -75V-53C875 -36 889 -21 907 -21C924 -21 939 -36 939 -53V-843C939 -860 924 -875 907 -875ZM875 -143L762 -180V-716L875 -753ZM699 -201L149 -384V-512L699 -695ZM490 -85C423 -85 369 -140 369 -207C369 -219 371 -230 374 -242L604 -165C587 -118 541 -85 490 -85Z"/>
</svg>