<svg xmlns="http://www.w3.org/2000/svg" viewBox="0 -1024 1024 1079">
	<path transform="translate(0 -37)" d="M320 -875C267 -875 224 -832 224 -779V-117C224 -64 267 -21 320 -21H704C757 -21 800 -64 800 -117V-779C800 -832 757 -875 704 -875ZM704 -811C722 -811 736 -796 736 -779V-272H288V-779C288 -796 302 -811 320 -811ZM320 -85C302 -85 288 -100 288 -117V-208H736V-117C736 -100 722 -85 704 -85ZM487 -178C469 -178 455 -164 455 -146C455 -129 469 -114 487 -114H537C555 -114 569 -129 569 -146C569 -164 555 -178 537 -178Z"/>
</svg>