<svg xmlns="http://www.w3.org/2000/svg" viewBox="0 -1024 1024 1079">
	<path transform="translate(0 -37)" d="M234 -875C181 -875 138 -832 138 -779V-117C138 -64 181 -21 234 -21H789C842 -21 885 -64 885 -117V-779C885 -832 842 -875 789 -875ZM789 -811C807 -811 821 -796 821 -779V-272H202V-779C202 -796 217 -811 234 -811ZM234 -85C217 -85 202 -100 202 -117V-208H821V-117C821 -100 807 -85 789 -85ZM487 -178C469 -178 455 -164 455 -146C455 -129 469 -114 487 -114H536C554 -114 568 -129 568 -146C568 -164 554 -178 536 -178Z"/>
</svg>