<svg xmlns="http://www.w3.org/2000/svg" viewBox="0 -1024 1024 1079">
	<path transform="translate(0 -37)" d="M181 -875C128 -875 85 -832 85 -779V-117C85 -64 128 -21 181 -21H843C896 -21 939 -64 939 -117V-779C939 -832 896 -875 843 -875ZM875 -117C875 -100 860 -85 843 -85H181C164 -85 149 -100 149 -117V-779C149 -796 164 -811 181 -811H843C860 -811 875 -796 875 -779ZM510 -695C419 -695 345 -621 345 -529C345 -512 359 -497 377 -497C394 -497 409 -512 409 -529C409 -585 454 -631 510 -631C566 -631 612 -585 612 -529C612 -473 566 -428 510 -428C493 -428 478 -414 478 -396V-352C478 -334 493 -320 510 -320C528 -320 542 -334 542 -352V-367C618 -382 676 -449 676 -529C676 -621 601 -695 510 -695ZM510 -281C534 -281 553 -262 553 -238C553 -214 534 -195 510 -195C486 -195 467 -214 467 -238C467 -262 486 -281 510 -281Z"/>
</svg>