<svg xmlns="http://www.w3.org/2000/svg" viewBox="0 -1024 1024 1079">
	<path transform="translate(0 -37)" d="M172 -69C224 -27 290 -9 357 -16C423 -24 483 -57 525 -110L907 -591C968 -668 955 -781 878 -842C845 -867 806 -880 767 -880C715 -880 663 -857 627 -813L300 -400C283 -378 275 -351 278 -323C281 -295 295 -270 317 -252C363 -216 429 -224 465 -270L675 -535C686 -549 684 -569 670 -580C664 -584 657 -587 650 -587C641 -587 631 -582 625 -574L415 -309C401 -291 375 -289 357 -303C348 -309 343 -319 342 -330C340 -341 343 -352 350 -360L678 -773C717 -822 789 -831 838 -792C887 -752 896 -680 857 -631L475 -150C444 -110 399 -86 349 -80C300 -74 251 -88 212 -119C172 -151 148 -195 142 -245C136 -294 150 -343 181 -382L437 -705C448 -719 446 -739 432 -750C426 -755 419 -757 412 -757C403 -757 393 -753 387 -745L131 -422C45 -314 63 -155 172 -69Z"/>
</svg>