<svg xmlns="http://www.w3.org/2000/svg" viewBox="0 -1024 1024 1079">
	<path transform="translate(0 -37)" d="M851 -404C851 -580 716 -725 544 -741V-768H600C617 -768 632 -782 632 -800C632 -818 617 -832 600 -832H424C407 -832 392 -818 392 -800C392 -782 407 -768 424 -768H480V-742C308 -725 173 -580 173 -404V-256C123 -242 85 -196 85 -141C85 -75 139 -21 205 -21H819C885 -21 939 -75 939 -141C939 -196 901 -242 851 -256ZM512 -679C664 -679 787 -556 787 -404V-261H237V-404C237 -556 360 -679 512 -679ZM205 -85C174 -85 149 -110 149 -141C149 -172 174 -197 205 -197H819C850 -197 875 -172 875 -141C875 -110 850 -85 819 -85Z"/>
</svg>