<svg xmlns="http://www.w3.org/2000/svg" viewBox="0 -1024 1024 1079">
	<path transform="translate(0 -37)" d="M885 -519C885 -733 718 -907 512 -907C306 -907 139 -733 139 -519C139 -323 280 -160 463 -135L391 -57C385 -51 383 -42 387 -34C390 -26 398 -21 406 -21H618C626 -21 634 -26 637 -34C641 -42 639 -51 633 -57L561 -135C744 -160 885 -323 885 -519ZM512 -196C341 -196 203 -341 203 -519C203 -698 341 -843 512 -843C683 -843 821 -698 821 -519C821 -341 683 -196 512 -196ZM331 -487C313 -487 299 -501 299 -519C299 -645 394 -747 512 -747C530 -747 544 -732 544 -715C544 -697 530 -683 512 -683C430 -683 363 -609 363 -519C363 -501 348 -487 331 -487Z"/>
</svg>