<svg xmlns="http://www.w3.org/2000/svg" viewBox="0 -1024 1024 1079">
	<path transform="translate(0 -37)" d="M181 -21C128 -21 85 -64 85 -117V-779C85 -832 128 -875 181 -875H843C896 -875 939 -832 939 -779V-117C939 -64 896 -21 843 -21ZM181 -811C164 -811 149 -796 149 -779V-117C149 -100 164 -85 181 -85H843C860 -85 875 -100 875 -117V-779C875 -796 860 -811 843 -811ZM299 -591C281 -591 267 -606 267 -623C267 -641 281 -655 299 -655H725C743 -655 757 -641 757 -623C757 -606 743 -591 725 -591ZM299 -416C281 -416 267 -430 267 -448C267 -466 281 -480 299 -480H725C743 -480 757 -466 757 -448C757 -430 743 -416 725 -416ZM299 -241C281 -241 267 -255 267 -273C267 -290 281 -305 299 -305H512C530 -305 544 -290 544 -273C544 -255 530 -241 512 -241Z"/>
</svg>