<svg xmlns="http://www.w3.org/2000/svg" viewBox="0 -1024 1024 1079">
	<path transform="translate(0 -37)" d="M764 -275C720 -275 681 -253 658 -218H490C467 -253 428 -275 384 -275C365 -275 347 -271 331 -263L321 -322H855C871 -322 884 -334 886 -349L938 -670C939 -679 937 -688 930 -695C924 -702 915 -707 906 -707H260L238 -846C235 -861 222 -873 206 -873H86C69 -873 54 -858 54 -841C54 -823 69 -809 86 -809H179L274 -212C263 -193 256 -171 256 -147C256 -77 313 -19 384 -19C455 -19 512 -77 512 -147L511 -154H637L636 -147C636 -77 694 -19 764 -19C835 -19 892 -77 892 -147C892 -218 835 -275 764 -275ZM311 -386L270 -643H869L828 -386ZM384 -83C349 -83 320 -112 320 -147C320 -182 349 -211 384 -211C419 -211 448 -182 448 -147C448 -112 419 -83 384 -83ZM764 -83C729 -83 700 -112 700 -147C700 -182 729 -211 764 -211C800 -211 828 -182 828 -147C828 -112 800 -83 764 -83Z"/>
</svg>