<svg xmlns="http://www.w3.org/2000/svg" viewBox="0 -1024 1024 1079">
	<path transform="translate(0 -37)" d="M762 -648C754 -780 645 -884 512 -884C379 -884 270 -779 262 -648H181C128 -648 85 -605 85 -552V-116C85 -63 128 -20 181 -20H843C896 -20 939 -63 939 -116V-552C939 -605 896 -648 843 -648ZM326 -648C334 -744 414 -820 512 -820C610 -820 690 -744 698 -648ZM544 -231C544 -213 530 -199 512 -199C494 -199 480 -213 480 -231V-291C447 -303 424 -335 424 -372C424 -421 463 -460 512 -460C560 -460 600 -421 600 -372C600 -335 577 -304 544 -291Z"/>
</svg>