<svg xmlns="http://www.w3.org/2000/svg" viewBox="0 -1024 1024 1079">
	<path transform="translate(0 -37)" d="M894 -781C852 -838 785 -872 714 -872C666 -872 620 -857 581 -828L431 -717C383 -681 352 -629 343 -570C334 -512 349 -453 384 -405C425 -349 491 -315 561 -314C563 -322 566 -329 567 -337C569 -351 568 -365 565 -378H564C514 -378 466 -402 436 -443C410 -477 400 -519 406 -561C413 -603 435 -640 469 -665L619 -776C647 -797 680 -808 714 -808C765 -808 812 -784 842 -743C867 -709 878 -667 872 -625C865 -583 843 -546 809 -520L719 -454C728 -433 734 -410 736 -387L847 -469C895 -504 926 -556 935 -615C944 -674 929 -733 894 -781ZM642 -485C600 -541 535 -575 465 -576C463 -568 460 -561 459 -553C457 -539 458 -525 461 -512H462C512 -512 560 -488 590 -447C616 -413 626 -371 620 -329C613 -287 591 -250 557 -225L406 -114C379 -93 346 -82 312 -82C261 -82 214 -106 184 -147C158 -181 148 -223 154 -265C161 -307 183 -344 217 -370L307 -436C298 -457 292 -480 290 -503L179 -421C131 -386 100 -334 91 -275C82 -216 97 -157 132 -109C174 -52 241 -18 312 -18C360 -18 406 -33 445 -62L595 -173C643 -209 674 -261 683 -320C692 -379 677 -437 642 -485Z"/>
</svg>