<svg xmlns="http://www.w3.org/2000/svg" viewBox="0 -1024 1024 1079">
	<path transform="translate(0 -37)" d="M960 -427C960 -494 923 -553 868 -580C875 -599 878 -619 878 -640C878 -734 806 -811 716 -811C696 -811 676 -807 659 -800C632 -857 576 -896 512 -896C448 -896 392 -857 365 -800C348 -807 328 -811 308 -811C218 -811 145 -734 145 -640C145 -619 149 -599 156 -580C101 -553 64 -494 64 -427C64 -363 97 -307 147 -278C146 -271 145 -263 145 -256C145 -162 218 -85 308 -85C328 -85 348 -89 365 -96C392 -39 447 0 512 0C576 0 632 -39 659 -96C676 -89 696 -85 716 -85C806 -85 878 -162 878 -256C878 -263 878 -271 877 -278C926 -307 960 -363 960 -427ZM493 -292C487 -282 477 -277 466 -277C460 -277 454 -279 448 -283L443 -287L340 -390C328 -402 328 -423 340 -435C353 -447 373 -448 386 -435L461 -360L624 -605C634 -619 654 -623 669 -613C683 -604 688 -584 678 -569Z"/>
</svg>