<svg xmlns="http://www.w3.org/2000/svg" viewBox="0 -1024 1024 1079">
	<path transform="translate(30 -37)" d="M148 -244C142 -244 136 -246 131 -249C103 -266 86 -297 86 -331V-565C86 -618 129 -661 182 -661H288L588 -900C598 -907 611 -909 622 -903C633 -898 640 -887 640 -875V-735C640 -717 626 -703 608 -703C590 -703 576 -717 576 -735V-808L319 -604C313 -600 306 -597 299 -597H181C164 -597 149 -583 149 -565V-331C149 -319 155 -309 165 -303C180 -294 184 -274 175 -259C169 -250 159 -244 148 -244ZM75 -6C66 -6 58 -9 52 -16C40 -28 40 -48 52 -61L870 -879C883 -892 903 -892 915 -879C928 -866 928 -846 915 -834L97 -16C91 -9 83 -6 75 -6ZM608 11C601 11 594 8 588 4L384 -158C370 -170 367 -190 378 -203C389 -217 410 -220 423 -209L576 -87V-387C576 -404 590 -419 608 -419C626 -419 640 -404 640 -387V-21C640 -9 633 2 622 7C618 10 613 11 608 11Z"/>
</svg>
