<svg xmlns="http://www.w3.org/2000/svg" viewBox="0 -1024 1024 1079">
	<path transform="translate(0 -37)" d="M512 -875C277 -875 85 -683 85 -448C85 -213 277 -21 512 -21C747 -21 939 -213 939 -448C939 -683 747 -875 512 -875ZM512 -85C312 -85 149 -248 149 -448C149 -499 160 -548 179 -592C199 -584 252 -564 297 -548C292 -533 286 -511 285 -491C284 -454 307 -418 309 -414L318 -405C331 -397 347 -384 353 -379C356 -365 360 -325 363 -301C369 -247 371 -238 373 -231C374 -230 395 -180 429 -180C454 -180 458 -189 509 -295C519 -316 528 -335 530 -340C535 -346 556 -366 568 -375C591 -394 600 -453 585 -490C571 -525 503 -578 478 -583C471 -585 460 -585 438 -585C417 -586 385 -587 372 -589C368 -590 359 -593 346 -598C360 -626 373 -652 377 -657C379 -660 384 -662 394 -667L422 -682C431 -687 442 -692 452 -698C502 -724 516 -732 523 -744C528 -752 534 -763 521 -810C566 -809 608 -800 647 -784C610 -770 604 -759 600 -751C585 -718 611 -688 629 -669C633 -664 639 -658 642 -653V-651C632 -631 613 -594 633 -558C651 -527 692 -509 737 -493C743 -491 748 -489 751 -487C758 -478 773 -454 794 -413L801 -401C804 -395 815 -380 837 -380C844 -380 852 -381 862 -385C863 -386 865 -387 869 -389C841 -217 692 -85 512 -85ZM464 -777C453 -771 435 -761 423 -755C411 -749 400 -743 391 -738C381 -732 372 -728 366 -725C351 -717 340 -712 330 -701C327 -698 319 -689 286 -621L210 -649C265 -731 354 -790 456 -806ZM847 -451C818 -505 804 -527 793 -537C786 -543 777 -546 760 -553C744 -558 696 -576 689 -589C686 -595 695 -615 699 -623C703 -630 706 -637 707 -644C713 -672 693 -693 676 -712L667 -723C681 -728 703 -734 727 -739C810 -678 866 -581 873 -472ZM349 -489C350 -501 354 -516 357 -527H358C375 -523 403 -522 436 -521H463C477 -515 520 -479 526 -466C531 -454 528 -431 525 -422C515 -414 488 -391 478 -376C474 -371 469 -361 451 -322C445 -310 438 -294 430 -279L427 -308C417 -394 415 -403 409 -412C407 -416 400 -426 360 -454C355 -463 349 -478 349 -489Z"/>
</svg>