<svg xmlns="http://www.w3.org/2000/svg" viewBox="0 -1024 1024 1079">
	<path transform="translate(0 -37)" d="M752 -811L822 -881C835 -895 835 -916 822 -930C808 -943 787 -943 773 -930L647 -804C640 -797 637 -788 637 -779C637 -771 640 -762 647 -755L773 -629C780 -622 789 -619 797 -619C806 -619 815 -622 822 -629C835 -643 835 -664 822 -678L752 -748H991C1009 -748 1023 -762 1023 -780C1023 -797 1009 -811 991 -811ZM360 -456C418 -456 482 -462 524 -509C558 -549 570 -610 558 -696C542 -817 468 -889 360 -889C252 -889 178 -817 162 -696C151 -610 162 -549 197 -509C238 -462 302 -456 360 -456ZM226 -688C232 -739 259 -825 360 -825C461 -825 488 -739 495 -688C504 -622 497 -576 476 -551C456 -529 422 -520 360 -520C299 -520 264 -529 245 -551C223 -576 217 -622 226 -688ZM713 -140C675 -290 530 -395 360 -395C190 -395 45 -290 8 -140C0 -110 6 -80 24 -57C42 -35 69 -22 98 -22H622C652 -22 678 -35 696 -57C714 -80 720 -110 713 -140ZM646 -97C640 -90 632 -86 622 -86H98C88 -86 80 -90 75 -97C69 -104 67 -114 70 -124C100 -246 219 -331 360 -331C501 -331 620 -246 651 -124C653 -114 651 -104 646 -97Z"/>
</svg>