<svg xmlns="http://www.w3.org/2000/svg" viewBox="0 -1024 1024 1079">
	<path transform="translate(0 -37)" d="M705 -844C693 -856 672 -856 660 -844C648 -831 648 -811 660 -799L776 -683H171C153 -683 139 -668 139 -651C139 -633 153 -619 171 -619H776L660 -503C648 -490 648 -470 660 -457C666 -451 674 -448 683 -448C691 -448 699 -451 705 -457L876 -628C888 -641 888 -661 876 -673ZM248 -277L364 -393C377 -406 377 -426 364 -439C351 -451 331 -451 319 -439L148 -268C136 -255 136 -235 148 -223L319 -52C325 -46 333 -43 341 -43C350 -43 358 -46 364 -52C376 -65 376 -85 364 -97L248 -213H853C871 -213 885 -228 885 -245C885 -263 871 -277 853 -277Z"/>
</svg>