<svg xmlns="http://www.w3.org/2000/svg" viewBox="0 -1024 1024 1079">
	<path transform="translate(0 -37)" d="M762 -648C754 -780 645 -884 512 -884C379 -884 270 -779 262 -648H181C128 -648 85 -605 85 -552V-116C85 -63 128 -20 181 -20H843C896 -20 939 -63 939 -116V-552C939 -605 896 -648 843 -648ZM512 -820C610 -820 690 -744 698 -648H326C334 -744 414 -820 512 -820ZM875 -116C875 -98 860 -84 843 -84H181C164 -84 149 -98 149 -116V-552C149 -570 164 -584 181 -584H843C860 -584 875 -570 875 -552ZM512 -460C464 -460 424 -421 424 -372C424 -335 447 -304 480 -291V-231C480 -213 494 -199 512 -199C530 -199 544 -213 544 -231V-291C577 -303 600 -335 600 -372C600 -421 560 -460 512 -460Z"/>
</svg>