<svg xmlns="http://www.w3.org/2000/svg" viewBox="0 -1024 1024 1079">
	<path transform="translate(0 -37)" d="M375 -456C317 -456 252 -462 211 -509C176 -549 165 -610 177 -697C193 -817 267 -889 375 -889C483 -889 557 -817 573 -697C585 -610 573 -549 539 -509C497 -462 433 -456 375 -456ZM375 -825C273 -825 247 -739 240 -688C231 -622 237 -576 259 -552C278 -529 313 -520 375 -520C436 -520 471 -529 490 -552C512 -576 518 -622 510 -688C503 -739 476 -825 375 -825ZM1004 -524C991 -536 971 -536 959 -524L832 -397L705 -524C693 -536 672 -536 660 -524C648 -511 647 -491 660 -479L809 -329C816 -323 824 -320 832 -320C840 -320 848 -323 855 -329L1004 -479C1016 -491 1016 -511 1004 -524ZM112 -21C83 -21 56 -34 38 -57C20 -80 14 -110 21 -139C59 -290 204 -395 375 -395C545 -395 691 -290 728 -139C735 -110 729 -80 711 -57C694 -34 667 -21 637 -21ZM375 -331C234 -331 114 -246 84 -124C81 -114 83 -103 89 -96C94 -89 102 -85 112 -85H637C647 -85 655 -89 661 -96C667 -103 668 -114 666 -124C636 -246 516 -331 375 -331Z"/>
</svg>