<svg xmlns="http://www.w3.org/2000/svg" viewBox="0 -1024 1024 1079">
	<path transform="translate(0 -37)" d="M181 -21C128 -21 85 -64 85 -117V-647C85 -700 128 -743 181 -743H275C326 -825 415 -875 512 -875C609 -875 698 -825 749 -743H843C896 -743 939 -700 939 -647V-117C939 -64 896 -21 843 -21ZM181 -679C164 -679 149 -665 149 -647V-117C149 -100 164 -85 181 -85H843C860 -85 875 -100 875 -117V-647C875 -665 860 -679 843 -679H736C723 -677 709 -683 703 -695C665 -766 592 -811 512 -811C432 -811 359 -766 321 -695C314 -682 300 -676 285 -679ZM512 -197C398 -197 305 -290 305 -404C305 -518 398 -611 512 -611C626 -611 719 -518 719 -404C719 -290 626 -197 512 -197ZM512 -548C433 -548 369 -483 369 -404C369 -325 433 -261 512 -261C591 -261 655 -325 655 -404C655 -483 591 -548 512 -548Z"/>
</svg>