<svg xmlns="http://www.w3.org/2000/svg" viewBox="0 -1024 1024 1079">
	<path transform="translate(0 -37)" d="M183 -21C129 -21 85 -65 85 -119V-645C85 -699 129 -743 183 -743H275C326 -825 415 -875 512 -875C609 -875 698 -825 749 -743H841C895 -743 939 -699 939 -645V-119C939 -65 895 -21 841 -21ZM183 -679C164 -679 149 -664 149 -645V-119C149 -101 164 -85 183 -85H841C859 -85 875 -101 875 -119V-645C875 -664 859 -679 841 -679H736C723 -677 709 -683 703 -695C665 -766 592 -811 512 -811C432 -811 358 -766 321 -695C314 -682 300 -676 285 -679ZM512 -612C398 -612 305 -519 305 -404C305 -290 398 -197 512 -197C626 -197 719 -290 719 -404C719 -519 626 -612 512 -612ZM544 -373V-320C544 -302 530 -288 512 -288C494 -288 480 -302 480 -320V-373H427C409 -373 395 -388 395 -405C395 -423 409 -437 427 -437H480V-491C480 -508 494 -523 512 -523C530 -523 544 -508 544 -491V-437H597C615 -437 629 -423 629 -405C629 -388 615 -373 597 -373Z"/>
</svg>