<svg xmlns="http://www.w3.org/2000/svg" viewBox="0 -1024 1024 1079">
	<path transform="translate(0 -37)" d="M765 -852C729 -888 666 -888 630 -852L146 -368C132 -355 123 -337 119 -315L96 -67C95 -57 99 -48 105 -41C111 -35 120 -32 128 -32H131L382 -55C401 -59 419 -68 432 -82L916 -566C934 -584 944 -608 944 -633C944 -659 934 -683 916 -701ZM822 -562L626 -758L675 -807C681 -813 689 -816 698 -816C706 -816 714 -813 720 -807L871 -656C877 -650 880 -642 880 -633C880 -625 877 -617 871 -611ZM777 -517L418 -158C406 -146 385 -146 373 -158L222 -309C210 -322 210 -342 222 -354L581 -713ZM327 -114L163 -99L178 -263Z"/>
</svg>