<svg xmlns="http://www.w3.org/2000/svg" viewBox="0 -1024 1024 1079">
	<path transform="translate(0 -37)" d="M162 -873C107 -873 62 -828 62 -773V-459C62 -404 107 -359 162 -359H244C250 -313 255 -208 218 -61C215 -48 220 -35 230 -27C236 -23 242 -21 249 -21C255 -21 261 -23 266 -26C368 -89 478 -218 478 -391V-773C478 -828 433 -873 378 -873ZM649 -873C594 -873 549 -828 549 -773V-459C549 -404 594 -359 649 -359H732C737 -313 742 -208 706 -61C702 -48 707 -35 718 -27C723 -23 730 -21 737 -21C742 -21 748 -23 753 -26C856 -89 965 -218 965 -391V-773C965 -828 921 -873 865 -873ZM298 -132C326 -295 304 -393 303 -398C300 -413 287 -423 272 -423H162C142 -423 126 -439 126 -459V-773C126 -793 142 -809 162 -809H378C398 -809 414 -793 414 -773V-391C414 -282 361 -193 298 -132ZM786 -132C814 -295 792 -393 790 -398C787 -413 774 -423 759 -423H649C629 -423 613 -439 613 -459V-773C613 -793 629 -809 649 -809H865C885 -809 901 -793 901 -773V-391C901 -282 849 -193 786 -132Z"/>
</svg>