<svg xmlns="http://www.w3.org/2000/svg" viewBox="0 -1024 1024 1079">
	<path transform="translate(0 -37)" d="M322 -117C281 -117 247 -148 243 -189V-194C242 -200 239 -204 233 -207C228 -209 222 -208 218 -204L214 -201C182 -175 136 -177 107 -206L91 -222C62 -251 60 -297 87 -329L90 -333C93 -337 94 -343 92 -348C90 -353 85 -357 79 -357L75 -358C34 -362 3 -395 3 -437V-459C3 -500 34 -534 75 -538L80 -539C85 -539 90 -542 92 -547V-548C94 -553 93 -559 90 -564L87 -567C60 -599 62 -645 91 -674L107 -690C136 -719 182 -721 214 -695L218 -691C222 -688 228 -687 233 -689C239 -691 242 -696 243 -702V-706C247 -748 281 -779 322 -779H344C386 -779 419 -748 423 -707L424 -702C424 -696 428 -691 433 -689H434C439 -687 445 -688 449 -691L453 -695C484 -721 530 -719 559 -690L575 -674C604 -645 606 -599 580 -567L577 -563C573 -559 572 -553 574 -548C577 -542 582 -539 587 -538H592C633 -534 664 -500 664 -459V-437C664 -395 633 -362 592 -358L587 -357C582 -357 577 -353 574 -348C572 -343 573 -337 577 -332L580 -329C606 -297 604 -251 575 -222L559 -206C530 -177 484 -175 452 -201L449 -204C445 -208 439 -209 433 -207C428 -204 424 -199 424 -194L423 -189C419 -148 386 -117 344 -117ZM227 -272C237 -272 248 -270 258 -266C285 -254 304 -229 306 -200L307 -195C308 -187 314 -181 322 -181H344C352 -181 359 -187 360 -195V-200C363 -229 381 -254 409 -266C436 -277 467 -273 490 -254L493 -251C500 -246 508 -246 514 -252L530 -267C535 -273 536 -282 531 -288L528 -291C509 -314 504 -345 515 -373C527 -400 552 -419 581 -421L586 -422C594 -422 600 -429 600 -437V-459C600 -467 594 -474 586 -474L581 -475C552 -478 527 -496 515 -523C504 -551 509 -582 528 -605L531 -608C536 -614 535 -623 530 -629L514 -645C508 -650 499 -651 493 -645L490 -642C467 -624 436 -619 409 -630L407 -631C381 -642 363 -667 360 -696V-701C359 -709 352 -715 344 -715H322C314 -715 308 -709 307 -701L306 -696C304 -667 285 -642 258 -630C231 -619 200 -623 177 -642L173 -646C167 -651 158 -650 153 -645L137 -629C131 -623 131 -614 136 -608L139 -605C158 -582 162 -552 152 -525L151 -523C140 -496 114 -477 85 -475L80 -474C73 -474 67 -467 67 -459V-437C67 -429 73 -422 80 -422L85 -421C115 -419 140 -400 151 -373C163 -345 158 -314 139 -292L136 -288C131 -282 131 -273 137 -267L153 -251C158 -246 167 -246 173 -251L177 -254C191 -266 209 -272 227 -272ZM1015 -637C1003 -649 982 -649 970 -637L840 -507L710 -637C697 -649 677 -649 665 -637C652 -624 652 -604 665 -591L817 -439C823 -432 832 -429 840 -429C848 -429 856 -432 862 -439L1015 -591C1028 -604 1028 -624 1015 -637ZM333 -322C264 -322 207 -378 207 -448C207 -518 264 -574 333 -574C403 -574 460 -518 460 -448C460 -378 403 -322 333 -322ZM333 -510C299 -510 271 -482 271 -448C271 -414 299 -386 333 -386C368 -386 396 -414 396 -448C396 -482 368 -510 333 -510Z"/>
</svg>