<svg xmlns="http://www.w3.org/2000/svg" viewBox="0 -1024 1024 1079">
	<path transform="translate(0 -37)" d="M483 -629C498 -545 572 -480 661 -480C750 -480 824 -545 839 -629H939C956 -629 971 -644 971 -661C971 -679 956 -693 939 -693H839C824 -778 750 -843 661 -843C572 -843 498 -778 483 -693H85C68 -693 53 -679 53 -661C53 -644 68 -629 85 -629ZM661 -779C726 -779 779 -726 779 -661C779 -597 726 -544 661 -544C597 -544 544 -597 544 -661C544 -726 597 -779 661 -779ZM541 -267C526 -351 452 -416 363 -416C274 -416 200 -351 185 -267H85C68 -267 53 -252 53 -235C53 -217 68 -203 85 -203H185C200 -118 274 -53 363 -53C452 -53 526 -118 541 -203H939C956 -203 971 -217 971 -235C971 -252 956 -267 939 -267ZM363 -117C298 -117 245 -170 245 -235C245 -299 298 -352 363 -352C427 -352 480 -299 480 -235C480 -170 427 -117 363 -117Z"/>
</svg>