<svg xmlns="http://www.w3.org/2000/svg" viewBox="0 -1024 1024 1079">
	<path transform="translate(0 -37)" d="M634 -762C634 -695 579 -640 512 -640C445 -640 390 -695 390 -762C390 -830 445 -884 512 -884C579 -884 634 -830 634 -762ZM454 -762C454 -730 480 -704 512 -704C544 -704 570 -730 570 -762C570 -794 544 -820 512 -820C480 -820 454 -794 454 -762ZM634 -447C634 -380 579 -325 512 -325C445 -325 390 -380 390 -447C390 -514 445 -569 512 -569C579 -569 634 -515 634 -447ZM454 -447C454 -415 480 -389 512 -389C544 -389 570 -415 570 -447C570 -479 544 -505 512 -505C480 -505 454 -479 454 -447ZM634 -132C634 -65 579 -10 512 -10C445 -10 390 -65 390 -132C390 -199 445 -254 512 -254C579 -254 634 -199 634 -132ZM454 -132C454 -100 480 -74 512 -74C544 -74 570 -100 570 -132C570 -164 544 -190 512 -190C480 -190 454 -164 454 -132Z"/>
</svg>