<svg xmlns="http://www.w3.org/2000/svg" viewBox="0 -1024 1024 1079">
	<path transform="translate(0 -37)" d="M197 -325C129 -325 75 -380 75 -447C75 -514 129 -569 197 -569C264 -569 319 -514 319 -447C319 -380 264 -325 197 -325ZM512 -325C445 -325 390 -380 390 -447C390 -514 445 -569 512 -569C579 -569 634 -515 634 -447C634 -380 579 -325 512 -325ZM827 -325C760 -325 705 -380 705 -447C705 -514 760 -569 827 -569C894 -569 949 -514 949 -447C949 -380 895 -325 827 -325ZM197 -505C165 -505 139 -479 139 -447C139 -415 165 -389 197 -389C229 -389 255 -415 255 -447C255 -479 229 -505 197 -505ZM512 -505C480 -505 454 -479 454 -447C454 -415 480 -389 512 -389C544 -389 570 -415 570 -447C570 -479 544 -505 512 -505ZM827 -505C795 -505 769 -479 769 -447C769 -415 795 -389 827 -389C859 -389 885 -415 885 -447C885 -479 859 -505 827 -505Z"/>
</svg>