<svg xmlns="http://www.w3.org/2000/svg" viewBox="0 -1024 1024 1079">
	<path transform="translate(0 -37)" d="M422 -865C236 -865 89 -719 89 -532C89 -357 225 -224 408 -217V-54C408 -50 410 -42 413 -37C419 -27 429 -22 440 -22C446 -22 452 -24 457 -27C468 -34 733 -204 802 -262C883 -331 932 -431 932 -531V-532C932 -718 786 -864 599 -864ZM761 -311C712 -270 553 -166 472 -113V-249C472 -266 458 -281 440 -281H423C267 -281 153 -386 153 -532C153 -683 272 -801 422 -801L599 -800C750 -800 868 -682 868 -532C868 -450 828 -368 761 -311Z"/>
</svg>