<svg xmlns="http://www.w3.org/2000/svg" viewBox="0 -1024 1024 1079">
	<path transform="translate(0 -37)" d="M1014 -291C1002 -304 981 -304 969 -291L874 -197V-634C874 -722 802 -794 714 -794H465C447 -794 433 -779 433 -762C433 -744 447 -730 465 -730H714C767 -730 810 -686 810 -634V-197L715 -291C703 -304 683 -304 670 -291C658 -279 658 -259 670 -246L820 -97C826 -91 834 -87 842 -87C850 -87 859 -91 865 -97L1014 -246C1027 -259 1027 -279 1014 -291ZM310 -151C257 -151 214 -195 214 -247V-684L308 -590C315 -583 323 -580 331 -580C339 -580 348 -583 354 -590C366 -602 366 -622 354 -635L204 -784C192 -797 172 -797 159 -784L10 -635C-3 -622 -3 -602 10 -590C22 -577 43 -577 55 -590L150 -684V-247C150 -159 222 -87 310 -87H559C577 -87 591 -102 591 -119C591 -137 577 -151 559 -151Z"/>
</svg>