<svg xmlns="http://www.w3.org/2000/svg" viewBox="0 -1024 1024 1079">
	<path transform="translate(0 -37)" d="M725 -737V-779C725 -832 682 -875 629 -875H394C342 -875 298 -832 298 -779V-737H138C121 -737 106 -722 106 -705C106 -687 121 -673 138 -673H154L222 -107C231 -56 278 -20 335 -20H688C746 -20 793 -56 802 -109L869 -673H885C903 -673 917 -687 917 -705C917 -722 903 -737 885 -737ZM362 -737V-779C362 -796 377 -811 394 -811H629C647 -811 661 -796 661 -779V-737ZM805 -673L739 -118C735 -95 711 -84 689 -84H335C313 -84 289 -95 285 -116L219 -673ZM427 -203C444 -203 459 -217 459 -235V-533C459 -551 444 -565 427 -565C409 -565 395 -551 395 -533V-235C395 -217 409 -203 427 -203ZM597 -203C615 -203 629 -217 629 -235V-533C629 -551 615 -565 597 -565C580 -565 565 -551 565 -533V-235C565 -217 580 -203 597 -203Z"/>
</svg>