<svg xmlns="http://www.w3.org/2000/svg" viewBox="0 -1024 1024 1079">
	<path transform="translate(0 -37)" d="M742 -865C736 -871 728 -875 719 -875H181C128 -875 85 -832 85 -779V-117C85 -64 128 -21 181 -21H843C896 -21 939 -64 939 -117V-655C939 -664 935 -672 929 -678ZM181 -85C164 -85 149 -100 149 -117V-779C149 -796 164 -811 181 -811H655V-623C655 -606 670 -591 687 -591H875V-117C875 -100 860 -85 843 -85ZM719 -797L861 -655H719ZM337 -591C319 -591 305 -606 305 -623C305 -641 319 -655 337 -655H512C530 -655 544 -641 544 -623C544 -606 530 -591 512 -591ZM337 -416C319 -416 305 -430 305 -448C305 -466 319 -480 337 -480H687C705 -480 719 -466 719 -448C719 -430 705 -416 687 -416ZM337 -241C319 -241 305 -255 305 -273C305 -290 319 -305 337 -305H600C617 -305 632 -290 632 -273C632 -255 617 -241 600 -241Z"/>
</svg>