<svg xmlns="http://www.w3.org/2000/svg" viewBox="0 -1024 1024 1079">
	<path transform="translate(0 -37)" d="M942 -790C961 -809 961 -840 942 -859C923 -878 892 -878 872 -859L564 -586C564 -586 597 -582 632 -546C655 -523 670 -482 670 -482ZM157 -9C108 -9 68 -50 68 -99V-622C68 -672 108 -712 157 -712H406C423 -712 438 -698 438 -680C438 -662 423 -648 406 -648H157C143 -648 132 -636 132 -622V-99C132 -85 143 -73 157 -73H745C758 -73 769 -85 769 -99V-367C769 -385 784 -399 801 -399C819 -399 833 -385 833 -367V-99C833 -50 794 -9 745 -9ZM349 -235C341 -229 329 -234 327 -244C322 -296 318 -417 391 -498C430 -540 520 -562 582 -506C644 -450 630 -358 592 -315C503 -223 445 -313 349 -235Z"/>
</svg>