<svg xmlns="http://www.w3.org/2000/svg" viewBox="0 -1024 1024 1079">
	<path transform="translate(0 -37)" d="M383 8C379 8 374 8 370 6C357 0 349 -14 351 -28L404 -392H279C270 -392 261 -396 255 -403C249 -411 246 -420 248 -429L320 -853C322 -869 335 -880 351 -880H642C651 -880 661 -876 667 -868C673 -860 675 -850 673 -841L611 -581H811C823 -581 834 -574 840 -563C845 -552 843 -539 835 -529L408 -3C402 4 393 8 383 8ZM378 -816L317 -456H441C450 -456 459 -452 465 -445C471 -438 474 -429 473 -419L431 -134L743 -517H571C561 -517 552 -522 545 -530C539 -537 537 -547 539 -557L601 -816Z"/>
</svg>