<svg xmlns="http://www.w3.org/2000/svg" viewBox="0 -1024 1024 1079">
	<path transform="translate(-80 0)" d="M889 -821V-925C889 -942 874 -957 857 -957C839 -957 825 -942 825 -925V-821H721C703 -821 689 -807 689 -789C689 -772 703 -757 721 -757H825V-654C825 -636 839 -622 857 -622C874 -622 889 -636 889 -654V-757H992C1010 -757 1024 -772 1024 -789C1024 -807 1010 -821 992 -821ZM519 -583L577 -826C579 -835 577 -845 571 -853C565 -861 555 -865 546 -865H271C256 -865 243 -854 240 -838L172 -439C170 -429 173 -420 179 -413C185 -405 194 -401 204 -401H319L270 -60C268 -46 276 -32 289 -26C293 -24 297 -23 302 -23C311 -23 320 -28 327 -35L730 -531C738 -541 739 -554 734 -565C729 -576 717 -584 705 -584ZM638 -519L350 -166L388 -429C389 -438 386 -447 380 -454C374 -461 365 -465 356 -465H241L299 -801H505L447 -559C445 -549 447 -539 453 -532C460 -524 469 -519 479 -519Z"/>
</svg>
