<svg xmlns="http://www.w3.org/2000/svg" viewBox="0 -1024 1024 1079">
	<path transform="translate(0 -37)" d="M352 -875C299 -875 256 -832 256 -779V-117C256 -64 299 -21 352 -21H672C725 -21 768 -64 768 -117V-779C768 -832 725 -875 672 -875ZM672 -811C690 -811 704 -796 704 -779V-492L567 -353L490 -430C484 -436 476 -440 467 -440C459 -440 451 -436 445 -430L320 -304V-779C320 -796 334 -811 352 -811ZM467 -666C501 -666 528 -639 528 -605C528 -572 501 -545 467 -545C434 -545 407 -572 407 -605C407 -639 434 -666 467 -666ZM704 -401V-217L613 -308ZM352 -85C334 -85 320 -100 320 -117V-213L468 -362L704 -127V-117C704 -100 690 -85 672 -85Z"/>
</svg>