<svg xmlns="http://www.w3.org/2000/svg" viewBox="0 -1024 1024 1079">
	<path transform="translate(0 -37)" d="M874 -811V-925C874 -943 860 -957 842 -957C825 -957 810 -943 810 -925V-811H696C679 -811 664 -797 664 -779C664 -762 679 -747 696 -747H810V-633C810 -616 825 -601 842 -601C860 -601 874 -616 874 -633V-747H989C1006 -747 1021 -762 1021 -779C1021 -797 1006 -811 989 -811ZM360 -456C418 -456 482 -462 524 -509C558 -549 570 -610 558 -697C542 -817 468 -889 360 -889C252 -889 178 -817 162 -697C150 -610 161 -549 196 -509C237 -462 302 -456 360 -456ZM225 -688C232 -739 259 -825 360 -825C461 -825 488 -739 495 -688C504 -622 497 -576 475 -552C456 -529 421 -520 360 -520C298 -520 264 -529 244 -552C223 -576 216 -622 225 -688ZM713 -139C676 -290 530 -395 360 -395C189 -395 44 -290 7 -139C-1 -110 5 -80 23 -57C41 -34 68 -21 97 -21H622C652 -21 679 -34 696 -56C714 -79 720 -110 713 -139ZM646 -96C640 -89 632 -85 622 -85H97C87 -85 79 -89 74 -96C68 -103 66 -114 69 -124C99 -246 219 -331 360 -331C501 -331 621 -246 651 -124C654 -114 652 -103 646 -96Z"/>
</svg>