<svg xmlns="http://www.w3.org/2000/svg" viewBox="0 -1024 1024 1079">
	<path transform="translate(0 -37)" d="M824 -564C811 -563 802 -567 796 -573L683 -694C671 -707 671 -727 684 -739C697 -751 717 -750 729 -738L811 -651L946 -923C954 -938 973 -945 989 -937C1005 -929 1011 -910 1003 -894L848 -581C844 -572 835 -565 824 -564ZM360 -456C418 -456 482 -462 524 -509C558 -549 570 -610 558 -697C542 -817 468 -889 360 -889C252 -889 178 -817 162 -697C150 -610 161 -549 196 -509C237 -462 302 -456 360 -456ZM713 -139C676 -290 530 -395 360 -395C189 -395 44 -290 7 -139C-1 -110 5 -80 23 -57C41 -34 68 -22 97 -22H622C652 -22 679 -34 696 -57C714 -80 720 -110 713 -139Z"/>
</svg>