<svg xmlns="http://www.w3.org/2000/svg" viewBox="0 -1024 1024 1079">
	<path transform="translate(0 -37)" d="M512 11C259 11 53 -195 53 -448C53 -701 259 -907 512 -907C765 -907 971 -701 971 -448C971 -195 765 11 512 11ZM512 -843C294 -843 117 -666 117 -448C117 -230 294 -53 512 -53C730 -53 907 -230 907 -448C907 -666 730 -843 512 -843ZM537 -468V-686C537 -704 522 -718 505 -718C487 -718 473 -704 473 -686V-441C473 -425 484 -412 498 -409L667 -384H672C688 -384 701 -395 704 -411C706 -429 694 -445 677 -447Z"/>
</svg>