<svg xmlns="http://www.w3.org/2000/svg" viewBox="0 -1024 1024 1079">
	<path transform="translate(0 -37)" d="M314 -404C365 -404 421 -409 458 -451C488 -486 498 -540 488 -615C474 -721 409 -784 314 -784C219 -784 154 -721 140 -615C130 -540 140 -486 170 -451C207 -409 263 -404 314 -404ZM713 -404C763 -404 820 -409 856 -451C887 -486 897 -540 887 -615C872 -721 807 -784 712 -784C618 -784 552 -721 538 -615C528 -540 538 -486 569 -451C605 -409 662 -404 713 -404ZM203 -607C209 -649 231 -720 314 -720C397 -720 419 -649 425 -607C432 -552 427 -513 410 -493C394 -475 365 -468 314 -468C263 -468 234 -475 218 -493C201 -513 196 -552 203 -607ZM602 -607C607 -649 629 -720 713 -720C796 -720 818 -649 823 -607C831 -552 826 -513 808 -493C792 -475 764 -468 713 -468C661 -468 633 -475 617 -493C599 -513 594 -552 602 -607ZM1019 -128C987 -259 861 -350 713 -350C637 -350 568 -326 513 -286C459 -326 389 -350 314 -350C166 -350 40 -259 7 -128C1 -101 6 -74 22 -53C38 -33 63 -21 89 -21H937C964 -21 988 -33 1004 -53C1020 -74 1026 -101 1019 -128ZM89 -85C82 -85 77 -88 73 -92C69 -98 67 -105 69 -113C95 -215 195 -286 314 -286C433 -286 533 -215 559 -112C560 -105 559 -98 555 -93C551 -88 546 -85 539 -85ZM954 -93C950 -88 944 -85 937 -85H621C624 -99 624 -113 621 -128C610 -171 589 -208 561 -241C603 -269 655 -286 712 -286C831 -286 932 -215 957 -112C959 -105 958 -98 954 -93Z"/>
</svg>