<svg xmlns="http://www.w3.org/2000/svg" viewBox="0 -1024 1024 1079">
	<path transform="translate(0 -37)" d="M512 -907C259 -907 53 -701 53 -448C53 -195 259 11 512 11C765 11 971 -195 971 -448C971 -701 765 -907 512 -907ZM540 -374C537 -365 529 -359 519 -359H507C497 -359 489 -365 486 -374L409 -634C407 -641 408 -648 412 -653C416 -658 423 -662 429 -662H597C604 -662 610 -658 614 -653C618 -648 619 -641 617 -634ZM513 -204C483 -204 458 -229 458 -259C458 -289 483 -313 513 -313C543 -313 568 -289 568 -259C568 -229 543 -204 513 -204Z"/>
</svg>