<svg xmlns="http://www.w3.org/2000/svg" viewBox="0 -1024 1024 1079">
	<path transform="translate(0 -37)" d="M535 -855C522 -867 502 -867 489 -855L276 -641C263 -629 263 -609 276 -596C289 -584 309 -584 321 -596L480 -755V-320C480 -302 494 -288 512 -288C530 -288 544 -302 544 -320V-755L703 -596C709 -590 717 -587 725 -587C734 -587 742 -590 748 -596C760 -609 760 -629 748 -641ZM183 -24C129 -24 85 -68 85 -122V-363C85 -380 100 -395 117 -395C135 -395 149 -380 149 -363V-122C149 -103 164 -88 183 -88H841C859 -88 875 -103 875 -122V-363C875 -380 889 -395 907 -395C924 -395 939 -380 939 -363V-122C939 -68 895 -24 841 -24Z"/>
</svg>