<svg xmlns="http://www.w3.org/2000/svg" viewBox="0 -1024 1024 1079">
	<path transform="translate(0 -37)" d="M489 -340C496 -334 504 -331 512 -331C520 -331 528 -334 535 -340L748 -553C760 -566 760 -586 748 -599C735 -611 715 -611 703 -599L544 -440V-875C544 -892 530 -907 512 -907C494 -907 480 -892 480 -875V-440L321 -599C309 -611 289 -611 276 -599C264 -586 263 -566 276 -553ZM907 -395C889 -395 875 -380 875 -363V-122C875 -103 859 -88 841 -88H183C164 -88 149 -103 149 -122V-363C149 -380 135 -395 117 -395C100 -395 85 -380 85 -363V-122C85 -68 129 -24 183 -24H841C895 -24 939 -68 939 -122V-363C939 -380 924 -395 907 -395Z"/>
</svg>