<svg xmlns="http://www.w3.org/2000/svg" viewBox="0 -1024 1024 1079">
	<path transform="translate(0 -37)" d="M203 -831C138 -831 85 -779 85 -714V-181C85 -116 138 -63 203 -63H821C886 -63 939 -116 939 -181V-714C939 -779 886 -831 821 -831ZM821 -767C851 -767 875 -743 875 -714V-683L531 -454C520 -447 504 -447 493 -455L149 -683V-714C149 -743 173 -767 203 -767ZM203 -127C173 -127 149 -151 149 -181V-608L458 -402C475 -391 493 -386 512 -386C531 -386 549 -391 566 -402L875 -608V-181C875 -151 851 -127 821 -127Z"/>
</svg>