<svg xmlns="http://www.w3.org/2000/svg" viewBox="0 -1024 1024 1079">
	<path transform="translate(0 -37)" d="M511 -21C746 -21 938 -213 938 -448C938 -466 923 -480 906 -480C888 -480 874 -466 874 -448C874 -248 711 -85 511 -85C311 -85 148 -248 148 -448C148 -648 311 -811 511 -811C634 -811 749 -747 815 -645L688 -668C671 -672 654 -660 651 -643C647 -625 659 -609 676 -605L875 -569C884 -567 893 -569 900 -574C907 -580 912 -587 913 -596L937 -797C939 -815 927 -831 909 -833H905C889 -833 876 -821 874 -805L860 -693C781 -805 651 -875 511 -875C276 -875 84 -683 84 -448C84 -213 276 -21 511 -21Z"/>
</svg>