<svg xmlns="http://www.w3.org/2000/svg" viewBox="0 -1024 1024 1079">
	<path transform="translate(0 -37)" d="M320 -224C302 -224 288 -238 288 -256V-875C288 -892 274 -907 256 -907C238 -907 224 -892 224 -875V-256C224 -203 267 -160 320 -160H939C956 -160 971 -174 971 -192C971 -210 956 -224 939 -224ZM85 -736C68 -736 53 -722 53 -704C53 -686 68 -672 85 -672H149C167 -672 181 -686 181 -704C181 -722 167 -736 149 -736ZM704 -672C722 -672 736 -658 736 -640V-299C736 -281 750 -267 768 -267C786 -267 800 -281 800 -299V-640C800 -693 757 -736 704 -736H363C345 -736 331 -722 331 -704C331 -686 345 -672 363 -672ZM768 -117C750 -117 736 -103 736 -85V-21C736 -4 750 11 768 11C786 11 800 -4 800 -21V-85C800 -103 786 -117 768 -117Z"/>
</svg>