<svg xmlns="http://www.w3.org/2000/svg" viewBox="0 -1024 1024 1079">
	<path transform="translate(0 -37)" d="M806 -569C807 -573 807 -577 807 -581V-680C807 -722 773 -755 731 -755H149V-817C149 -834 135 -849 117 -849C100 -849 85 -834 85 -817V-71C85 -54 100 -39 117 -39C135 -39 149 -54 149 -71V-132H600C642 -132 676 -166 676 -208V-307C676 -311 675 -315 674 -319H863C905 -319 939 -353 939 -395V-493C939 -535 905 -569 863 -569ZM149 -692H731C738 -691 743 -686 743 -680V-581C743 -575 738 -569 731 -569H149ZM875 -395C875 -388 869 -383 863 -383H149V-505H863C869 -505 875 -500 875 -493ZM612 -208C612 -202 606 -196 600 -196H149V-319H600C606 -319 612 -313 612 -307Z"/>
</svg>