<svg xmlns="http://www.w3.org/2000/svg" viewBox="0 -1024 1024 1079">
	<path transform="translate(0 -37)" d="M183 -875C129 -875 85 -831 85 -777V-119C85 -65 129 -21 183 -21H841C895 -21 939 -65 939 -119V-777C939 -831 895 -875 841 -875ZM875 -119C875 -101 859 -85 841 -85H183C164 -85 149 -101 149 -119V-686C149 -705 164 -720 183 -720H841C860 -720 875 -705 875 -686ZM300 -642C330 -642 355 -617 355 -587C355 -556 330 -532 300 -532C270 -532 245 -556 245 -587C245 -617 270 -642 300 -642ZM512 -642C542 -642 567 -617 567 -587C567 -556 542 -532 512 -532C482 -532 457 -556 457 -587C457 -617 482 -642 512 -642ZM724 -642C754 -642 779 -617 779 -587C779 -556 754 -532 724 -532C694 -532 669 -556 669 -587C669 -617 694 -642 724 -642ZM300 -453C330 -453 355 -429 355 -399C355 -368 330 -344 300 -344C270 -344 245 -368 245 -399C245 -429 270 -453 300 -453ZM512 -453C542 -453 567 -429 567 -399C567 -368 542 -344 512 -344C482 -344 457 -368 457 -399C457 -429 482 -453 512 -453ZM724 -453C754 -453 779 -429 779 -399C779 -368 754 -344 724 -344C694 -344 669 -368 669 -399C669 -429 694 -453 724 -453ZM300 -269C330 -269 355 -244 355 -214C355 -184 330 -159 300 -159C270 -159 245 -184 245 -214C245 -244 270 -269 300 -269ZM512 -269C542 -269 567 -244 567 -214C567 -184 542 -159 512 -159C482 -159 457 -184 457 -214C457 -244 482 -269 512 -269Z"/>
</svg>