<svg xmlns="http://www.w3.org/2000/svg" viewBox="0 -1024 1024 1079">
	<path transform="translate(0 -37)" d="M256 -821C203 -821 160 -778 160 -725V-693H128C75 -693 32 -650 32 -597V-171C32 -118 75 -75 128 -75H768C821 -75 864 -118 864 -171V-203H896C949 -203 992 -246 992 -299V-725C992 -778 949 -821 896 -821ZM928 -299C928 -281 914 -267 896 -267H864V-597C864 -650 821 -693 768 -693H224V-725C224 -743 238 -757 256 -757H896C914 -757 928 -743 928 -725ZM800 -171C800 -153 786 -139 768 -139H128C110 -139 96 -153 96 -171V-597C96 -615 110 -629 128 -629H768C786 -629 800 -615 800 -597ZM513 -269C495 -269 481 -284 481 -301V-466C481 -483 495 -498 513 -498H677C695 -498 709 -483 709 -466V-301C709 -283 695 -269 677 -269ZM203 -423C185 -423 171 -437 171 -455C171 -473 185 -487 203 -487H389C407 -487 421 -473 421 -455C421 -437 407 -423 389 -423ZM203 -280C185 -280 171 -294 171 -312C171 -330 185 -344 203 -344H389C407 -344 421 -330 421 -312C421 -294 407 -280 389 -280Z"/>
</svg>