<svg xmlns="http://www.w3.org/2000/svg" viewBox="0 -1024 1024 1079">
	<path transform="translate(0 -37)" d="M922 -544C889 -602 827 -641 756 -641C696 -641 643 -613 608 -569C580 -587 547 -597 512 -597C477 -597 444 -587 416 -569C381 -613 328 -641 268 -641C197 -641 135 -602 102 -544H34C16 -544 2 -530 2 -512C2 -494 16 -480 34 -480H79C77 -470 76 -460 76 -449C76 -343 162 -257 268 -257C374 -257 460 -343 460 -449C460 -472 455 -494 448 -514C466 -526 488 -533 512 -533C536 -533 558 -526 576 -514C569 -494 564 -472 564 -449C564 -343 650 -257 756 -257C862 -257 948 -343 948 -449C948 -460 947 -470 945 -480H990C1008 -480 1022 -494 1022 -512C1022 -530 1008 -544 990 -544ZM268 -321C197 -321 140 -379 140 -449C140 -520 197 -577 268 -577C338 -577 396 -520 396 -449C396 -379 338 -321 268 -321ZM628 -449C628 -520 686 -577 756 -577C827 -577 884 -520 884 -449C884 -379 827 -321 756 -321C686 -321 628 -379 628 -449Z"/>
</svg>