<svg xmlns="http://www.w3.org/2000/svg" viewBox="0 -1024 1024 1079">
	<path transform="translate(0 -37)" d="M811 -832C834 -832 853 -851 853 -875C853 -898 834 -917 811 -917H213C190 -917 171 -898 171 -875C171 -851 190 -832 213 -832ZM213 -747C190 -747 171 -728 171 -704C171 -680 190 -661 213 -661H811C834 -661 853 -680 853 -704C853 -728 834 -747 811 -747ZM542 -606C526 -623 499 -623 482 -606L269 -393C252 -376 252 -349 269 -333C285 -316 312 -316 329 -333L469 -473V-21C469 2 488 21 512 21C536 21 555 2 555 -21V-473L695 -333C704 -324 714 -320 725 -320C736 -320 747 -324 755 -333C772 -349 772 -376 755 -393Z"/>
</svg>