<svg xmlns="http://www.w3.org/2000/svg" viewBox="0 -1024 1024 1079">
	<path transform="translate(0 -37)" d="M512 -907C259 -907 53 -701 53 -448C53 -195 259 11 512 11C765 11 971 -195 971 -448C971 -701 765 -907 512 -907ZM542 -342C542 -324 528 -310 510 -310C492 -310 478 -324 478 -342V-389C478 -406 492 -421 510 -421C573 -421 625 -472 625 -536C625 -599 573 -651 510 -651C446 -651 395 -599 395 -536C395 -518 381 -504 363 -504C345 -504 331 -518 331 -536C331 -634 411 -715 510 -715C608 -715 689 -634 689 -536C689 -448 625 -375 542 -360ZM510 -169C484 -169 462 -190 462 -216C462 -242 484 -264 510 -264C536 -264 557 -242 557 -216C557 -190 536 -169 510 -169Z"/>
</svg>