<svg xmlns="http://www.w3.org/2000/svg" viewBox="0 -1024 1024 1079">
	<path transform="translate(0 -37)" d="M512 11C259 11 53 -195 53 -448C53 -701 259 -907 512 -907C765 -907 971 -701 971 -448C971 -195 765 11 512 11ZM512 -843C294 -843 117 -666 117 -448C117 -230 294 -53 512 -53C730 -53 907 -230 907 -448C907 -666 730 -843 512 -843ZM512 -670C541 -670 565 -646 565 -617C565 -587 541 -564 512 -564C483 -564 459 -587 459 -617C459 -646 483 -670 512 -670ZM512 -190C488 -190 469 -209 469 -233V-468C469 -491 488 -510 512 -510C536 -510 555 -491 555 -468V-233C555 -209 536 -190 512 -190Z"/>
</svg>