<svg xmlns="http://www.w3.org/2000/svg" viewBox="0 -1024 1024 1079">
	<path transform="translate(0 -37)" d="M181 -21C128 -21 85 -64 85 -117V-779C85 -832 128 -875 181 -875H843C896 -875 939 -832 939 -779V-117C939 -64 896 -21 843 -21ZM181 -811C164 -811 149 -796 149 -779V-117C149 -100 164 -85 181 -85H843C860 -85 875 -100 875 -117V-779C875 -796 860 -811 843 -811ZM538 -170C523 -172 512 -184 510 -198L479 -415L262 -446C247 -448 236 -459 234 -474C233 -488 241 -502 254 -508L724 -702C736 -707 750 -704 759 -695C768 -686 771 -672 766 -660L572 -190C567 -178 555 -170 542 -170ZM676 -612L389 -493L512 -476C526 -474 538 -462 540 -448L557 -325Z"/>
</svg>