<svg xmlns="http://www.w3.org/2000/svg" viewBox="0 -1024 1024 1079">
	<path transform="translate(0 -37)" d="M987 -646C978 -646 970 -650 963 -656C962 -658 801 -824 512 -824C223 -824 62 -658 61 -656C49 -643 28 -643 15 -655C3 -667 2 -687 14 -700C21 -708 194 -888 512 -888C830 -888 1003 -708 1010 -700C1022 -687 1021 -667 1009 -655C1002 -649 994 -646 987 -646ZM857 -482C849 -482 841 -485 835 -491C806 -519 696 -610 512 -610C329 -610 218 -519 189 -491C176 -479 156 -479 144 -492C131 -505 132 -525 145 -537C179 -569 305 -674 512 -674C719 -674 845 -569 879 -537C892 -525 893 -505 880 -492C874 -485 866 -482 857 -482ZM730 -316C722 -316 714 -319 708 -325C707 -325 627 -395 512 -395C397 -395 317 -325 316 -325C303 -313 282 -314 271 -327C259 -340 260 -360 273 -372C277 -376 372 -460 512 -460C652 -460 747 -376 751 -372C764 -360 765 -340 753 -327C747 -320 738 -316 730 -316ZM512 -280C583 -280 640 -223 640 -152C640 -81 583 -24 512 -24C441 -24 384 -81 384 -152C384 -223 441 -280 512 -280Z"/>
</svg>