<svg xmlns="http://www.w3.org/2000/svg" viewBox="0 -1024 1024 1079">
	<path transform="translate(0 -37)" d="M331 -875C278 -875 235 -832 235 -779V-267C235 -214 278 -171 331 -171H843C896 -171 939 -214 939 -267V-779C939 -832 896 -875 843 -875ZM875 -267C875 -249 860 -235 843 -235H331C313 -235 299 -249 299 -267V-779C299 -796 313 -811 331 -811H843C860 -811 875 -796 875 -779ZM619 -555V-658C619 -676 604 -690 587 -690C569 -690 555 -676 555 -658V-555H451C434 -555 419 -540 419 -523C419 -505 434 -491 451 -491H555V-387C555 -370 569 -355 587 -355C604 -355 619 -370 619 -387V-491H722C740 -491 754 -505 754 -523C754 -540 740 -555 722 -555ZM181 -85C164 -85 149 -100 149 -117V-602C149 -619 135 -634 117 -634C100 -634 85 -619 85 -602V-117C85 -64 128 -21 181 -21H709C727 -21 741 -36 741 -53C741 -71 727 -85 709 -85Z"/>
</svg>