<svg xmlns="http://www.w3.org/2000/svg" viewBox="0 -1024 1024 1079">
	<path transform="translate(0 -37)" d="M512 -116C204 -116 80 -403 75 -415C64 -435 64 -462 77 -485C80 -494 204 -781 512 -781C820 -781 944 -494 949 -482C960 -462 960 -435 947 -412C944 -403 820 -116 512 -116ZM512 -713C249 -713 142 -466 138 -456C135 -450 135 -447 136 -444C142 -430 249 -183 512 -183C776 -183 885 -438 886 -441C889 -447 889 -450 888 -453C882 -466 775 -713 512 -713ZM621 -464C569 -464 527 -505 527 -557C527 -585 540 -610 560 -627C545 -632 529 -635 512 -635C409 -635 325 -551 325 -448C325 -345 409 -261 512 -261C615 -261 699 -345 699 -448C699 -465 696 -481 691 -497C674 -477 649 -464 621 -464Z"/>
</svg>