<svg xmlns="http://www.w3.org/2000/svg" viewBox="0 -1024 1024 1079">
	<path transform="translate(0 -37)" d="M539 -890C527 -909 495 -909 483 -890L5 -71C-1 -61 -1 -48 5 -39C10 -29 21 -23 32 -23H990C1001 -23 1012 -29 1017 -39C1023 -48 1023 -61 1017 -71ZM539 -296C536 -287 528 -281 518 -281H506C496 -281 488 -287 485 -296L408 -555C406 -562 408 -569 412 -574C416 -579 422 -583 429 -583H596C602 -583 609 -579 613 -574C617 -569 618 -562 616 -555ZM512 -126C482 -126 458 -151 458 -181C458 -211 482 -235 512 -235C542 -235 567 -211 567 -181C567 -151 542 -126 512 -126Z"/>
</svg>