<svg xmlns="http://www.w3.org/2000/svg" viewBox="0 -1024 1024 1079">
	<path transform="translate(0 -37)" d="M512 -907C259 -907 53 -701 53 -448C53 -195 259 11 512 11C765 11 971 -195 971 -448C971 -701 765 -907 512 -907ZM557 -448L677 -329C689 -316 689 -296 677 -283C670 -277 662 -274 654 -274C646 -274 637 -277 631 -283L512 -403L393 -283C387 -277 378 -274 370 -274C362 -274 354 -277 348 -283C335 -296 335 -316 348 -329L467 -448L347 -567C335 -580 335 -600 347 -612C360 -625 380 -625 393 -612L512 -493L631 -613C644 -625 664 -625 677 -613C689 -600 689 -580 677 -567Z"/>
</svg>