<svg xmlns="http://www.w3.org/2000/svg" viewBox="0 -1024 1024 1079">
	<path transform="translate(0 -37)" d="M779 -480V-779C779 -832 736 -875 683 -875H171C118 -875 75 -832 75 -779V-117C75 -64 118 -21 171 -21H832C897 -21 949 -74 949 -139V-448C949 -466 935 -480 917 -480ZM139 -779C139 -796 153 -811 171 -811H683C700 -811 715 -796 715 -779V-139C715 -119 720 -101 728 -85H171C153 -85 139 -100 139 -117ZM256 -651C238 -651 224 -636 224 -619C224 -601 238 -587 256 -587H597C615 -587 629 -601 629 -619C629 -636 615 -651 597 -651ZM256 -480C238 -480 224 -466 224 -448C224 -430 238 -416 256 -416H597C615 -416 629 -430 629 -448C629 -466 615 -480 597 -480ZM832 -85C803 -85 779 -109 779 -139V-416H885V-139C885 -109 861 -85 832 -85ZM256 -309C238 -309 224 -295 224 -277C224 -260 238 -245 256 -245H459C476 -245 491 -260 491 -277C491 -295 476 -309 459 -309Z"/>
</svg>