<svg xmlns="http://www.w3.org/2000/svg" viewBox="0 -1024 1024 1079">
	<path transform="translate(0 -37)" d="M512 -875C277 -875 85 -683 85 -448C85 -430 100 -416 117 -416C135 -416 149 -430 149 -448C149 -648 312 -811 512 -811C712 -811 875 -648 875 -448C875 -248 712 -85 512 -85C389 -85 274 -149 208 -251L335 -228C352 -224 369 -236 372 -253C376 -271 364 -287 347 -291L148 -327C139 -329 130 -327 123 -322C116 -316 111 -309 110 -300L86 -99C84 -81 96 -65 114 -63H118C134 -63 147 -75 149 -91L163 -203C242 -91 372 -21 512 -21C747 -21 939 -213 939 -448C939 -683 747 -875 512 -875Z"/>
</svg>