<svg xmlns="http://www.w3.org/2000/svg" viewBox="0 -1024 1024 1079">
	<path transform="translate(0 -37)" d="M523 11C516 11 509 8 503 4L202 -235H96C43 -235 0 -278 0 -331V-565C0 -618 43 -661 96 -661H202L503 -900C512 -907 526 -909 537 -903C548 -898 555 -887 555 -875V-21C555 -9 548 2 537 7C532 10 527 11 523 11ZM96 -597C78 -597 64 -583 64 -565V-331C64 -313 78 -299 96 -299H213C221 -299 228 -296 233 -292L491 -88V-808L233 -604C228 -600 221 -597 213 -597ZM760 -101C747 -101 735 -109 730 -122C724 -139 733 -157 749 -163C869 -206 949 -321 949 -448C949 -575 869 -690 749 -733C733 -739 724 -757 730 -774C736 -791 755 -799 771 -793C916 -741 1013 -602 1013 -448C1013 -294 916 -155 771 -103ZM708 -246C694 -246 682 -254 677 -267C672 -284 680 -302 697 -308C755 -330 795 -386 795 -448C795 -510 755 -566 697 -587C680 -593 671 -612 677 -628C683 -645 702 -654 718 -648C802 -617 859 -537 859 -448C859 -359 802 -278 718 -248Z"/>
</svg>