<svg xmlns="http://www.w3.org/2000/svg" viewBox="0 -1024 1024 1079">
	<path transform="translate(0 -37)" d="M523 11C516 11 509 8 503 4L202 -235H96C43 -235 0 -278 0 -331V-565C0 -618 43 -661 96 -661H202L503 -900C512 -907 526 -909 537 -903C548 -898 555 -887 555 -875V-21C555 -9 548 2 537 7C532 10 527 11 523 11ZM96 -597C78 -597 64 -583 64 -565V-331C64 -313 78 -299 96 -299H213C221 -299 228 -296 233 -292L491 -88V-808L233 -604C228 -600 221 -597 213 -597ZM881 -448L1011 -577C1023 -590 1023 -610 1011 -623C998 -635 978 -635 965 -623L836 -493L707 -623C694 -635 674 -635 661 -623C649 -610 649 -590 661 -577L791 -448L661 -319C649 -306 649 -286 661 -273C668 -267 676 -264 684 -264C692 -264 700 -267 707 -273L836 -403L965 -273C972 -267 980 -264 988 -264C996 -264 1004 -267 1011 -273C1023 -286 1023 -306 1011 -319Z"/>
</svg>