<svg xmlns="http://www.w3.org/2000/svg" viewBox="0 -1024 1024 1079">
	<path transform="translate(0 -37)" d="M94 -866C88 -859 85 -851 85 -843C85 -834 88 -826 94 -820L366 -549H202C185 -549 170 -534 170 -517C170 -499 185 -485 202 -485H444C461 -485 476 -499 476 -517V-758C476 -775 461 -790 444 -790C426 -790 412 -775 412 -758V-594L140 -866C128 -878 107 -878 94 -866ZM854 -379C854 -397 840 -412 822 -412H581C563 -412 549 -397 549 -380V-138C549 -121 563 -106 581 -106C598 -106 613 -121 613 -138V-302L884 -30C896 -18 917 -18 930 -30C942 -43 942 -64 930 -76L658 -347H822C840 -347 854 -362 854 -379Z"/>
</svg>