<svg xmlns="http://www.w3.org/2000/svg" viewBox="0 -1024 1024 1079">
	<path transform="translate(0 -37)" d="M117 -875C100 -875 85 -860 85 -843V-595C85 -577 100 -563 117 -563C135 -563 149 -577 149 -595V-765L430 -485C442 -472 463 -472 475 -485C488 -497 488 -518 475 -530L195 -811H365C383 -811 397 -825 397 -843C397 -860 383 -875 365 -875ZM875 -131L594 -411C582 -424 561 -424 549 -411C543 -405 539 -397 539 -389C539 -380 543 -372 549 -366L829 -85H659C641 -85 627 -71 627 -53C627 -36 641 -21 659 -21H907C924 -21 939 -36 939 -53V-301C939 -319 924 -333 907 -333C889 -333 875 -319 875 -301Z"/>
</svg>