<svg xmlns="http://www.w3.org/2000/svg" viewBox="0 -1024 1024 1079">
	<path transform="translate(0 -37)" d="M853 -521C872 -564 883 -619 883 -668C883 -799 816 -875 695 -875C571 -875 498 -778 498 -651C498 -525 557 -417 653 -367C612 -286 561 -213 507 -159C410 -278 321 -437 285 -747H141C208 -231 406 -66 458 -35C488 -17 513 -18 541 -33C583 -58 711 -187 782 -338C811 -338 847 -341 883 -349V-451C861 -446 840 -443 821 -443C714 -443 632 -518 632 -649C632 -713 656 -747 691 -747C724 -747 746 -717 746 -656C746 -622 737 -584 730 -561C730 -561 763 -504 853 -521Z"/>
</svg>