<svg xmlns="http://www.w3.org/2000/svg" viewBox="0 -1024 1024 1079">
	<path transform="translate(0 -37)" d="M740 -428C738 -452 718 -471 694 -471C680 -471 668 -465 660 -455V-471C660 -496 640 -516 614 -516C601 -516 589 -510 580 -501V-516C580 -541 560 -562 535 -562C510 -562 489 -541 489 -516V-710C489 -735 469 -755 444 -755C419 -755 398 -735 398 -710V-428H397C392 -446 363 -539 314 -539C272 -539 268 -496 282 -465C306 -413 307 -393 307 -346C307 -228 406 -129 523 -129C641 -129 740 -228 740 -346ZM157 -570C148 -573 138 -571 132 -565L18 -450C14 -446 11 -440 11 -434C11 -428 14 -422 18 -418L132 -305C136 -300 142 -298 148 -298L157 -300C165 -303 171 -312 171 -321V-548C171 -558 165 -566 157 -570ZM892 -565C886 -571 876 -573 867 -570C859 -566 853 -558 853 -548V-321C853 -312 859 -303 867 -300L876 -298C882 -298 888 -300 892 -305L1006 -418C1010 -422 1013 -428 1013 -434C1013 -440 1010 -446 1006 -450Z"/>
</svg>