<svg xmlns="http://www.w3.org/2000/svg" viewBox="0 -1024 1024 1079">
	<path transform="translate(0 -37)" d="M553 -922C373 -922 212 -818 133 -664L100 -752C90 -778 60 -791 34 -782C8 -772 -6 -742 4 -716L85 -502C93 -481 112 -468 133 -468C139 -468 145 -470 151 -472L365 -552C391 -562 405 -592 395 -618C385 -645 355 -658 329 -648L220 -607C279 -734 408 -819 553 -819C756 -819 921 -654 921 -451C921 -248 756 -83 553 -83C420 -83 297 -155 232 -271C218 -295 187 -304 162 -290C138 -277 129 -245 143 -221C226 -73 383 19 553 19C813 19 1024 -192 1024 -451C1024 -711 813 -922 553 -922ZM609 -478V-629C609 -658 586 -680 558 -680C529 -680 506 -658 506 -629V-451C506 -434 514 -419 527 -410L716 -278C725 -272 735 -269 745 -269C761 -269 777 -277 787 -291C803 -314 797 -346 774 -362Z"/>
</svg>