<svg xmlns="http://www.w3.org/2000/svg" viewBox="0 -1024 1024 1079">
	<path transform="translate(0 -37)" d="M649 -553C641 -553 632 -556 626 -562C614 -575 614 -595 626 -607L895 -876C907 -888 928 -888 940 -876C952 -863 952 -843 940 -831L672 -562C665 -556 657 -553 649 -553ZM163 -232C151 -232 140 -238 134 -249C102 -310 85 -379 85 -448C85 -683 277 -875 512 -875C580 -875 648 -858 707 -827C723 -819 729 -800 721 -784C713 -769 694 -762 678 -771C627 -797 571 -811 512 -811C312 -811 149 -648 149 -448C149 -389 164 -331 191 -279C199 -263 193 -244 178 -236C173 -233 168 -232 163 -232ZM512 -21C444 -21 377 -38 317 -69C301 -77 295 -96 303 -112C311 -127 330 -134 346 -125C398 -99 453 -85 512 -85C712 -85 875 -248 875 -448C875 -506 861 -564 834 -615C826 -631 832 -650 847 -659C863 -667 882 -661 891 -645C922 -585 939 -516 939 -448C939 -213 747 -21 512 -21ZM445 -608C438 -612 430 -612 423 -608C416 -605 412 -597 412 -590V-306C412 -299 416 -291 423 -288L434 -285C437 -285 441 -286 445 -288L667 -430C674 -434 677 -441 677 -448C677 -455 674 -462 667 -466ZM107 -11C98 -11 90 -14 84 -20C72 -33 72 -53 84 -65L308 -289C321 -302 341 -302 353 -289C366 -277 366 -257 353 -244L129 -20C123 -14 115 -11 107 -11Z"/>
</svg>