<svg xmlns="http://www.w3.org/2000/svg" viewBox="0 -1024 1024 1079">
	<path transform="translate(0 -37)" d="M149 -875C96 -875 53 -832 53 -779V-117C53 -64 96 -21 149 -21H875C928 -21 971 -64 971 -117V-779C971 -832 928 -875 875 -875ZM384 -311C309 -311 248 -369 248 -448C248 -525 308 -586 387 -586C441 -586 476 -563 499 -531L448 -491C435 -509 414 -520 390 -520C350 -520 318 -488 318 -448C318 -409 350 -377 390 -377C414 -377 436 -389 449 -408L501 -371C476 -337 443 -311 384 -311ZM665 -311C590 -311 529 -369 529 -448C529 -525 588 -586 668 -586C722 -586 757 -563 780 -531L729 -491C715 -509 695 -520 671 -520C631 -520 599 -488 599 -448C599 -409 631 -377 671 -377C695 -377 717 -389 730 -408L782 -371C757 -337 724 -311 665 -311Z"/>
</svg>