<svg xmlns="http://www.w3.org/2000/svg" viewBox="0 -1024 1024 1079">
	<path transform="translate(0 -37)" d="M117 -504C100 -504 85 -518 85 -536C85 -553 100 -568 117 -568H360C378 -568 392 -582 392 -600V-843C392 -860 407 -875 424 -875C442 -875 456 -860 456 -843V-600C456 -547 413 -504 360 -504ZM664 -504C611 -504 568 -547 568 -600V-843C568 -860 582 -875 600 -875C617 -875 632 -860 632 -843V-600C632 -582 646 -568 664 -568H907C924 -568 939 -553 939 -536C939 -518 924 -504 907 -504ZM424 -21C407 -21 392 -36 392 -53V-296C392 -314 378 -328 360 -328H117C100 -328 85 -343 85 -360C85 -378 100 -392 117 -392H360C413 -392 456 -349 456 -296V-53C456 -36 442 -21 424 -21ZM600 -21C582 -21 568 -36 568 -53V-296C568 -349 611 -392 664 -392H907C924 -392 939 -378 939 -360C939 -343 924 -328 907 -328H664C646 -328 632 -314 632 -296V-53C632 -36 617 -21 600 -21Z"/>
</svg>