<svg xmlns="http://www.w3.org/2000/svg" viewBox="0 -1024 1024 1079">
	<path transform="translate(0 -37)" d="M480 -787C462 -787 448 -773 448 -755V-557L131 -875C118 -887 98 -887 86 -875C73 -862 73 -842 86 -829L403 -512H205C187 -512 173 -498 173 -480C173 -462 187 -448 205 -448H480C498 -448 512 -462 512 -480V-755C512 -773 498 -787 480 -787ZM333 -21C279 -21 235 -66 235 -120V-310C235 -328 249 -342 267 -342C284 -342 299 -328 299 -310V-120C299 -101 314 -85 333 -85H840C859 -85 875 -101 875 -120V-627C875 -646 859 -661 840 -661H650C632 -661 618 -676 618 -693C618 -711 632 -725 650 -725H840C894 -725 939 -681 939 -627V-120C939 -66 894 -21 840 -21Z"/>
</svg>