<svg xmlns="http://www.w3.org/2000/svg" viewBox="0 -1024 1024 1079">
	<path transform="translate(0 -37)" d="M117 -526C100 -526 85 -540 85 -558V-777C85 -831 129 -875 183 -875H402C420 -875 434 -860 434 -843C434 -825 420 -811 402 -811H183C164 -811 149 -796 149 -777V-558C149 -540 135 -526 117 -526ZM907 -526C889 -526 875 -540 875 -558V-777C875 -795 859 -811 841 -811H622C604 -811 590 -825 590 -843C590 -860 604 -875 622 -875H841C895 -875 939 -831 939 -777V-558C939 -540 924 -526 907 -526ZM649 -356C675 -391 691 -434 691 -481C691 -598 596 -693 479 -693C362 -693 267 -598 267 -481C267 -364 362 -269 479 -269C526 -269 569 -285 604 -311L692 -223C698 -216 706 -213 715 -213C723 -213 731 -216 737 -223C750 -235 750 -255 737 -268ZM479 -333C397 -333 331 -399 331 -481C331 -563 397 -629 479 -629C561 -629 627 -563 627 -481C627 -399 561 -333 479 -333ZM183 -21C129 -21 85 -65 85 -119V-338C85 -356 100 -370 117 -370C135 -370 149 -356 149 -338V-119C149 -101 164 -85 183 -85H402C420 -85 434 -71 434 -53C434 -36 420 -21 402 -21ZM622 -21C604 -21 590 -36 590 -53C590 -71 604 -85 622 -85H841C859 -85 875 -101 875 -119V-338C875 -356 889 -370 907 -370C924 -370 939 -356 939 -338V-119C939 -65 895 -21 841 -21Z"/>
</svg>