<svg xmlns="http://www.w3.org/2000/svg" viewBox="0 -1024 1024 1079">
	<path transform="translate(0 -37)" d="M818 -592C806 -605 786 -605 773 -592C761 -580 761 -559 773 -547L840 -480H544V-776L611 -709C617 -703 625 -700 634 -700C642 -700 650 -703 656 -709C669 -722 669 -742 656 -754L535 -876C522 -888 502 -888 489 -876L368 -754C355 -742 355 -722 368 -709C380 -697 401 -697 413 -709L480 -776V-480H184L251 -547C263 -559 263 -580 251 -592C238 -605 218 -605 206 -592L84 -471C78 -465 75 -457 75 -448C75 -439 78 -431 84 -425L206 -304C212 -298 220 -294 228 -294C236 -294 245 -298 251 -304C263 -316 263 -337 251 -349L184 -416H480V-120L413 -187C401 -199 380 -199 368 -187C355 -174 355 -154 368 -142L489 -20C496 -14 504 -11 512 -11C520 -11 528 -14 535 -20L656 -142C669 -154 669 -174 656 -187C644 -199 623 -199 611 -187L544 -120V-416H840L773 -349C761 -337 761 -316 773 -304C779 -298 787 -294 796 -294C804 -294 812 -298 818 -304L940 -425C946 -431 949 -439 949 -448C949 -457 946 -465 940 -471Z"/>
</svg>