<svg xmlns="http://www.w3.org/2000/svg" viewBox="0 -1024 1024 1079">
	<path transform="translate(0 -37)" d="M195 -811H392C410 -811 424 -825 424 -843C424 -860 410 -875 392 -875H117C100 -875 85 -860 85 -843V-567C85 -550 100 -535 117 -535C135 -535 149 -550 149 -567V-765L467 -448C473 -442 481 -439 489 -439C497 -439 506 -442 512 -448C524 -461 524 -481 512 -493ZM333 -21C279 -21 235 -66 235 -120V-398C235 -416 249 -430 267 -430C284 -430 299 -416 299 -398V-120C299 -101 314 -85 333 -85H840C859 -85 875 -101 875 -120V-627C875 -646 859 -661 840 -661H562C544 -661 530 -676 530 -693C530 -711 544 -725 562 -725H840C894 -725 939 -681 939 -627V-120C939 -66 894 -21 840 -21Z"/>
</svg>