<svg xmlns="http://www.w3.org/2000/svg" viewBox="0 -1024 1024 1079">
	<path transform="translate(0 -37)" d="M384 -875C366 -875 352 -860 352 -843V-789H171C160 -789 149 -784 144 -774L16 -572C12 -567 11 -561 11 -555V-181C11 -164 25 -149 43 -149H110C125 -76 189 -21 267 -21C344 -21 409 -76 423 -149H590C605 -76 669 -21 747 -21C824 -21 889 -76 903 -149H971C988 -149 1003 -164 1003 -181V-843C1003 -860 988 -875 971 -875ZM939 -811V-469H416V-811ZM75 -469V-545L188 -725H352V-469ZM939 -405V-213H903C888 -286 824 -341 747 -341C669 -341 605 -286 590 -213H423C409 -286 344 -341 267 -341C189 -341 125 -286 110 -213H75V-405ZM363 -181C363 -128 320 -85 267 -85C214 -85 171 -128 171 -181C171 -234 214 -277 267 -277C320 -277 363 -234 363 -181ZM843 -181C843 -128 800 -85 747 -85C694 -85 651 -128 651 -181C651 -234 694 -277 747 -277C800 -277 843 -234 843 -181Z"/>
</svg>