<svg xmlns="http://www.w3.org/2000/svg" viewBox="0 -1024 1024 1079">
	<path transform="translate(0 -37)" d="M181 -83C128 -83 85 -126 85 -179V-627C85 -680 128 -723 181 -723H843C896 -723 939 -680 939 -627V-179C939 -126 896 -83 843 -83ZM181 -659C164 -659 149 -645 149 -627V-179C149 -162 164 -147 181 -147H843C860 -147 875 -162 875 -179V-627C875 -645 860 -659 843 -659ZM261 -366C256 -366 251 -367 247 -369C231 -377 225 -396 233 -412L302 -550C310 -566 330 -572 345 -564C361 -556 368 -537 360 -521L290 -383C284 -372 273 -366 261 -366ZM405 -366C400 -366 395 -367 391 -369C375 -377 368 -396 376 -412L446 -550C454 -566 473 -572 489 -564C505 -556 511 -537 503 -521L434 -383C428 -372 417 -366 405 -366ZM549 -366C544 -366 539 -367 534 -369C518 -377 512 -396 520 -412L590 -550C598 -566 617 -572 633 -564C649 -556 655 -537 647 -521L577 -383C572 -372 560 -366 549 -366ZM692 -366C688 -366 683 -367 678 -369C662 -377 656 -396 664 -412L734 -550C742 -566 761 -572 777 -564C792 -556 799 -537 791 -521L721 -383C715 -372 704 -366 692 -366ZM257 -233C240 -233 225 -247 225 -265C225 -282 240 -297 257 -297H339C357 -297 371 -282 371 -265C371 -247 357 -233 339 -233ZM437 -233C419 -233 405 -247 405 -265C405 -282 419 -297 437 -297H623C641 -297 655 -282 655 -265C655 -247 641 -233 623 -233Z"/>
</svg>