<svg xmlns="http://www.w3.org/2000/svg" viewBox="0 -1024 1024 1079">
	<path transform="translate(0 -37)" d="M181 -723C128 -723 85 -680 85 -627V-179C85 -126 128 -83 181 -83H843C896 -83 939 -126 939 -179V-627C939 -680 896 -723 843 -723ZM843 -659C860 -659 875 -645 875 -627V-567H149V-627C149 -645 164 -659 181 -659ZM181 -147C164 -147 149 -162 149 -179V-439H875V-179C875 -162 860 -147 843 -147ZM568 -382C550 -382 536 -368 536 -350C536 -332 550 -318 568 -318H717C735 -318 749 -332 749 -350C749 -368 735 -382 717 -382Z"/>
</svg>