<svg xmlns="http://www.w3.org/2000/svg" viewBox="0 -1024 1024 1079">
	<path transform="translate(0 -37)" d="M256 -821C203 -821 160 -778 160 -725V-693H128C75 -693 32 -650 32 -597V-171C32 -118 75 -75 128 -75H768C821 -75 864 -118 864 -171V-203H896C949 -203 992 -246 992 -299V-725C992 -778 949 -821 896 -821ZM928 -299C928 -281 914 -267 896 -267H864V-597C864 -650 821 -693 768 -693H224V-725C224 -743 238 -757 256 -757H896C914 -757 928 -743 928 -725ZM96 -597C96 -615 110 -629 128 -629H199C186 -579 147 -539 96 -527ZM800 -306C714 -292 646 -225 633 -139H263C250 -225 182 -292 96 -306V-462C182 -476 250 -543 263 -629H633C646 -543 714 -476 800 -462ZM800 -527C749 -539 710 -579 697 -629H768C786 -629 800 -615 800 -597ZM448 -563C368 -563 303 -482 303 -384C303 -286 368 -206 448 -206C528 -206 593 -286 593 -384C593 -482 528 -563 448 -563ZM448 -270C404 -270 367 -322 367 -384C367 -446 404 -499 448 -499C492 -499 529 -446 529 -384C529 -322 492 -270 448 -270ZM128 -139C110 -139 96 -153 96 -171V-241C147 -229 186 -189 199 -139ZM800 -171C800 -153 786 -139 768 -139H697C709 -189 749 -229 800 -241Z"/>
</svg>