<svg xmlns="http://www.w3.org/2000/svg" viewBox="0 -1024 1024 1079">
	<path transform="translate(0 -37)" d="M552 -907C354 -907 180 -779 118 -595L64 -724C57 -740 39 -748 22 -741C6 -734 -2 -715 5 -699L92 -491C96 -483 102 -476 111 -473C115 -472 119 -471 123 -471C127 -471 132 -472 136 -474L340 -572C355 -579 362 -598 355 -614C347 -630 328 -637 312 -629L175 -564C225 -727 378 -843 552 -843C770 -843 947 -666 947 -448C947 -230 770 -53 552 -53C410 -53 278 -131 208 -255C199 -270 180 -276 164 -267C149 -258 144 -239 152 -223C233 -79 387 11 552 11C805 11 1011 -195 1011 -448C1011 -701 805 -907 552 -907ZM737 -287C730 -287 724 -289 718 -293L534 -422C525 -428 520 -438 520 -448V-623C520 -641 534 -655 552 -655C570 -655 584 -641 584 -623V-465L755 -345C769 -335 773 -315 763 -300C757 -291 747 -287 737 -287Z"/>
</svg>