<svg xmlns="http://www.w3.org/2000/svg" viewBox="0 -1024 1024 1079">
	<path transform="translate(0 -37)" d="M233 -932C224 -932 216 -928 210 -922L32 -743C12 -725 0 -700 0 -683V-86C0 -22 43 21 96 21H770C799 21 825 8 842 -13L1015 -185C1021 -191 1024 -199 1024 -208V-900C1024 -917 1010 -932 992 -932ZM802 -438C802 -420 787 -406 770 -406H96C78 -406 64 -420 64 -438V-672C64 -690 78 -704 96 -704H770C787 -704 802 -690 802 -672ZM219 -523C202 -523 187 -537 187 -555C187 -573 202 -587 219 -587H646C664 -587 678 -573 678 -555C678 -537 664 -523 646 -523ZM64 -310C64 -328 78 -342 96 -342H770C787 -342 802 -328 802 -310V-75C802 -57 787 -43 770 -43H96C78 -43 64 -57 64 -75ZM219 -160C202 -160 187 -174 187 -192C187 -209 202 -224 219 -224H646C664 -224 678 -209 678 -192C678 -174 664 -160 646 -160Z"/>
</svg>