<svg xmlns="http://www.w3.org/2000/svg" viewBox="0 -1024 1024 1079">
	<path transform="translate(0 -37)" d="M233 -876C224 -876 216 -873 210 -867L32 -687C12 -670 0 -644 0 -616V-116C0 -63 43 -20 96 -20H770C799 -20 825 -33 842 -54L1015 -226C1021 -232 1024 -241 1024 -249V-844C1024 -862 1010 -876 992 -876ZM915 -812L815 -712H146L246 -812ZM802 -116C802 -98 787 -84 770 -84H96C78 -84 64 -98 64 -116V-616C64 -634 78 -648 96 -648H770C787 -648 802 -634 802 -616ZM213 -331C196 -331 181 -345 181 -363C181 -380 196 -395 213 -395H640C658 -395 672 -380 672 -363C672 -345 658 -331 640 -331Z"/>
</svg>