<svg xmlns="http://www.w3.org/2000/svg" viewBox="0 -1024 1024 1079">
	<path transform="translate(0 -37)" d="M181 -21C128 -21 85 -64 85 -117V-779C85 -832 128 -875 181 -875H843C896 -875 939 -832 939 -779V-117C939 -64 896 -21 843 -21ZM181 -811C164 -811 149 -796 149 -779V-117C149 -100 164 -85 181 -85H843C860 -85 875 -100 875 -117V-779C875 -796 860 -811 843 -811ZM299 -640C281 -640 267 -654 267 -672C267 -690 281 -704 299 -704H725C743 -704 757 -690 757 -672C757 -654 743 -640 725 -640ZM299 -480C281 -480 267 -494 267 -512C267 -530 281 -544 299 -544H725C743 -544 757 -530 757 -512C757 -494 743 -480 725 -480ZM299 -192C281 -192 267 -206 267 -224V-352C267 -370 281 -384 299 -384H725C743 -384 757 -370 757 -352V-224C757 -206 743 -192 725 -192Z"/>
</svg>