<svg xmlns="http://www.w3.org/2000/svg" viewBox="0 -1024 1024 1079">
	<path transform="translate(0 -37)" d="M746 -517C737 -517 728 -521 722 -528C702 -551 681 -574 660 -595C454 -801 239 -862 167 -791C128 -751 130 -669 171 -571C178 -555 170 -536 154 -529C138 -522 119 -530 112 -546C59 -671 63 -777 122 -836C231 -945 487 -859 705 -640C728 -618 750 -594 770 -570C782 -556 780 -536 766 -525C761 -519 753 -517 746 -517ZM608 -175C599 -175 590 -179 583 -187C572 -200 574 -221 588 -232C613 -253 637 -275 660 -298C755 -393 826 -499 862 -596C894 -684 891 -755 856 -791C816 -830 734 -829 634 -786C618 -780 599 -787 592 -803C586 -820 593 -839 609 -845C735 -899 841 -895 901 -836C956 -781 963 -688 922 -574C883 -468 806 -354 705 -253C681 -228 655 -205 629 -183C623 -178 615 -175 608 -175ZM251 -10C198 -10 154 -26 122 -57C13 -166 99 -422 318 -640C341 -664 366 -686 390 -707C404 -718 424 -717 435 -703C447 -690 445 -669 431 -658C408 -638 385 -617 363 -595C157 -389 96 -174 167 -103C207 -63 285 -64 383 -105C399 -111 418 -103 425 -87C432 -71 424 -52 408 -45C350 -21 297 -10 251 -10ZM512 -331C447 -331 395 -383 395 -448C395 -513 447 -565 512 -565C577 -565 629 -513 629 -448C629 -383 577 -331 512 -331ZM512 -501C483 -501 459 -477 459 -448C459 -419 483 -395 512 -395C541 -395 565 -419 565 -448C565 -477 541 -501 512 -501ZM772 -10C645 -10 472 -98 318 -253C294 -276 272 -301 251 -326C240 -339 241 -359 255 -371C269 -382 289 -380 300 -367C320 -343 341 -320 363 -298C569 -92 784 -31 856 -103C895 -142 894 -224 852 -322C845 -339 853 -357 869 -364C885 -371 904 -363 911 -347C964 -222 960 -116 901 -57C869 -25 824 -10 772 -10Z"/>
</svg>