<svg xmlns="http://www.w3.org/2000/svg" viewBox="0 -1024 1024 1079">
	<path transform="translate(0 -37)" d="M424 42C406 39 395 22 398 5L563 -912C566 -930 583 -941 600 -938C617 -935 629 -918 626 -901L461 16C458 32 445 43 429 43ZM286 -779C297 -792 318 -793 331 -781C344 -769 345 -749 333 -736L75 -448L333 -160C345 -147 344 -127 331 -115C325 -109 317 -107 309 -107C301 -107 292 -110 286 -117L8 -427C-2 -439 -3 -457 8 -469ZM738 -779C727 -792 706 -793 693 -781C680 -769 679 -749 691 -736L949 -448L691 -160C679 -147 680 -127 693 -115C699 -109 707 -107 715 -107C723 -107 732 -110 738 -117L1016 -427C1026 -439 1027 -457 1016 -469Z"/>
</svg>