<svg xmlns="http://www.w3.org/2000/svg" viewBox="0 -1024 1024 1079">
	<path transform="translate(0 -37)" d="M750 -576L653 -478C636 -461 636 -435 653 -418C661 -410 672 -405 683 -405C694 -405 704 -410 713 -418L883 -589C900 -605 900 -632 883 -649L713 -819C696 -836 669 -836 653 -819C636 -803 636 -776 653 -759L750 -661H171C147 -661 128 -642 128 -619C128 -595 147 -576 171 -576ZM274 -320L371 -418C388 -435 388 -461 371 -478C355 -495 328 -495 311 -478L141 -307C124 -291 124 -264 141 -247L311 -77C319 -68 330 -64 341 -64C352 -64 363 -68 371 -77C388 -93 388 -120 371 -137L274 -235H853C877 -235 896 -254 896 -277C896 -301 877 -320 853 -320Z"/>
</svg>