<svg xmlns="http://www.w3.org/2000/svg" viewBox="0 -1024 1024 1079">
	<path transform="translate(0 -37)" d="M512 -907C259 -907 53 -701 53 -448C53 -195 259 11 512 11C765 11 971 -195 971 -448C971 -701 765 -907 512 -907ZM376 -618C406 -618 429 -583 429 -542C429 -499 406 -465 376 -465C346 -465 323 -499 323 -542C323 -583 346 -618 376 -618ZM648 -465C618 -465 595 -499 595 -542C595 -583 618 -618 648 -618C678 -618 701 -583 701 -542C701 -499 678 -465 648 -465ZM695 -215C693 -213 691 -213 688 -213C685 -213 682 -214 680 -216C679 -216 630 -267 512 -267C394 -267 345 -216 344 -216C341 -212 335 -211 329 -215C325 -217 322 -223 324 -229C325 -233 372 -348 512 -348C652 -348 699 -233 700 -229C702 -223 699 -217 695 -215Z"/>
</svg>