<svg xmlns="http://www.w3.org/2000/svg" viewBox="0 -1024 1024 1079">
	<path transform="translate(0 -37)" d="M512 11C259 11 53 -195 53 -448C53 -701 259 -907 512 -907C765 -907 971 -701 971 -448C971 -195 765 11 512 11ZM512 -839C296 -839 121 -664 121 -448C121 -232 296 -57 512 -57C728 -57 903 -232 903 -448C903 -664 728 -839 512 -839ZM429 -542C429 -499 406 -465 376 -465C346 -465 323 -499 323 -542C323 -583 346 -618 376 -618C406 -618 429 -583 429 -542ZM701 -542C701 -499 678 -465 648 -465C618 -465 595 -499 595 -542C595 -583 618 -618 648 -618C678 -618 701 -583 701 -542ZM630 -240C630 -241 606 -330 512 -330C419 -330 394 -241 394 -240C393 -236 394 -231 399 -229C403 -227 408 -227 412 -230C412 -230 440 -256 512 -256C584 -256 612 -231 613 -230C614 -228 617 -227 619 -227C621 -227 624 -228 625 -229C630 -231 631 -236 630 -240Z"/>
</svg>