<svg xmlns="http://www.w3.org/2000/svg" viewBox="0 -1024 1024 1079">
	<path transform="translate(0 -37)" d="M512 -907C259 -907 53 -701 53 -448C53 -195 259 11 512 11C765 11 971 -195 971 -448C971 -701 765 -907 512 -907ZM323 -542C323 -583 346 -618 376 -618C406 -618 429 -583 429 -542C429 -499 406 -465 376 -465C346 -465 323 -499 323 -542ZM648 -465C618 -465 595 -499 595 -542C595 -583 618 -618 648 -618C678 -618 701 -583 701 -542C701 -499 678 -465 648 -465ZM625 -229C624 -228 621 -227 619 -227C617 -227 614 -228 613 -230C612 -231 584 -256 512 -256C440 -256 412 -230 412 -230C408 -227 403 -227 399 -229C394 -231 393 -236 394 -240C394 -241 419 -330 512 -330C606 -330 630 -241 630 -240C631 -236 630 -231 625 -229Z"/>
</svg>