<svg xmlns="http://www.w3.org/2000/svg" viewBox="0 -1024 1024 1079">
	<path transform="translate(0 -37)" d="M512 11C259 11 53 -195 53 -448C53 -701 259 -907 512 -907C765 -907 971 -701 971 -448C971 -195 765 11 512 11ZM512 -839C296 -839 121 -664 121 -448C121 -232 296 -57 512 -57C728 -57 903 -232 903 -448C903 -664 728 -839 512 -839ZM429 -542C429 -499 406 -465 376 -465C346 -465 323 -499 323 -542C323 -583 346 -618 376 -618C406 -618 429 -583 429 -542ZM701 -542C701 -499 678 -465 648 -465C618 -465 595 -499 595 -542C595 -583 618 -618 648 -618C678 -618 701 -583 701 -542ZM376 -244C357 -244 342 -259 342 -278C342 -296 357 -312 376 -312H648C667 -312 682 -296 682 -278C682 -259 667 -244 648 -244Z"/>
</svg>