<svg xmlns="http://www.w3.org/2000/svg" viewBox="0 -1024 1024 1079">
	<path transform="translate(0 -37)" d="M512 -907C259 -907 53 -701 53 -448C53 -195 259 11 512 11C765 11 971 -195 971 -448C971 -701 765 -907 512 -907ZM376 -618C406 -618 429 -583 429 -542C429 -499 406 -465 376 -465C346 -465 323 -499 323 -542C323 -583 346 -618 376 -618ZM648 -465C618 -465 595 -499 595 -542C595 -583 618 -618 648 -618C678 -618 701 -583 701 -542C701 -499 678 -465 648 -465ZM376 -244C357 -244 342 -259 342 -278C342 -296 357 -312 376 -312H648C667 -312 682 -296 682 -278C682 -259 667 -244 648 -244Z"/>
</svg>