<svg xmlns="http://www.w3.org/2000/svg" viewBox="0 -1024 1024 1079">
	<path transform="translate(0 -37)" d="M512 -907C259 -907 53 -701 53 -448C53 -195 259 11 512 11C765 11 971 -195 971 -448C971 -701 765 -907 512 -907ZM323 -542C323 -583 346 -618 376 -618C406 -618 429 -583 429 -542C429 -499 406 -465 376 -465C346 -465 323 -499 323 -542ZM648 -465C618 -465 595 -499 595 -542C595 -583 618 -618 648 -618C678 -618 701 -583 701 -542C701 -499 678 -465 648 -465ZM630 -317C630 -316 606 -227 512 -227C419 -227 394 -316 394 -317C393 -322 394 -326 399 -328C403 -330 408 -330 412 -327C412 -327 440 -301 512 -301C584 -301 612 -326 613 -327C614 -329 617 -330 619 -330C621 -330 624 -329 625 -328C630 -326 631 -322 630 -317Z"/>
</svg>