<svg xmlns="http://www.w3.org/2000/svg" viewBox="0 -1024 1024 1079">
	<path transform="translate(0 -37)" d="M512 11C259 11 53 -195 53 -448C53 -701 259 -907 512 -907C765 -907 971 -701 971 -448C971 -195 765 11 512 11ZM512 -839C296 -839 121 -664 121 -448C121 -232 296 -57 512 -57C728 -57 903 -232 903 -448C903 -664 728 -839 512 -839ZM429 -542C429 -499 406 -465 376 -465C346 -465 323 -499 323 -542C323 -583 346 -618 376 -618C406 -618 429 -583 429 -542ZM701 -542C701 -499 678 -465 648 -465C618 -465 595 -499 595 -542C595 -583 618 -618 648 -618C678 -618 701 -583 701 -542ZM700 -332C699 -328 652 -213 512 -213C372 -213 325 -328 324 -332C322 -339 325 -344 329 -347C335 -350 341 -349 344 -345C345 -345 394 -294 512 -294C630 -294 679 -345 680 -345C682 -348 685 -348 688 -348C691 -348 693 -348 695 -347C699 -344 702 -339 700 -332Z"/>
</svg>