<svg xmlns="http://www.w3.org/2000/svg" viewBox="0 -1024 1024 1079">
	<path transform="translate(0 -37)" d="M139 -21C86 -21 43 -64 43 -117V-779C43 -832 86 -875 139 -875H885C938 -875 981 -832 981 -779V-117C981 -64 938 -21 885 -21ZM139 -811C121 -811 107 -796 107 -779V-117C107 -100 121 -85 139 -85H885C903 -85 917 -100 917 -117V-779C917 -796 903 -811 885 -811ZM467 -662C450 -662 435 -648 435 -630C435 -612 450 -598 467 -598H638L295 -256C283 -243 283 -223 295 -210C302 -204 310 -201 318 -201C326 -201 334 -204 340 -210L683 -553V-382C683 -365 697 -350 715 -350C733 -350 747 -365 747 -382V-630C747 -648 733 -662 715 -662Z"/>
</svg>