<svg xmlns="http://www.w3.org/2000/svg" viewBox="0 -1024 1024 1079">
	<path transform="translate(0 -37)" d="M512 -907C259 -907 53 -701 53 -448C53 -195 259 11 512 11C765 11 971 -195 971 -448C971 -701 765 -907 512 -907ZM404 -249C351 -249 308 -292 308 -345V-554L271 -517C261 -506 243 -507 232 -517C221 -528 221 -546 232 -557L315 -640C326 -651 344 -651 355 -640L438 -557C449 -546 449 -528 438 -517C432 -512 425 -509 418 -509C411 -509 404 -512 399 -517L362 -554V-345C362 -321 381 -303 404 -303H525C539 -303 551 -291 551 -276C551 -261 539 -249 525 -249ZM709 -256C703 -251 696 -248 689 -248C682 -248 675 -251 669 -256L586 -340C575 -350 575 -368 586 -379C597 -390 615 -390 625 -379L662 -342V-551C662 -575 644 -593 620 -593H499C485 -593 473 -605 473 -620C473 -635 485 -647 499 -647H620C673 -647 716 -604 716 -551V-342L753 -379C763 -390 781 -390 792 -379C803 -368 803 -350 792 -340Z"/>
</svg>