<svg xmlns="http://www.w3.org/2000/svg" viewBox="0 -1024 1024 1079">
	<path transform="translate(0 -37)" d="M149 -874C96 -874 53 -831 53 -778V-116C53 -63 96 -21 149 -21H875C928 -21 971 -63 971 -116V-778C971 -831 928 -874 875 -874ZM447 -535L395 -493C382 -507 364 -515 345 -515C307 -515 277 -484 277 -446C277 -409 307 -378 345 -378C357 -378 369 -382 379 -387V-412H328V-463H447V-356C422 -328 386 -310 345 -310C270 -310 208 -371 208 -446C208 -522 270 -583 345 -583C385 -583 421 -566 447 -536ZM570 -583V-310H498V-583ZM809 -583V-511H694V-468H781V-396H694V-310H622V-583Z"/>
</svg>