<svg xmlns="http://www.w3.org/2000/svg" viewBox="0 -1024 1024 1079">
	<path transform="translate(0 25)" d="M512 -847C327 -847 177 -697 177 -512C177 -377 257 -256 382 -204C385 -202 389 -201 394 -201C410 -201 423 -214 423 -231C423 -243 416 -253 405 -258C303 -301 236 -401 236 -512C236 -664 360 -788 512 -788C664 -788 788 -664 788 -512C788 -401 721 -301 619 -258C608 -253 600 -243 600 -231C600 -214 614 -201 630 -201C634 -201 638 -202 642 -203C766 -256 847 -377 847 -512C847 -697 697 -847 512 -847ZM512 -210C496 -210 482 -223 482 -239V-454C482 -471 496 -484 512 -484C528 -484 542 -471 542 -454V-239C542 -223 528 -210 512 -210ZM670 -128C670 -112 656 -98 640 -98H384C368 -98 354 -112 354 -128C354 -144 368 -158 384 -158H640C656 -158 670 -144 670 -128ZM630 -30C630 -13 617 0 600 0H424C407 0 394 -13 394 -30C394 -46 407 -59 424 -59H600C617 -59 630 -46 630 -30Z"/>
</svg>
