<svg xmlns="http://www.w3.org/2000/svg" viewBox="0 -1024 1024 1079">
	<path transform="translate(0 -37)" d="M181 -875C128 -875 85 -832 85 -779V-117C85 -64 128 -21 181 -21H843C896 -21 939 -64 939 -117V-779C939 -832 896 -875 843 -875ZM378 -671C415 -672 445 -644 446 -607C447 -571 418 -541 382 -540H378C342 -541 313 -571 314 -607C315 -642 343 -670 378 -671ZM875 -275V-117C875 -100 860 -85 843 -85H739L526 -298L665 -439C677 -452 698 -452 710 -440ZM649 -85H181C164 -85 150 -99 150 -116L358 -329C370 -342 391 -342 403 -330Z"/>
</svg>