<svg xmlns="http://www.w3.org/2000/svg" viewBox="0 -1024 1024 1079">
	<path transform="translate(0 -37)" d="M749 -743C698 -825 609 -875 512 -875C415 -875 326 -825 275 -743H181C128 -743 85 -700 85 -647V-117C85 -64 128 -21 181 -21H843C896 -21 939 -64 939 -117V-647C939 -700 896 -743 843 -743ZM512 -212C406 -212 320 -298 320 -404C320 -510 406 -596 512 -596C618 -596 704 -510 704 -404C704 -298 618 -212 512 -212ZM544 -436V-490C544 -507 530 -522 512 -522C494 -522 480 -507 480 -490V-436H427C409 -436 395 -422 395 -404C395 -387 409 -372 427 -372H480V-319C480 -301 494 -287 512 -287C530 -287 544 -301 544 -319V-372H597C615 -372 629 -387 629 -404C629 -422 615 -436 597 -436Z"/>
</svg>