<svg xmlns="http://www.w3.org/2000/svg" viewBox="0 0 24 24">
    <g>
        <path d="M8.98 22.698c-.103 0-.205-.02-.302-.063-.31-.135-.49-.46-.44-.794l1.228-8.527H6.542c-.22 0-.43-.098-.573-.266-.144-.17-.204-.393-.167-.61L7.49 2.5c.062-.36.373-.625.74-.625h6.81c.23 0 .447.105.59.285.142.18.194.415.14.64l-1.446 6.075H19c.29 0 .553.166.678.428.124.262.087.57-.096.796L9.562 22.42c-.146.18-.362.276-.583.276zM7.43 11.812h2.903c.218 0 .425.095.567.26.142.164.206.382.175.598l-.966 6.7 7.313-8.995h-4.05c-.228 0-.445-.105-.588-.285-.142-.18-.194-.415-.14-.64l1.446-6.075H8.864L7.43 11.812z"/>
    </g>
</svg>
