<svg xmlns="http://www.w3.org/2000/svg" viewBox="0 0 24 24">
    <g>
        <path d="M8.7 2.4c.7-.6 1.5-1 2.3-1.4.5-.2 1.1-.3 1.7-.3.4 0 .8.1 1.1.3s.7.4.9.7c.2.3.3.6.4 1 .1.4.1.7 0 1.1-.1.5-.2 1-.4 1.4-.4.8-.8 1.5-1.3 2.2-1.8 2.8-3.9 5.1-5.7 7.7-.4.6-.9 1.3-1.3 1.9-.2.3-.4.6-.6 1.1-.3.6.2.8.8.5 2.3-1.1 10.3-11.2 12.8-9 .3.3 1.7 1.5-1.3 5.8-.4.6-.7 1.1-1.1 1.6-.5.7-1.1 1.5-1.6 2.3-.4.6-.7 1.2-1 1.9-.1.2-.2.6 0 .8.4.4 1.9-.7 3.7-2.4l3.2-3.2c.5-.5 1.2.1.7.7-1.6 1.9-5.5 6.4-7.5 6.3-.4 0-.7-.1-1-.3s-.5-.5-.6-.8c-.1-.2-.2-.7.1-1.5.3-.8.6-1.6 1.1-2.3.5-.8 1-1.7 1.5-2.4.3-.5.7-1.1 1-1.6.3-.5.8-1.4 1.2-2 .2-.3.6-.9.2-1.2-.2-.2-.5-.2-1.3.6 0 0-6.6 6.7-9 8.4-1.3.9-2.8 1.2-3.6.4-1-.9-1.6-2.5 1.5-6.4 3.1-3.8 6.5-8.7 6.8-9.6.1-.2.1-.4.1-.5.1-.5-.5-.9-1-.7-.3.2-.8.5-1.6 1.2-2.3 2-4.3 4.3-6.1 6.8-.1.2-.3.3-.5.4s-.4.2-.6.2c-.4.1-.8-.1-1.2-.3-.3-.2-.5-.6-.6-1v-.6c.1-.2.1-.4.3-.5 2.7-2.9 5-5.2 7.5-7.3z"/>
    </g>
</svg>
