<svg xmlns="http://www.w3.org/2000/svg" viewBox="0 0 24 24">
    <g>
        <path d="M16.695 13.037c1.185 0 2.51-.132 3.368-1.11.72-.823.952-2.08.715-3.847-.333-2.478-1.86-3.956-4.083-3.956-2.225 0-3.75 1.48-4.084 3.956-.236 1.766-.002 3.023.717 3.846.858.98 2.184 1.11 3.368 1.11zM14.098 8.28c.134-.992.648-2.656 2.598-2.656 1.948 0 2.463 1.664 2.597 2.655.174 1.293.054 2.187-.358 2.657-.367.42-1.036.6-2.238.6s-1.87-.18-2.24-.6c-.412-.47-.533-1.364-.36-2.658zm9.788 11.222c-.763-3.066-3.72-5.208-7.19-5.208-1.765 0-3.392.558-4.67 1.505-1.278-.948-2.905-1.506-4.67-1.506-3.47 0-6.428 2.142-7.19 5.208-.156.625-.025 1.265.356 1.754.37.473.94.744 1.567.744h19.87c.628 0 1.2-.27 1.57-.745.382-.49.512-1.13.356-1.753zm-1.537.83c-.09.11-.22.168-.39.168h-7.413c.078-.32.084-.66 0-.998-.25-1-.75-1.888-1.41-2.65.993-.665 2.223-1.058 3.558-1.058 2.78 0 5.14 1.674 5.735 4.07.044.174.014.344-.08.467zM7.354 20.5H2.09c-.17 0-.3-.057-.388-.168-.096-.123-.126-.294-.083-.47.596-2.395 2.954-4.068 5.735-4.068 2.78 0 5.14 1.674 5.735 4.07.043.174.014.344-.082.467-.088.113-.22.17-.388.17H7.355zm.001-7.463c1.185 0 2.51-.132 3.367-1.11.72-.823.953-2.08.716-3.847-.333-2.478-1.86-3.956-4.083-3.956-2.225 0-3.75 1.48-4.084 3.956-.236 1.766-.002 3.023.717 3.846.858.98 2.184 1.11 3.368 1.11zM4.758 8.28c.134-.992.648-2.656 2.598-2.656 1.948 0 2.463 1.664 2.597 2.655.174 1.293.053 2.187-.358 2.658-.368.42-1.037.6-2.238.6-1.202 0-1.87-.18-2.24-.6-.412-.47-.533-1.365-.36-2.66z"/>
    </g>
</svg>
