<svg xmlns="http://www.w3.org/2000/svg" viewBox="0 0 24 24">
    <g>
        <path d="M16.75 2.36c-2.34 0-3.92 1.62-4.74 2.8-.83-1.18-2.41-2.8-4.75-2.8-2.93 0-5.51 2.74-5.51 5.86 0 6.51 7.61 13.37 10.27 13.42 2.63-.05 10.23-6.91 10.23-13.42 0-3.12-2.57-5.86-5.5-5.86zm-4.73 17.78c-1.52-.02-8.77-6.03-8.77-11.92 0-2.33 1.88-4.36 4.01-4.36 2.1 0 3.45 1.97 3.9 2.74v.01L9.02 10.5c-.11.2-.12.45-.03.66.1.21.29.37.51.43l2.72.66-2.16 3.15c-.24.34-.15.81.19 1.05.13.08.28.13.43.13.23 0 .47-.12.62-.33l2.77-4.04c.13-.21.17-.47.08-.7-.09-.23-.28-.4-.52-.46l-2.82-.69L12.7 6.9s1.46-3.04 4.05-3.04c2.13 0 4 2.03 4 4.36 0 5.89-7.24 11.9-8.73 11.92z"/>
    </g>
</svg>
