<svg xmlns="http://www.w3.org/2000/svg" viewBox="0 0 24 24">
    <g>
        <path d="M12.025 22.75c-5.928 0-10.75-4.822-10.75-10.75S6.098 1.25 12.025 1.25 22.775 6.072 22.775 12s-4.822 10.75-10.75 10.75zm0-20c-5.1 0-9.25 4.15-9.25 9.25s4.15 9.25 9.25 9.25 9.25-4.15 9.25-9.25-4.15-9.25-9.25-9.25z"/><path d="M13.064 17.47c0-.616-.498-1.114-1.114-1.114-.616 0-1.114.498-1.114 1.114 0 .615.498 1.114 1.114 1.114.616 0 1.114-.5 1.114-1.114zm3.081-7.528c0-2.312-1.882-4.194-4.194-4.194-2.312 0-4.194 1.882-4.194 4.194 0 .414.336.75.75.75s.75-.336.75-.75c0-1.485 1.21-2.694 2.695-2.694 1.486 0 2.695 1.21 2.695 2.694 0 1.486-1.21 2.695-2.694 2.695-.413 0-.75.336-.75.75v1.137c0 .414.337.75.75.75s.75-.336.75-.75v-.463c1.955-.354 3.445-2.06 3.445-4.118z"/>
    </g>
</svg>
