<svg xmlns="http://www.w3.org/2000/svg" viewBox="0 0 24 24">
    <g>
        <path d="M8.307 22.163c-1.68 0-3.36-.64-4.638-1.918-2.56-2.558-2.56-6.72 0-9.276 1.51-1.512 3.62-2.177 5.705-1.835l7.073-7.078c.147-.148.35-.226.56-.22l4.35.17c.39.017.704.33.72.72l.17 4.35c.008.2-.064.396-.2.542-.14.145-.33.23-.53.236l-2.135.056-.056 2.136c-.01.4-.332.72-.73.73l-2.136.056-.055 2.137c-.005.193-.084.376-.22.512l-1.362 1.362c.23 1.985-.455 3.98-1.877 5.402-1.278 1.277-2.958 1.917-4.64 1.917zm-.01-11.617c-1.324 0-2.603.52-3.566 1.483C2.76 14 2.76 17.21 4.73 19.183c1.973 1.973 5.183 1.973 7.156 0 1.17-1.17 1.694-2.843 1.402-4.474-.043-.24.034-.488.208-.662l1.417-1.417.066-2.548c.01-.4.33-.72.73-.73l2.135-.056.056-2.136c.012-.4.333-.72.73-.73l2.09-.055-.115-2.896-3.327-.13-7.125 7.128c-.183.183-.452.26-.7.2-.384-.09-.772-.132-1.155-.132zm7.358 2.404h.01-.01z"/>
        <path d="M8.308 18.132c-.647 0-1.294-.246-1.787-.738-.983-.985-.983-2.588 0-3.573.988-.984 2.59-.982 3.574 0 .984.986.984 2.59 0 3.574-.492.492-1.14.738-1.786.738zm0-3.55c-.264 0-.526.1-.727.3-.398.4-.398 1.05 0 1.45.4.4 1.052.402 1.453 0 .4-.4.4-1.05 0-1.45-.2-.2-.462-.3-.725-.3z"/>
    </g>
</svg>
