<svg xmlns="http://www.w3.org/2000/svg" viewBox="0 0 24 24">
    <g>
        <path d="M19.39 14.882c-1.58 0-2.862-1.283-2.862-2.86s1.283-2.862 2.86-2.862 2.862 1.283 2.862 2.86-1.284 2.862-2.86 2.862zm0-4.223c-.75 0-1.362.61-1.362 1.36s.61 1.36 1.36 1.36 1.362-.61 1.362-1.36-.61-1.36-1.36-1.36zM12 14.882c-1.578 0-2.86-1.283-2.86-2.86S10.42 9.158 12 9.158s2.86 1.282 2.86 2.86S13.578 14.88 12 14.88zm0-4.223c-.75 0-1.36.61-1.36 1.36s.61 1.362 1.36 1.362 1.36-.61 1.36-1.36-.61-1.363-1.36-1.363zm-7.39 4.223c-1.577 0-2.86-1.283-2.86-2.86S3.034 9.16 4.61 9.16s2.862 1.283 2.862 2.86-1.283 2.862-2.86 2.862zm0-4.223c-.75 0-1.36.61-1.36 1.36s.61 1.36 1.36 1.36 1.362-.61 1.362-1.36-.61-1.36-1.36-1.36z"/>
    </g>
</svg>
