<svg xmlns="http://www.w3.org/2000/svg" viewBox="0 0 24 24">
    <g>
        <path d="M23.152 3.483h-2.675V.81c0-.415-.336-.75-.75-.75s-.75.335-.75.75v2.674H16.3c-.413 0-.75.336-.75.75s.337.75.75.75h2.677V7.66c0 .413.336.75.75.75s.75-.337.75-.75V4.982h2.675c.414 0 .75-.336.75-.75s-.336-.75-.75-.75zM8.417 11.816c1.355 0 2.872-.15 3.84-1.256.813-.93 1.077-2.367.806-4.392-.38-2.826-2.116-4.513-4.646-4.513S4.15 3.342 3.77 6.168c-.27 2.025-.007 3.462.807 4.393.968 1.108 2.485 1.257 3.84 1.257zm-3.16-5.448c.16-1.2.786-3.212 3.16-3.212 2.373 0 2.998 2.013 3.16 3.212.207 1.55.056 2.627-.45 3.205-.455.52-1.266.743-2.71.743s-2.256-.223-2.71-.743c-.507-.578-.658-1.656-.45-3.205zm11.44 12.867c-.88-3.525-4.283-5.988-8.28-5.988-3.998 0-7.403 2.463-8.28 5.988-.172.693-.03 1.4.395 1.94.408.522 1.04.822 1.733.822H14.57c.69 0 1.323-.3 1.73-.82.425-.54.568-1.247.396-1.942zm-1.577 1.018c-.126.16-.316.245-.55.245H2.264c-.235 0-.426-.085-.552-.246-.137-.174-.18-.412-.12-.654.71-2.855 3.517-4.85 6.824-4.85s6.113 1.994 6.824 4.85c.06.24.017.48-.12.655z"/>
    </g>
</svg>
