<svg xmlns="http://www.w3.org/2000/svg" viewBox="0 0 24 24">
    <g>
        <path d="M8.417 11.816c1.355 0 2.872-.15 3.84-1.256.813-.93 1.077-2.367.806-4.392-.38-2.826-2.116-4.513-4.645-4.513-2.53 0-4.267 1.687-4.646 4.513-.273 2.025-.01 3.462.805 4.393.968 1.108 2.485 1.257 3.84 1.257zm-3.16-5.448c.16-1.2.786-3.212 3.16-3.212 2.373 0 2.998 2.013 3.16 3.212.207 1.55.056 2.627-.45 3.205-.455.52-1.266.743-2.71.743s-2.256-.223-2.71-.743c-.507-.578-.658-1.656-.45-3.205zm11.44 12.867c-.88-3.525-4.283-5.988-8.28-5.988-3.998 0-7.403 2.463-8.28 5.988-.172.693-.03 1.4.395 1.94.408.522 1.04.822 1.733.822H14.57c.69 0 1.323-.3 1.73-.82.425-.54.568-1.247.396-1.942zm-1.577 1.018c-.126.16-.316.245-.55.245H2.264c-.235 0-.426-.085-.552-.246-.137-.174-.18-.412-.12-.654.71-2.855 3.517-4.85 6.824-4.85s6.113 1.994 6.824 4.85c.06.24.017.48-.12.655zM23.24 3.47h-5.624l1.64-1.642c.315-.316.315-.827 0-1.143-.316-.315-.826-.316-1.143 0l-2.96 2.96c-.16.16-.238.366-.238.572 0 .207.08.414.237.57l2.96 2.962c.16.156.365.234.572.234s.413-.08.57-.236c.316-.316.316-.828 0-1.144l-1.64-1.64h5.623c.414 0 .75-.336.75-.75s-.334-.747-.748-.747z"/>
    </g>
</svg>
