<svg xmlns="http://www.w3.org/2000/svg" viewBox="0 0 24 24">
    <g>
        <path d="M12 22.75C6.072 22.75 1.25 17.928 1.25 12S6.072 1.25 12 1.25 22.75 6.072 22.75 12 17.928 22.75 12 22.75zm0-20C6.9 2.75 2.75 6.9 2.75 12S6.9 21.25 12 21.25s9.25-4.15 9.25-9.25S17.1 2.75 12 2.75z"/>
        <path d="M12 17.115c-1.892 0-3.633-.95-4.656-2.544-.224-.348-.123-.81.226-1.035.348-.226.812-.124 1.036.226.747 1.162 2.016 1.855 3.395 1.855s2.648-.693 3.396-1.854c.224-.35.688-.45 1.036-.225.35.224.45.688.226 1.036-1.025 1.594-2.766 2.545-4.658 2.545z"/>
        <circle cx="14.738" cy="9.458" r="1.478"/>
        <circle cx="9.262" cy="9.458" r="1.478"/>
    </g>
</svg>
