<svg xmlns="http://www.w3.org/2000/svg" viewBox="0 0 24 24">
    <g>
        <path d="M20.884 9.978l-.167-.015c-.607-.055-1.133-.442-1.366-1.005v-.004c-.234-.563-.136-1.208.254-1.677l.107-.13c.544-.65.5-1.608-.1-2.208l-.55-.552c-.6-.6-1.557-.643-2.21-.1l-.127.107c-.468.39-1.114.488-1.677.255l-.005-.002c-.562-.233-.95-.76-1.004-1.366l-.015-.166c-.076-.844-.784-1.49-1.632-1.49h-.778c-.847 0-1.555.645-1.632 1.49l-.015.166c-.055.606-.44 1.132-1.003 1.365l-.006.002c-.563.233-1.21.135-1.678-.255l-.128-.107c-.65-.543-1.61-.5-2.21.1l-.55.55c-.6.6-.643 1.558-.1 2.21l.107.128c.39.468.488 1.115.255 1.678l-.002.005c-.234.56-.76.948-1.366 1.003l-.166.015c-.844.077-1.49.785-1.49 1.633v.78c0 .848.645 1.556 1.49 1.633l.165.015c.61.055 1.135.443 1.368 1.008l.002.006c.232.562.133 1.207-.256 1.674l-.106.128c-.543.65-.5 1.61.1 2.21l.55.55c.6.6 1.558.643 2.21.1l.123-.103c.47-.39 1.115-.487 1.678-.254l.01.004c.563.233.95.76 1.005 1.366l.015.16c.077.844.785 1.49 1.633 1.49h.78c.848 0 1.556-.645 1.633-1.49l.015-.16c.055-.607.442-1.133 1.005-1.366l.01-.004c.563-.233 1.21-.135 1.677.255l.123.104c.65.543 1.61.5 2.21-.1l.55-.55c.6-.6.643-1.558.1-2.21l-.107-.128c-.39-.47-.488-1.115-.254-1.678l.002-.005c.234-.562.76-.948 1.365-1.003l.165-.015c.844-.077 1.49-.785 1.49-1.633v-.78c0-.85-.646-1.557-1.49-1.634zM12 16c-2.206 0-4-1.794-4-4s1.794-4 4-4 4 1.794 4 4-1.794 4-4 4z"/>
    </g>
</svg>
