<svg xmlns="http://www.w3.org/2000/svg" viewBox="0 0 24 24">
    <g>
        <path d="M20.585 9.468c.66 0 1.2-.538 1.2-1.2 0-.662-.54-1.2-1.2-1.2h-3.22l.31-3.547c.027-.318-.07-.63-.277-.875-.206-.245-.495-.396-.822-.425-.65-.035-1.235.432-1.293 1.093l-.326 3.754H9.9l.308-3.545c.06-.658-.43-1.242-1.097-1.302-.665-.05-1.235.43-1.293 1.092l-.325 3.754h-3.33c-.663 0-1.2.538-1.2 1.2 0 .662.538 1.2 1.2 1.2h3.122l-.44 5.064H3.416c-.662 0-1.2.54-1.2 1.2s.538 1.202 1.2 1.202h3.22l-.31 3.548c-.057.657.432 1.24 1.09 1.3l.106.005c.626 0 1.14-.472 1.195-1.098l.327-3.753H14.1l-.308 3.544c-.06.658.43 1.242 1.09 1.302l.106.005c.617 0 1.142-.482 1.195-1.098l.325-3.753h3.33c.66 0 1.2-.54 1.2-1.2s-.54-1.202-1.2-1.202h-3.122l.44-5.064h3.43zm-5.838 0l-.44 5.063H9.253l.44-5.062h5.055z"/>
    </g>
</svg>
