<svg xmlns="http://www.w3.org/2000/svg" viewBox="0 0 24 24">
    <g>
        <path d="M20.602 17.158l-7.85-5.546V2c0-.418-.295-.75-.76-.752-1.705 0-3.41.417-4.935 1.206C1.793 5.18-.27 11.68 2.454 16.944c1.91 3.688 5.672 5.805 9.564 5.805 1.663 0 3.35-.39 4.925-1.205 1.527-.79 2.854-1.947 3.84-3.343.238-.338.157-.807-.18-1.045zm-4.348 3.056c-4.53 2.346-10.122.57-12.468-3.96-2.345-4.53-.57-10.122 3.96-12.468 1.11-.575 2.27-.92 3.505-1.004V12c0 .253.126.476.318.612l7.52 5.313c-.782.94-1.726 1.715-2.833 2.29zm5.408-4.88c-.064 0-.13-.007-.195-.025-.4-.11-.637-.52-.53-.92.175-.655.28-1.328.307-2.004.018-.414.376-.736.78-.718.415.016.736.366.72.78-.034.786-.154 1.57-.358 2.33-.09.334-.393.555-.724.555zm-.327-6.17c-.302 0-.586-.184-.7-.482-.243-.633-.555-1.24-.928-1.8-.23-.346-.135-.812.21-1.04.345-.23.81-.136 1.04.21.434.653.797 1.357 1.08 2.093.147.387-.047.82-.434.97-.088.033-.178.05-.268.05zm-3.888-4.8c-.14 0-.282-.04-.408-.12-.57-.37-1.18-.677-1.813-.913-.388-.143-.585-.575-.44-.963.145-.388.578-.585.965-.44.736.275 1.443.63 2.103 1.06.348.225.446.69.22 1.037-.143.22-.384.34-.63.34z"/>
    </g>
</svg>
