<svg xmlns="http://www.w3.org/2000/svg" viewBox="0 0 24 24">
    <g>
        <path d="M1.75 22.354c-.192 0-.384-.073-.53-.22-.293-.293-.293-.768 0-1.06L20.395 1.898c.293-.294.768-.294 1.06 0s.294.767 0 1.06L2.28 22.135c-.146.146-.338.22-.53.22zm1.716-5.577c-.134 0-.27-.036-.392-.11-.67-.413-1.07-1.13-1.07-1.917v-5.5c0-1.24 1.01-2.25 2.25-2.25H6.74l7.047-5.588c.225-.18.533-.215.792-.087.258.125.423.387.423.675v3.28c0 .415-.336.75-.75.75s-.75-.335-.75-.75V3.553L7.47 8.338c-.134.104-.298.162-.467.162h-2.75c-.413 0-.75.337-.75.75v5.5c0 .263.134.5.356.64.353.216.462.678.245 1.03-.14.23-.387.357-.64.357zm10.787 5.973c-.166 0-.33-.055-.466-.162l-4.795-3.803c-.325-.258-.38-.73-.122-1.054.258-.322.73-.38 1.054-.12l3.58 2.838v-7.013c0-.414.335-.75.75-.75s.75.336.75.75V22c0 .288-.166.55-.425.675-.104.05-.216.075-.327.075z"/>
    </g>
</svg>
