<svg xmlns="http://www.w3.org/2000/svg" viewBox="0 0 24 24">
    <g>
        <path d="M11.999 22.25c-5.652 0-10.25-4.598-10.25-10.25S6.347 1.75 11.999 1.75 22.249 6.348 22.249 12s-4.598 10.25-10.25 10.25zm0-18.5c-4.549 0-8.25 3.701-8.25 8.25s3.701 8.25 8.25 8.25 8.25-3.701 8.25-8.25-3.701-8.25-8.25-8.25zm.445 6.992c1.747-.096 3.748-.689 3.768-.695l.575 1.916c-.077.022-1.616.48-3.288.689v.498c.287 1.227 1.687 2.866 2.214 3.405l-1.428 1.4c-.188-.191-1.518-1.576-2.286-3.144-.769 1.568-2.098 2.952-2.286 3.144l-1.428-1.4c.527-.54 1.927-2.178 2.214-3.405v-.498c-1.672-.209-3.211-.667-3.288-.689l.575-1.916c.02.006 2.021.6 3.768.695m0 0c.301.017.59.017.891 0M12 6.25c-.967 0-1.75.78-1.75 1.75s.783 1.75 1.75 1.75 1.75-.78 1.75-1.75-.784-1.75-1.75-1.75z"/>
    </g>
</svg>
