<svg xmlns="http://www.w3.org/2000/svg" viewBox="0 0 24 24">
    <g>
        <path d="M12 3.786c-4.556 0-8.25 3.694-8.25 8.25s3.694 8.25 8.25 8.25c1.595 0 3.081-.451 4.341-1.233l1.054 1.7c-1.568.972-3.418 1.534-5.395 1.534-5.661 0-10.25-4.589-10.25-10.25S6.339 1.786 12 1.786s10.25 4.589 10.25 10.25c0 .901-.21 1.77-.452 2.477-.592 1.731-2.343 2.477-3.917 2.334-1.242-.113-2.307-.74-3.013-1.647-.961 1.253-2.45 2.011-4.092 1.78-2.581-.363-4.127-2.971-3.76-5.578.366-2.606 2.571-4.688 5.152-4.325 1.019.143 1.877.637 2.519 1.342l1.803.258-.507 3.549c-.187 1.31.761 2.509 2.079 2.629.915.083 1.627-.356 1.843-.99.2-.585.345-1.224.345-1.83 0-4.556-3.694-8.25-8.25-8.25zm-.111 5.274c-1.247-.175-2.645.854-2.893 2.623-.249 1.769.811 3.143 2.058 3.319 1.247.175 2.645-.854 2.893-2.623.249-1.769-.811-3.144-2.058-3.319z"/>
    </g>
</svg>
