<svg xmlns="http://www.w3.org/2000/svg" viewBox="0 0 24 24">
    <g>
        <path d="M20.906 12.499l1.145.035-.189 1.13-.986-.165.03-1zm-.03 1l.986.165c-.793 4.731-4.905 8.337-9.862 8.337-5.523 0-10-4.477-10-10S6.477 2 12 2h.111l1.21.013-.24 1.186c-.052.258-.08.526-.08.801 0 2.209 1.791 4 4 4h.025l1.139-.007-.141 1.131c-.015.123-.023.248-.023.376 0 1.625 1.293 2.949 2.906 2.999l-.03 1zm-1.219.802c-1.975-.553-3.439-2.279-3.615-4.384-2.835-.456-5.004-2.892-5.038-5.848C7.057 4.561 4.001 7.92 4.001 12c0 4.418 3.582 8 8 8 3.617 0 6.668-2.404 7.657-5.7zM8.5 13.001c-.828 0-1.5.672-1.5 1.5s.672 1.5 1.5 1.5 1.5-.672 1.5-1.5-.672-1.5-1.5-1.5zm0-6c-.828 0-1.5.672-1.5 1.5s.672 1.5 1.5 1.5 1.5-.672 1.5-1.5-.672-1.5-1.5-1.5zm6 8c-.828 0-1.5.672-1.5 1.5s.672 1.5 1.5 1.5 1.5-.672 1.5-1.5-.672-1.5-1.5-1.5zm-.5-3.5c0-.828-.672-1.5-1.5-1.5s-1.5.672-1.5 1.5.672 1.5 1.5 1.5 1.5-.672 1.5-1.5z"/>
    </g>
</svg>
