<svg xmlns="http://www.w3.org/2000/svg" viewBox="0 0 24 24">
    <g>
        <path d="M7.471 21H.472l.029-1.027c.184-6.618 3.736-8.977 7-8.977.963 0 1.95.212 2.87.672-1.608 1.732-2.762 4.389-2.869 8.248l-.03 1.083zM9.616 9.27C10.452 8.63 11 7.632 11 6.5 11 4.57 9.433 3 7.5 3S4 4.57 4 6.5c0 1.132.548 2.13 1.384 2.77.589.451 1.317.73 2.116.73s1.527-.279 2.116-.73zm6.884 1.726c-3.264 0-6.816 2.358-7 8.977L9.471 21h14.057l-.029-1.027c-.184-6.618-3.736-8.977-7-8.977zm2.116-1.726C19.452 8.63 20 7.632 20 6.5 20 4.57 18.433 3 16.5 3S13 4.57 13 6.5c0 1.132.548 2.13 1.384 2.77.589.451 1.317.73 2.116.73s1.527-.279 2.116-.73z"/>
    </g>
</svg>
