<svg xmlns="http://www.w3.org/2000/svg" viewBox="0 0 24 24">
    <g>
        <path d="M12 5c-.83 0-1.5.67-1.5 1.5S11.17 8 12 8s1.5-.67 1.5-1.5S12.83 5 12 5zM8.5 6.5C8.5 4.57 10.07 3 12 3s3.5 1.57 3.5 3.5S13.93 10 12 10 8.5 8.43 8.5 6.5zm-3.25 1c-.41 0-.75.34-.75.75s.34.75.75.75.75-.34.75-.75-.34-.75-.75-.75zm-2.75.75c0-1.52 1.23-2.75 2.75-2.75S8 6.73 8 8.25 6.77 11 5.25 11 2.5 9.77 2.5 8.25zm16.25-.75c-.41 0-.75.34-.75.75s.34.75.75.75.75-.34.75-.75-.34-.75-.75-.75zM16 8.25c0-1.52 1.23-2.75 2.75-2.75s2.75 1.23 2.75 2.75S20.27 11 18.75 11 16 9.77 16 8.25zM12 13c-1.29 0-2.37.54-3.22 1.61C8 15.6 7.4 17.07 7.12 19h9.76c-.27-1.85-.83-3.28-1.57-4.28C14.45 13.58 13.34 13 12 13zm-4.78.36C8.41 11.86 10.06 11 12 11c2.02 0 3.7.92 4.91 2.53 1.18 1.57 1.88 3.77 2.09 6.39l.08 1.08H4.92L5 19.92c.22-2.7.96-4.97 2.22-6.56zM2.95 16c.16-.55.39-.97.66-1.28.4-.46.94-.72 1.64-.72v-2c-1.26 0-2.35.49-3.15 1.4-.78.89-1.22 2.11-1.35 3.51L.65 18H4v-2H2.95zm18.95-2.6c.78.89 1.22 2.11 1.35 3.51l.1 1.09H20v-2h1.05c-.16-.55-.39-.97-.66-1.28-.4-.46-.94-.72-1.64-.72v-2c1.26 0 2.35.49 3.15 1.4z"/>
    </g>
</svg>
