<svg xmlns="http://www.w3.org/2000/svg" viewBox="0 0 24 24">
    <g>
        <path d="M17 12v3h-2.998v2h3v3h2v-3h3v-2h-3.001v-3H17zm-5 6.839c-3.871-2.34-6.053-4.639-7.127-6.609-1.112-2.04-1.031-3.7-.479-4.82.561-1.13 1.667-1.84 2.91-1.91 1.222-.06 2.68.51 3.892 2.16l.806 1.09.805-1.09c1.211-1.65 2.668-2.22 3.89-2.16 1.242.07 2.347.78 2.908 1.91.334.677.49 1.554.321 2.59h2.011c.153-1.283-.039-2.469-.539-3.48-.887-1.79-2.647-2.91-4.601-3.01-1.65-.09-3.367.56-4.796 2.01-1.43-1.45-3.147-2.1-4.798-2.01-1.954.1-3.714 1.22-4.601 3.01-.896 1.81-.846 4.17.514 6.67 1.353 2.48 4.003 5.12 8.382 7.67l.502.299v-2.32z"/>
    </g>
</svg>
