<svg xmlns="http://www.w3.org/2000/svg" viewBox="0 0 24 24">
    <g>
        <path d="M19 14h2v3h-2v-3zM3 14H1v3h2v-3zm.5 7c-.276 0-.5-.225-.5-.5V19H1v1.5C1 21.879 2.122 23 3.5 23H5v-2H3.5zM10 5V3H7v2h3zm-7 .5c0-.275.224-.5.5-.5H5V3H3.5C2.122 3 1 4.121 1 5.5V7h2V5.5zM12 21v2h3v-2h-3zm-5 0v2h3v-2H7zm12-.5c0 .275-.224.5-.5.5H17v2h1.5c1.378 0 2.5-1.121 2.5-2.5V19h-2v1.5zM3 9H1v3h2V9zm3 9h5v-2H6v2zM18-.1c3.364 0 6.1 2.736 6.1 6.1s-2.736 6.1-6.1 6.1-6.1-2.736-6.1-6.1S14.636-.1 18-.1zm0 2c-2.261 0-4.1 1.839-4.1 4.1s1.839 4.1 4.1 4.1 4.1-1.839 4.1-4.1-1.839-4.1-4.1-4.1zm.5 3.1H15v2h6V5h-2.5zM6 10h4V8H6v2zm0 4h7v-2H6v2z"/>
    </g>
</svg>
