<svg xmlns="http://www.w3.org/2000/svg" viewBox="0 0 24 24">
    <g>
        <path d="M12 22.25c-4.99 0-9.18-3.393-10.39-7.994l1.93-.512c.99 3.746 4.4 6.506 8.46 6.506s7.47-2.76 8.46-6.506l1.93.512c-1.21 4.601-5.4 7.994-10.39 7.994zM5 11.5c0 3.866 3.13 7 7 7s7-3.134 7-7V8.75c0-3.866-3.13-7-7-7s-7 3.134-7 7v2.75zm12-2.75v2.75c0 2.761-2.24 5-5 5s-5-2.239-5-5V8.75c0-2.761 2.24-5 5-5s5 2.239 5 5zM11.25 8v4.25c0 .414.34.75.75.75s.75-.336.75-.75V8c0-.414-.34-.75-.75-.75s-.75.336-.75.75zm-3 1v2.25c0 .414.34.75.75.75s.75-.336.75-.75V9c0-.414-.34-.75-.75-.75s-.75.336-.75.75zm7.5 0c0-.414-.34-.75-.75-.75s-.75.336-.75.75v2.25c0 .414.34.75.75.75s.75-.336.75-.75V9z"/>
    </g>
</svg>
