<svg xmlns="http://www.w3.org/2000/svg" viewBox="0 0 24 24">
    <g>
        <path d="M5 22H2v-3c0-1.654 1.346-3 3-3s3 1.346 3 3-1.346 3-3 3zm-1-2h1c.551 0 1-.449 1-1s-.449-1-1-1-1 .449-1 1v1zm7.594 1.282l-.336-1.145c-.271-.923-.664-1.807-1.166-2.627-.452-.736-.992-1.421-1.607-2.036-.626-.625-1.322-1.173-2.069-1.627-.821-.499-1.706-.888-2.63-1.157l-1.151-.335L5.312 7h5.192c.613-.636 2.015-2.077 2.758-2.744C15.673 2.09 20.704 2.003 20.918 2l1.025-.013-.013 1.025c-.003.213-.09 5.245-2.256 7.656-.643.715-2.004 2.043-2.671 2.688v5.239l-5.407 2.688h-.002zm.64-4.046c.207.396.393.802.557 1.217l2.21-1.099v-2.333l-2.768 2.214zm-3.839-4.468c.531.391 1.034.823 1.503 1.292.459.459.883.951 1.267 1.471l4.104-3.284c.269-.257 2.169-2.084 2.916-2.915 1.084-1.208 1.531-3.667 1.681-5.269-1.602.149-4.061.596-5.268 1.68-.832.748-2.658 2.647-2.916 2.916l-3.287 4.109zM5.47 11.154c.414.163.819.347 1.214.551l2.165-2.706H6.548l-1.077 2.154z"/>
    </g>
</svg>
