<svg xmlns="http://www.w3.org/2000/svg" viewBox="0 0 24 24">
    <g>
        <path d="M8 9.5C8 8.119 8.672 7 9.5 7S11 8.119 11 9.5 10.328 12 9.5 12 8 10.881 8 9.5zm6.5 2.5c.828 0 1.5-1.119 1.5-2.5S15.328 7 14.5 7 13 8.119 13 9.5s.672 2.5 1.5 2.5zM12 16c-2.224 0-3.021-2.227-3.051-2.316l-1.897.633c.05.15 1.271 3.684 4.949 3.684s4.898-3.533 4.949-3.684l-1.896-.638c-.033.095-.83 2.322-3.053 2.322zm10.25-4.001c0 5.652-4.598 10.25-10.25 10.25S1.75 17.652 1.75 12 6.348 1.75 12 1.75 22.25 6.348 22.25 12zm-2 0c0-4.549-3.701-8.25-8.25-8.25S3.75 7.451 3.75 12s3.701 8.25 8.25 8.25 8.25-3.701 8.25-8.25z"/>
    </g>
</svg>
