<svg xmlns="http://www.w3.org/2000/svg" viewBox="0 0 24 24">
    <g>
        <path d="M6.866 18H.846l.075-1.069C1.33 11.083 4.335 9 7.011 9c1.457 0 2.734.576 3.743 1.615-.515.378-1.003.826-1.45 1.355-.562-.569-1.305-.97-2.293-.97-2.074 0-3.522 1.847-3.981 5h4.225c-.169.616-.295 1.288-.389 2zM4 5c0-1.654 1.343-3 3-3s3 1.346 3 3-1.343 3-3 3-3-1.346-3-3zm2 0c0 .551.448 1 1 1s1-.449 1-1-.448-1-1-1-1 .449-1 1zm9.5 5c-.778 0-1.49-.263-2.071-.693C12.566 8.669 12 7.653 12 6.5 12 4.57 13.567 3 15.5 3S19 4.57 19 6.5c0 1.111-.53 2.092-1.34 2.733-.596.472-1.341.767-2.16.767zM14 6.5c0 .827.673 1.5 1.5 1.5S17 7.327 17 6.5 16.327 5 15.5 5 14 5.673 14 6.5zm1.5 4.496c3.264 0 6.816 2.358 7 8.977L22.529 21H8.472l.029-1.027c.184-6.618 3.736-8.977 7-8.977zm0 2c-2.767 0-4.57 2.223-4.938 6.004h9.875c-.367-3.781-2.17-6.004-4.938-6.004z"/>
    </g>
</svg>
