<svg xmlns="http://www.w3.org/2000/svg" viewBox="0 0 24 24">
    <g>
        <path d="M14.828 9.172c-1.315-1.315-3.326-1.522-4.86-.618L3.707 2.293 2.293 3.707l2.428 2.429c-2.478 2.421-3.606 5.376-3.658 5.513L.932 12l.131.351C1.196 12.704 4.394 21 12 21c2.063 0 3.989-.622 5.737-1.849l2.556 2.556 1.414-1.414-6.261-6.261c.904-1.534.698-3.545-.618-4.86zm-1.414 1.414c.522.522.695 1.264.518 1.932l-2.449-2.449c.669-.177 1.409-.005 1.931.517zM3.085 11.999c.107-.24.272-.588.497-1.002l7.993 7.992c-5.14-.279-7.85-5.563-8.489-6.989zm13.21 5.71c-.695.448-1.422.781-2.175.996L4.672 9.258c.412-.57.899-1.158 1.464-1.708l10.16 10.16h-.001zm6.772-5.71l-.131.352c-.062.164-.801 2.055-2.33 4.027l-1.438-1.438c.917-1.217 1.494-2.378 1.746-2.941-.658-1.467-3.5-7-8.915-7-.712 0-1.376.1-2 .27V3.223c.633-.131 1.291-.223 2-.223 7.605 0 10.804 8.296 10.937 8.648l.131.352z"/>
    </g>
</svg>
