<svg xmlns="http://www.w3.org/2000/svg" viewBox="0 0 24 24">
    <g>
        <path d="M19.5 6H17V4.5C17 3.12 15.88 2 14.5 2h-5C8.12 2 7 3.12 7 4.5V6H4.5C3.12 6 2 7.12 2 8.5v10C2 19.88 3.12 21 4.5 21h15c1.38 0 2.5-1.12 2.5-2.5v-10C22 7.12 20.88 6 19.5 6zM9 4.5c0-.28.23-.5.5-.5h5c.28 0 .5.22.5.5V6H9V4.5zm11 14c0 .28-.22.5-.5.5h-15c-.27 0-.5-.22-.5-.5v-3.04c.59.35 1.27.54 2 .54h5v1h2v-1h5c.73 0 1.41-.19 2-.54v3.04zm0-6.49c0 1.1-.9 1.99-2 1.99h-5v-1h-2v1H6c-1.1 0-2-.9-2-2V8.5c0-.28.23-.5.5-.5h15c.28 0 .5.22.5.5v3.51z"/>
    </g>
</svg>
