<svg xmlns="http://www.w3.org/2000/svg" viewBox="0 -1920 2048 2048">
	<path transform="translate(0 42)" d="M1026 -170Q1270 -170 1466 -310L398 -1380Q264 -1208 256 -938Q260 -612 487 -391Q714 -170 1026 -170ZM1026 -1706Q780 -1706 578 -1562L1650 -490Q1796 -700 1792 -938Q1794 -1256 1569 -1481Q1344 -1706 1026 -1706ZM512 -52Q278 -184 140 -426Q4 -658 0 -938Q8 -1233 140 -1452Q270 -1686 507 -1824Q744 -1962 1024 -1962Q1166 -1962 1294 -1930Q1414 -1896 1540 -1826Q1778 -1684 1916 -1440Q2054 -1196 2046 -938Q2060 -712 1914 -424Q1768 -184 1533 -49Q1298 86 1021 86Q743 86 512 -52Z"/>
</svg>