<svg xmlns="http://www.w3.org/2000/svg" viewBox="0 -1920 2048 2048">
	<path d="M1282 -478Q1308 -478 1327 -497Q1346 -516 1346 -542Q1346 -568 1328 -586Q1286 -638 1286 -799Q1286 -960 1194 -1052Q1154 -1092 1102 -1110Q1098 -1140 1076 -1161Q1054 -1182 1023 -1182Q992 -1182 971 -1161Q950 -1140 946 -1110Q894 -1096 850 -1052Q758 -960 758 -801Q758 -642 716 -586Q684 -560 699 -519Q714 -478 762 -478H896Q906 -436 941 -407Q976 -378 1022 -378Q1068 -378 1103 -407Q1138 -436 1148 -478ZM1486 -780Q1510 -780 1529 -795Q1548 -810 1550 -836Q1566 -956 1511 -1065Q1456 -1174 1352 -1236Q1330 -1250 1304 -1243Q1278 -1236 1265 -1213Q1252 -1190 1259 -1165Q1266 -1140 1288 -1126Q1360 -1084 1397 -1009Q1434 -934 1424 -850Q1420 -824 1436 -803Q1452 -782 1478 -780ZM558 -780H566Q592 -784 608 -804Q624 -824 622 -850Q612 -934 648 -1009Q684 -1084 756 -1126Q780 -1140 787 -1165Q794 -1190 780 -1213Q766 -1236 741 -1243Q716 -1250 692 -1236Q586 -1174 533 -1065Q480 -956 496 -836Q498 -812 516 -796Q534 -780 558 -780ZM1724 -738Q1748 -738 1765 -754Q1782 -770 1786 -794Q1812 -992 1724 -1170Q1636 -1348 1464 -1450Q1442 -1462 1416 -1455Q1390 -1448 1376 -1426Q1362 -1404 1369 -1379Q1376 -1354 1400 -1340Q1538 -1258 1609 -1113Q1680 -968 1660 -810Q1658 -784 1674 -763Q1690 -742 1716 -738ZM320 -738H328Q356 -742 371 -763Q386 -784 384 -810Q364 -968 435 -1113Q506 -1258 646 -1340Q668 -1354 675 -1379Q682 -1404 668 -1426Q654 -1448 629 -1455Q604 -1462 582 -1450Q410 -1348 321 -1170Q232 -992 258 -794Q260 -770 279 -754Q298 -738 320 -738ZM304 -1920H1744Q1870 -1920 1959 -1831Q2048 -1742 2048 -1616V-176Q2048 -50 1959 39Q1870 128 1744 128H304Q178 128 89 39Q0 -50 0 -176V-1616Q0 -1742 89 -1831Q178 -1920 304 -1920Z"/>
</svg>