<svg xmlns="http://www.w3.org/2000/svg" viewBox="0 -1920 2048 2048">
	<path d="M1586 -1152H1228L1096 -1484Q1078 -1536 1023 -1536Q968 -1536 950 -1484L818 -1152H460Q402 -1152 386 -1099Q370 -1046 416 -1012L748 -744L566 -358Q548 -304 593 -271Q638 -238 684 -272L1024 -548L1362 -272Q1408 -238 1453 -271Q1498 -304 1480 -358L1298 -744L1630 -1012Q1676 -1046 1660 -1099Q1644 -1152 1586 -1152ZM304 -1920H1744Q1870 -1920 1959 -1831Q2048 -1742 2048 -1616V-176Q2048 -50 1959 39Q1870 128 1744 128H304Q178 128 89 39Q0 -50 0 -176V-1616Q0 -1742 89 -1831Q178 -1920 304 -1920Z"/>
</svg>