<svg xmlns="http://www.w3.org/2000/svg" viewBox="0 -1920 2048 2048">
	<path d="M800 -608Q766 -600 620 -569Q474 -538 448 -512Q406 -498 390 -442Q374 -386 380 -336L384 -288H1664Q1667 -302 1669 -347Q1670 -392 1665 -420Q1660 -448 1643 -476Q1626 -504 1600 -512Q1575 -537 1428 -569Q1282 -600 1248 -608Q1104 -512 1024 -512Q944 -512 800 -608ZM768 -960Q828 -841 936 -789Q980 -768 1024 -768Q1113 -768 1180 -833Q1247 -898 1268 -940L1280 -960Q1322 -960 1376 -1120Q1376 -1176 1344 -1216L1339 -1251Q1336 -1272 1316 -1327Q1296 -1382 1268 -1424Q1240 -1466 1184 -1501Q1128 -1536 1056 -1536H1024Q928 -1536 864 -1472Q808 -1472 768 -1408Q728 -1344 716 -1280L704 -1216Q672 -1184 672 -1119Q672 -1054 706 -1007Q740 -960 768 -960ZM304 -1920H1744Q1870 -1920 1959 -1831Q2048 -1742 2048 -1616V-176Q2048 -50 1959 39Q1870 128 1744 128H304Q178 128 89 39Q0 -50 0 -176V-1616Q0 -1742 89 -1831Q178 -1920 304 -1920Z"/>
</svg>