<svg xmlns="http://www.w3.org/2000/svg" viewBox="0 -1920 2048 2048">
	<path d="M1612 -466L1320 -758L1596 -1034Q1608 -1046 1604 -1058Q1604 -1072 1590 -1082Q1444 -1174 1228 -1080L844 -1382Q888 -1514 824 -1612Q818 -1622 802 -1624Q786 -1626 776 -1616L306 -1146Q298 -1138 298 -1123Q298 -1108 312 -1098Q408 -1036 542 -1080L844 -696Q748 -476 842 -334Q852 -320 866 -320Q878 -316 890 -328L1166 -604L1458 -312Q1490 -280 1535 -280Q1580 -280 1612 -312Q1644 -344 1644 -389Q1644 -434 1612 -466ZM304 -1920H1744Q1870 -1920 1959 -1831Q2048 -1742 2048 -1616V-176Q2048 -50 1959 39Q1870 128 1744 128H304Q178 128 89 39Q0 -50 0 -176V-1616Q0 -1742 89 -1831Q178 -1920 304 -1920Z"/>
</svg>