<svg xmlns="http://www.w3.org/2000/svg" viewBox="0 -1920 2048 2048">
	<path transform="translate(0 15)" d="M1500 -730V-1242Q1500 -1288 1468 -1320Q1436 -1352 1390 -1352H878Q832 -1352 800 -1320Q768 -1288 768 -1242Q768 -1196 800 -1164Q832 -1132 878 -1132H1124L580 -588Q548 -556 548 -511Q548 -466 580 -434Q612 -402 658 -402Q704 -402 736 -434L1280 -978V-730Q1280 -684 1312 -652Q1344 -620 1390 -620Q1436 -620 1468 -652Q1500 -684 1500 -730ZM292 -1718H1756Q1878 -1718 1963 -1632Q2048 -1546 2048 -1426V-402Q2048 -280 1963 -194Q1878 -108 1756 -108H292Q170 -108 85 -194Q0 -280 0 -402V-1426Q0 -1546 85 -1632Q170 -1718 292 -1718Z"/>
</svg>