<svg xmlns="http://www.w3.org/2000/svg" viewBox="0 -1920 2048 2048">
	<path d="M1792 -512Q1792 -728 1643 -876Q1494 -1024 1280 -1024H1024V-1308Q1024 -1364 970 -1391Q916 -1418 872 -1384L292 -972Q256 -942 256 -896Q256 -850 292 -820L872 -408Q896 -390 926 -390Q956 -390 970 -400Q1024 -428 1024 -484V-768H1280Q1378 -768 1457 -689Q1536 -610 1536 -512Q1536 -454 1570 -419Q1604 -384 1663 -384Q1722 -384 1757 -419Q1792 -454 1792 -512ZM304 -1920H1744Q1870 -1920 1959 -1831Q2048 -1742 2048 -1616V-176Q2048 -50 1959 39Q1870 128 1744 128H304Q178 128 89 39Q0 -50 0 -176V-1616Q0 -1742 89 -1831Q178 -1920 304 -1920Z"/>
</svg>