<svg xmlns="http://www.w3.org/2000/svg" viewBox="0 -1920 2048 2048">
	<path d="M1798 -896H1664V-1280Q1664 -1330 1625 -1369Q1586 -1408 1536 -1408H1022Q946 -1408 910 -1342Q896 -1316 896 -1270Q896 -1224 928 -1192Q960 -1160 992 -1156L1024 -1152H1408V-896H1272Q1240 -896 1216 -872Q1192 -848 1192 -816Q1192 -784 1214 -758L1536 -384L1856 -758Q1878 -784 1878 -816Q1878 -848 1855 -872Q1832 -896 1798 -896ZM512 -384H1024Q1102 -384 1138 -450Q1152 -476 1152 -522Q1152 -568 1120 -600Q1088 -632 1056 -636L1024 -640H640V-896H774Q808 -896 831 -920Q854 -944 854 -976Q854 -1008 832 -1034L512 -1408L190 -1034Q168 -1008 168 -976Q168 -944 192 -920Q216 -896 248 -896H384V-512Q384 -462 423 -423Q462 -384 512 -384ZM304 -1920H1744Q1870 -1920 1959 -1831Q2048 -1742 2048 -1616V-176Q2048 -50 1959 39Q1870 128 1744 128H304Q178 128 89 39Q0 -50 0 -176V-1616Q0 -1742 89 -1831Q178 -1920 304 -1920Z"/>
</svg>