<svg xmlns="http://www.w3.org/2000/svg" viewBox="0 -1920 2048 2048">
	<path d="M1664 -1158V-774Q1824 -774 1824 -966Q1824 -1158 1664 -1158ZM1508 -532V-1394Q1508 -1450 1456 -1470Q1404 -1490 1366 -1452Q1242 -1330 1023 -1242Q804 -1154 644 -1154H366Q332 -1154 306 -1128Q254 -1068 254 -964Q254 -860 294 -813Q300 -806 300 -804Q326 -772 366 -772H510V-426Q510 -384 548 -353Q586 -322 630 -322Q674 -322 720 -354Q766 -386 766 -426V-738Q930 -718 1095 -648Q1260 -578 1366 -474Q1390 -450 1415 -450Q1440 -450 1456 -456Q1508 -476 1508 -532ZM304 -1920H1744Q1870 -1920 1959 -1831Q2048 -1742 2048 -1616V-176Q2048 -50 1959 39Q1870 128 1744 128H304Q178 128 89 39Q0 -50 0 -176V-1616Q0 -1742 89 -1831Q178 -1920 304 -1920Z"/>
</svg>