<svg xmlns="http://www.w3.org/2000/svg" viewBox="0 -1920 2048 2048">
	<path d="M1024 -858H418Q386 -858 364 -836Q342 -814 342 -782V-402Q342 -372 364 -350Q386 -328 418 -328H1024Q1056 -328 1078 -350Q1100 -372 1100 -402V-782Q1100 -814 1078 -836Q1056 -858 1024 -858ZM758 -1010H1214Q1228 -1010 1240 -999Q1252 -988 1252 -972V-516Q1252 -484 1274 -462Q1296 -440 1328 -440Q1360 -440 1382 -462Q1404 -484 1404 -516V-1086Q1404 -1118 1382 -1140Q1360 -1162 1328 -1162H758Q726 -1162 704 -1140Q682 -1118 682 -1086Q682 -1054 704 -1032Q726 -1010 758 -1010ZM1706 -782V-1390Q1706 -1420 1684 -1442Q1662 -1464 1630 -1464H1024Q992 -1464 970 -1442Q948 -1420 948 -1389Q948 -1358 970 -1336Q992 -1314 1024 -1314H1518Q1532 -1314 1543 -1303Q1554 -1292 1554 -1276V-782Q1554 -750 1576 -728Q1598 -706 1630 -706Q1662 -706 1684 -728Q1706 -750 1706 -782ZM304 -1920H1744Q1870 -1920 1959 -1831Q2048 -1742 2048 -1616V-176Q2048 -50 1959 39Q1870 128 1744 128H304Q178 128 89 39Q0 -50 0 -176V-1616Q0 -1742 89 -1831Q178 -1920 304 -1920Z"/>
</svg>