<svg xmlns="http://www.w3.org/2000/svg" viewBox="0 -1920 2048 2048">
	<path d="M848 -1328Q928 -1408 1024 -1408Q1120 -1408 1200 -1328Q1280 -1248 1280 -1152Q1280 -1056 1200 -976Q1120 -896 1024 -896Q928 -896 848 -976Q768 -1056 768 -1152Q768 -1248 848 -1328ZM1536 -1152Q1536 -1368 1388 -1516Q1240 -1664 1024 -1664Q808 -1664 660 -1516Q512 -1368 512 -1152Q512 -1120 528 -1056Q544 -992 544 -960Q548 -954 593 -861Q906 -214 945 -175Q984 -136 992 -132Q1000 -128 1024 -128Q1048 -128 1056 -132Q1064 -136 1085 -157Q1106 -178 1152 -259Q1198 -340 1254 -453Q1310 -566 1360 -667Q1410 -768 1455 -861Q1500 -954 1504 -960Q1504 -992 1520 -1056Q1536 -1120 1536 -1152ZM304 -1920H1744Q1870 -1920 1959 -1831Q2048 -1742 2048 -1616V-176Q2048 -50 1959 39Q1870 128 1744 128H304Q178 128 89 39Q0 -50 0 -176V-1616Q0 -1742 89 -1831Q178 -1920 304 -1920Z"/>
</svg>