<svg xmlns="http://www.w3.org/2000/svg" viewBox="0 -1920 2048 2048">
	<path d="M1102 4662L1086 4638H1084V4640Q1084 4654 1074 4666Q1070 4662 1070 4652H1068Q1066 4658 1059 4667Q1045 4685 1061 4698Q1077 4712 1082 4712V4710Q1068 4696 1082 4682Q1084 4678 1086 4672L1088 4670V4668Q1100 4688 1090 4702V4704H1092Q1110 4698 1110 4685Q1110 4672 1102 4662ZM1044 4620H1120Q1136 4620 1136 4636V4712Q1136 4728 1120 4728H1044Q1028 4728 1028 4712V4636Q1028 4620 1044 4620ZM1556 -704Q1556 -898 1394 -1116Q1282 -1264 1186 -1413Q1090 -1562 1085 -1571Q1080 -1580 1062 -1576Q1044 -1568 1044 -1549Q1044 -1530 1035 -1471Q1026 -1412 975 -1281Q924 -1150 842 -1046Q800 -1146 792 -1294Q788 -1314 770 -1318Q748 -1318 742 -1300Q714 -1210 546 -986Q422 -824 468 -658Q488 -578 547 -500Q645 -370 785 -284Q925 -197 970 -182Q990 -172 998 -188Q1010 -202 1000 -218Q836 -564 990 -742Q1094 -864 1110 -992Q1247 -757 1233 -596Q1222 -475 1179 -397Q1164 -370 1157 -357Q1150 -344 1160 -333Q1170 -322 1190 -326Q1356 -386 1456 -490Q1556 -594 1556 -704ZM304 -1920H1744Q1870 -1920 1959 -1831Q2048 -1742 2048 -1616V-176Q2048 -50 1959 39Q1870 128 1744 128H304Q178 128 89 39Q0 -50 0 -176V-1616Q0 -1742 89 -1831Q178 -1920 304 -1920Z"/>
</svg>