<svg xmlns="http://www.w3.org/2000/svg" viewBox="0 -1920 2048 2048">
	<path d="M872 -364H1592Q1624 -364 1646 -386Q1668 -408 1668 -440Q1668 -472 1646 -494Q1624 -516 1592 -516H872Q840 -516 818 -494Q796 -472 796 -440Q796 -408 818 -386Q840 -364 872 -364ZM413 -361Q446 -328 493 -328Q540 -328 573 -361Q606 -394 606 -441Q606 -488 573 -521Q540 -554 493 -554Q446 -554 413 -521Q380 -488 380 -441Q380 -394 413 -361ZM872 -820H1592Q1624 -820 1646 -842Q1668 -864 1668 -896Q1668 -928 1646 -950Q1624 -972 1592 -972H872Q840 -972 818 -950Q796 -928 796 -896Q796 -864 818 -842Q840 -820 872 -820ZM413 -816Q446 -782 493 -782Q540 -782 573 -816Q606 -850 606 -896Q606 -942 573 -976Q540 -1010 493 -1010Q446 -1010 413 -976Q380 -942 380 -896Q380 -850 413 -816ZM872 -1274H1592Q1624 -1274 1646 -1296Q1668 -1318 1668 -1350Q1668 -1382 1646 -1404Q1624 -1426 1592 -1426H872Q840 -1426 818 -1404Q796 -1382 796 -1350Q796 -1318 818 -1296Q840 -1274 872 -1274ZM413 -1271Q446 -1238 493 -1238Q540 -1238 573 -1271Q606 -1304 606 -1351Q606 -1398 573 -1431Q540 -1464 493 -1464Q446 -1464 413 -1431Q380 -1398 380 -1351Q380 -1304 413 -1271ZM304 -1920H1744Q1870 -1920 1959 -1831Q2048 -1742 2048 -1616V-176Q2048 -50 1959 39Q1870 128 1744 128H304Q178 128 89 39Q0 -50 0 -176V-1616Q0 -1742 89 -1831Q178 -1920 304 -1920Z"/>
</svg>