<svg xmlns="http://www.w3.org/2000/svg" viewBox="0 -1920 2048 2048">
	<path d="M1044 -1118Q1044 -1098 1052 -1058Q890 -1066 748 -1140Q606 -1214 506 -1336Q468 -1272 468 -1202Q468 -1062 586 -982Q526 -982 466 -1014V-1010Q466 -916 527 -843Q588 -770 680 -752Q652 -742 622 -742Q592 -742 560 -746Q586 -666 654 -614Q722 -562 808 -562Q662 -448 480 -448Q468 -448 447 -449Q426 -450 416 -450Q598 -334 797 -334Q996 -334 1143 -402Q1290 -470 1383 -580Q1476 -690 1527 -822Q1578 -954 1578 -1088Q1578 -1112 1576 -1122Q1658 -1182 1708 -1258Q1632 -1226 1556 -1218Q1638 -1268 1674 -1366Q1590 -1316 1504 -1302Q1426 -1384 1314 -1384Q1202 -1384 1123 -1306Q1044 -1228 1044 -1118ZM304 -1920H1744Q1870 -1920 1959 -1831Q2048 -1742 2048 -1616V-176Q2048 -50 1959 39Q1870 128 1744 128H304Q178 128 89 39Q0 -50 0 -176V-1616Q0 -1742 89 -1831Q178 -1920 304 -1920Z"/>
</svg>