<svg xmlns="http://www.w3.org/2000/svg" viewBox="0 -1920 2048 2048">
	<path d="M1332 -1458Q1154 -1458 1024 -1234Q973 -1316 945 -1345Q838 -1458 714 -1458Q590 -1458 497 -1356Q404 -1254 404 -1117Q404 -980 482 -825Q560 -670 664 -558Q768 -446 870 -372Q972 -298 1024 -298Q1076 -298 1177 -372Q1278 -446 1383 -558Q1488 -670 1565 -825Q1642 -980 1642 -1117Q1642 -1254 1550 -1356Q1458 -1458 1332 -1458ZM304 -1920H1744Q1870 -1920 1959 -1831Q2048 -1742 2048 -1616V-176Q2048 -50 1959 39Q1870 128 1744 128H304Q178 128 89 39Q0 -50 0 -176V-1616Q0 -1742 89 -1831Q178 -1920 304 -1920Z"/>
</svg>