<svg xmlns="http://www.w3.org/2000/svg" viewBox="0 -1920 2048 2048">
	<path d="M1374 -1100H1082L1254 -1494Q1266 -1518 1249 -1542Q1232 -1566 1208 -1566H898Q856 -1566 846 -1526L692 -880Q686 -856 702 -836Q718 -816 742 -816H942L832 -232Q826 -188 864 -174Q876 -170 882 -170Q912 -170 928 -196L1418 -1022Q1434 -1048 1419 -1074Q1404 -1100 1374 -1100ZM304 -1920H1744Q1870 -1920 1959 -1831Q2048 -1742 2048 -1616V-176Q2048 -50 1959 39Q1870 128 1744 128H304Q178 128 89 39Q0 -50 0 -176V-1616Q0 -1742 89 -1831Q178 -1920 304 -1920Z"/>
</svg>