<svg xmlns="http://www.w3.org/2000/svg" viewBox="0 -1920 2048 2048">
	<path d="M1366 -440V-554Q1366 -570 1355 -581Q1344 -592 1328 -592H796Q780 -592 769 -581Q758 -570 758 -554V-440Q758 -424 769 -413Q780 -402 796 -402H1328Q1344 -402 1355 -413Q1366 -424 1366 -440ZM1706 -820V-934Q1706 -950 1695 -961Q1684 -972 1668 -972H796Q780 -972 769 -960Q758 -948 758 -934V-820Q758 -804 769 -793Q780 -782 796 -782H1668Q1684 -782 1695 -793Q1706 -804 1706 -820ZM758 -1314V-1200Q758 -1186 769 -1175Q780 -1164 796 -1164H1480Q1496 -1164 1507 -1175Q1518 -1186 1518 -1200V-1314Q1518 -1330 1507 -1341Q1496 -1352 1480 -1352H796Q780 -1352 769 -1341Q758 -1330 758 -1314ZM606 -366V-1390Q606 -1406 595 -1416Q584 -1426 568 -1426H456Q440 -1426 429 -1416Q418 -1406 418 -1390V-366Q418 -328 456 -328H568Q606 -328 606 -366ZM304 -1920H1744Q1870 -1920 1959 -1831Q2048 -1742 2048 -1616V-176Q2048 -50 1959 39Q1870 128 1744 128H304Q178 128 89 39Q0 -50 0 -176V-1616Q0 -1742 89 -1831Q178 -1920 304 -1920Z"/>
</svg>