<svg xmlns="http://www.w3.org/2000/svg" viewBox="0 -1920 2048 2048">
	<path d="M1182 -312L848 -434Q840 -372 873 -317Q906 -262 967 -241Q1028 -220 1088 -240Q1148 -260 1182 -312ZM1432 -474Q1400 -656 1478 -867Q1556 -1078 1474 -1254Q1430 -1348 1346 -1410Q1365 -1449 1344 -1494Q1322 -1540 1277 -1556Q1232 -1572 1190 -1553Q1148 -1534 1132 -1492V-1488L1104 -1490Q964 -1490 851 -1400Q738 -1310 682 -1156Q650 -1064 593 -980Q536 -896 510 -869Q484 -842 459 -822Q434 -802 434 -770Q430 -740 448 -722Q466 -704 480 -698L1338 -386Q1354 -382 1373 -382Q1392 -382 1413 -403Q1434 -424 1434 -446Q1434 -468 1432 -474ZM304 -1920H1744Q1870 -1920 1959 -1831Q2048 -1742 2048 -1616V-176Q2048 -50 1959 39Q1870 128 1744 128H304Q178 128 89 39Q0 -50 0 -176V-1616Q0 -1742 89 -1831Q178 -1920 304 -1920Z"/>
</svg>