<svg xmlns="http://www.w3.org/2000/svg" viewBox="0 -1920 2048 2048">
	<path d="M1382 -260Q1428 -260 1462 -290Q1496 -320 1500 -366L1568 -1066Q1572 -1116 1541 -1154Q1510 -1192 1462 -1194L1364 -1204L1372 -1062L1402 -1060Q1424 -1056 1424 -1034L1364 -428Q1360 -402 1338 -406L970 -444Q954 -444 950 -460L806 -452Q798 -388 829 -351Q860 -314 910 -308L1372 -262L1376 -260ZM674 -568H680L1158 -594Q1206 -598 1238 -634Q1270 -670 1268 -718L1228 -1420Q1226 -1466 1192 -1499Q1158 -1532 1112 -1532H1110Q1108 -1530 1106 -1530L628 -1504Q580 -1500 548 -1465Q516 -1430 518 -1380L556 -678Q558 -632 593 -600Q628 -568 674 -568ZM304 -1920H1744Q1870 -1920 1959 -1831Q2048 -1742 2048 -1616V-176Q2048 -50 1959 39Q1870 128 1744 128H304Q178 128 89 39Q0 -50 0 -176V-1616Q0 -1742 89 -1831Q178 -1920 304 -1920Z"/>
</svg>