<svg xmlns="http://www.w3.org/2000/svg" viewBox="0 -1920 2048 2048">
	<path d="M1168 -1238V-1048H864V-1238Q864 -1300 909 -1345Q954 -1390 1016 -1390Q1078 -1390 1123 -1345Q1168 -1300 1168 -1238ZM1510 -478V-896Q1510 -960 1465 -1004Q1420 -1048 1358 -1048H1320V-1238Q1320 -1362 1231 -1451Q1142 -1540 1017 -1540Q892 -1540 802 -1451Q712 -1362 712 -1238V-1048H676Q612 -1048 568 -1004Q524 -960 524 -896V-478Q524 -416 569 -372Q614 -328 676 -328H1358Q1420 -328 1465 -372Q1510 -416 1510 -478ZM304 -1920H1744Q1870 -1920 1959 -1831Q2048 -1742 2048 -1616V-176Q2048 -50 1959 39Q1870 128 1744 128H304Q178 128 89 39Q0 -50 0 -176V-1616Q0 -1742 89 -1831Q178 -1920 304 -1920Z"/>
</svg>