<svg xmlns="http://www.w3.org/2000/svg" viewBox="0 -1920 2048 2048">
	<path d="M1024 -492Q1272 -492 1448 -635Q1624 -778 1624 -980Q1624 -1182 1448 -1326Q1272 -1470 1024 -1470Q776 -1470 600 -1326Q424 -1182 424 -981Q424 -780 600 -636L552 -334Q542 -302 574 -280Q588 -270 604 -270Q620 -270 630 -278L960 -496Q1004 -492 1024 -492ZM304 -1920H1744Q1870 -1920 1959 -1831Q2048 -1742 2048 -1616V-176Q2048 -50 1959 39Q1870 128 1744 128H304Q178 128 89 39Q0 -50 0 -176V-1616Q0 -1742 89 -1831Q178 -1920 304 -1920Z"/>
</svg>