<svg xmlns="http://www.w3.org/2000/svg" viewBox="0 -1920 2048 2048">
	<path transform="translate(70 40)" d="M1412 -1054L1024 -808Q1012 -798 990 -798Q968 -798 954 -806Q916 -824 916 -868V-1360Q916 -1404 954 -1423Q992 -1442 1024 -1420L1412 -1174Q1446 -1150 1446 -1114Q1446 -1078 1412 -1054ZM730 -716Q896 -550 1128 -550Q1360 -550 1526 -716Q1692 -882 1692 -1114Q1692 -1346 1526 -1512Q1360 -1678 1128 -1678Q896 -1678 730 -1512Q564 -1346 564 -1114Q564 -882 730 -716ZM1128 -340Q866 -340 660 -498L598 -434Q608 -346 548 -286L302 -38Q246 14 175 14Q104 14 52 -38Q0 -90 0 -163Q0 -236 52 -288L298 -534Q360 -594 446 -584L510 -646Q352 -856 352 -1114Q352 -1436 580 -1663Q808 -1890 1128 -1890Q1448 -1890 1676 -1663Q1904 -1436 1904 -1115Q1904 -794 1677 -567Q1450 -340 1128 -340Z"/>
</svg>