<svg xmlns="http://www.w3.org/2000/svg" viewBox="0 -1920 2048 2048">
	<path d="M1368 -360H1190Q1176 -302 1129 -265Q1082 -228 1021 -228Q960 -228 914 -265Q868 -302 856 -360H676Q614 -360 594 -413Q574 -466 616 -504Q672 -598 672 -766Q668 -998 794 -1124Q846 -1176 920 -1202Q924 -1242 954 -1269Q984 -1296 1024 -1296Q1064 -1296 1095 -1268Q1126 -1240 1128 -1200Q1196 -1176 1252 -1124Q1374 -998 1374 -766Q1374 -586 1430 -502Q1454 -478 1454 -444Q1454 -410 1429 -385Q1404 -360 1368 -360ZM1653 -760Q1601 -760 1576 -791Q1552 -822 1556 -856Q1570 -966 1521 -1065Q1472 -1164 1376 -1222Q1346 -1238 1337 -1272Q1328 -1306 1346 -1337Q1364 -1368 1397 -1376Q1430 -1384 1462 -1368Q1602 -1286 1673 -1141Q1744 -996 1724 -834Q1720 -802 1696 -781Q1672 -760 1653 -760ZM490 -856Q494 -822 470 -791Q446 -760 393 -760Q374 -760 350 -781Q326 -802 322 -834Q302 -996 373 -1141Q444 -1286 584 -1368Q616 -1384 649 -1376Q682 -1368 700 -1337Q718 -1306 709 -1272Q700 -1238 670 -1222Q574 -1164 525 -1065Q476 -966 490 -856ZM1956 -706H1946Q1912 -710 1890 -738Q1868 -766 1872 -800Q1900 -1014 1805 -1206Q1710 -1398 1524 -1506Q1494 -1522 1485 -1556Q1476 -1590 1494 -1621Q1512 -1652 1546 -1660Q1580 -1668 1610 -1652Q1840 -1518 1957 -1280Q2074 -1042 2040 -780Q2036 -748 2012 -727Q1988 -706 1956 -706ZM90 -706Q58 -706 34 -727Q10 -748 6 -780Q-28 -1042 89 -1280Q206 -1518 436 -1652Q466 -1668 500 -1660Q534 -1652 552 -1621Q570 -1590 561 -1556Q552 -1522 522 -1506Q336 -1398 241 -1206Q146 -1014 174 -800Q178 -766 156 -738Q134 -710 100 -706Z"/>
</svg>