<svg xmlns="http://www.w3.org/2000/svg" viewBox="0 -1920 2048 2048">
	<path transform="translate(0 42)" d="M1350 -892Q1346 -748 1252 -654Q1158 -560 1023 -560Q888 -560 794 -659Q700 -758 702 -892Q698 -1028 796 -1128Q886 -1224 1023 -1224Q1160 -1224 1253 -1131Q1346 -1038 1350 -892ZM1632 -1152H1776V-1344H1632ZM1540 -892Q1536 -1116 1386 -1268Q1236 -1420 1023 -1420Q810 -1420 660 -1263Q510 -1106 510 -892Q510 -678 660 -521Q810 -364 1023 -364Q1236 -364 1386 -516Q1536 -668 1540 -892ZM1790 -1592Q1896 -1592 1974 -1514Q2050 -1434 2048 -1326L2050 -392Q2046 -276 1969 -201Q1892 -126 1788 -126H262Q156 -126 80 -201Q4 -276 0 -392L2 -1326Q0 -1436 76 -1514Q152 -1592 260 -1592H550Q558 -1608 564 -1616L576 -1640L588 -1660Q596 -1672 598 -1678Q632 -1724 661 -1736Q690 -1748 738 -1748H1312Q1358 -1748 1388 -1736Q1418 -1724 1452 -1678Q1454 -1672 1462 -1660L1474 -1640Q1482 -1624 1488 -1616L1500 -1592Z"/>
</svg>