<svg xmlns="http://www.w3.org/2000/svg" viewBox="0 -1920 2048 2048">
	<path transform="translate(0 42)" d="M1692 -1238H1278V-634H1438V-826H1628V-984H1438V-1080H1692ZM1152 -1238H992V-634H1152ZM866 -738V-974H602V-862H714V-806Q678 -786 628 -786Q578 -786 533 -830Q488 -874 488 -937Q488 -1000 532 -1044Q576 -1088 640 -1088Q704 -1088 748 -1040L866 -1136Q776 -1238 645 -1238Q514 -1238 425 -1150Q336 -1062 336 -937Q336 -812 425 -723Q514 -634 645 -634Q776 -634 866 -738ZM254 -1748H1796Q1900 -1748 1975 -1674Q2050 -1600 2050 -1494V-380Q2050 -276 1975 -201Q1900 -126 1796 -126H254Q148 -126 74 -201Q0 -276 0 -380V-1494Q0 -1600 74 -1674Q148 -1748 254 -1748Z"/>
</svg>