<svg xmlns="http://www.w3.org/2000/svg" viewBox="0 -1920 2048 2048">
	<path transform="translate(140 45)" d="M844 -196Q810 -196 785 -221Q760 -246 760 -281Q760 -316 785 -340Q810 -364 844 -364H1520V-702Q1520 -738 1545 -763Q1570 -788 1604 -788Q1638 -788 1663 -763Q1688 -738 1688 -702V-364Q1688 -294 1639 -245Q1590 -196 1520 -196ZM0 -788V-1462Q0 -1532 49 -1582Q98 -1632 168 -1632H590Q626 -1632 651 -1607Q676 -1582 676 -1547Q676 -1512 651 -1487Q626 -1462 590 -1462H168V-788Q168 -752 143 -727Q118 -702 84 -702Q50 -702 25 -727Q0 -752 0 -788ZM1774 -1886Q1774 -1848 1739 -1785Q1704 -1722 1658 -1682Q1612 -1642 1513 -1571Q1414 -1500 1374 -1452Q1430 -1448 1515 -1471Q1600 -1494 1670 -1532Q1613 -1366 1472 -1282Q1398 -1238 1297 -1206Q1196 -1174 1144 -1116L1128 -1096Q1260 -1090 1406 -1144Q1382 -1034 1231 -952Q1080 -870 954 -854Q954 -852 952 -852Q714 -812 476 -430Q305 -152 252 -87Q198 -22 184 -27Q139 -43 210 -236Q328 -544 570 -902Q1130 -1738 1774 -1886Z"/>
</svg>