<svg xmlns="http://www.w3.org/2000/svg" viewBox="0 -1920 2048 2048">
	<path transform="translate(35 40)" d="M604 -1143Q690 -1228 811 -1228Q932 -1228 1017 -1143Q1102 -1058 1102 -937Q1102 -816 1017 -731Q932 -646 811 -646Q690 -646 604 -731Q518 -816 518 -937Q518 -1058 604 -1143ZM466 -593Q608 -450 810 -450Q1012 -450 1155 -593Q1298 -736 1298 -937Q1298 -1138 1155 -1281Q1012 -1424 810 -1424Q608 -1424 466 -1282Q324 -1140 324 -938Q324 -736 466 -593ZM1978 -1358V-516Q1978 -450 1918 -425Q1858 -400 1812 -446L1622 -638V-386Q1622 -278 1546 -202Q1470 -126 1362 -126H260Q152 -126 76 -202Q0 -278 0 -386V-1488Q0 -1596 76 -1672Q152 -1748 260 -1748H1362Q1470 -1748 1546 -1672Q1622 -1596 1622 -1488V-1236L1812 -1428Q1858 -1474 1918 -1449Q1978 -1424 1978 -1358Z"/>
</svg>