<svg xmlns="http://www.w3.org/2000/svg" viewBox="0 -1920 2048 2048">
	<path transform="translate(450 40)" d="M886 -1096L888 -1098Q906 -1138 908 -1162L914 -1196Q918 -1212 914 -1230Q916 -1368 815 -1471Q714 -1574 574 -1574Q434 -1574 333 -1475Q232 -1376 228 -1230Q228 -1208 232 -1196Q232 -1182 241 -1146Q250 -1110 258 -1098L256 -1096Q302 -1000 383 -944Q464 -888 573 -888Q682 -888 767 -948Q852 -1008 886 -1096ZM978 -1636Q1142 -1472 1146 -1230Q1138 -1107 1111 -1037Q1084 -966 1028 -850L894 -566Q708 -180 656 -120Q626 -90 611 -83Q596 -76 561 -76Q526 -76 490 -120Q464 -148 340 -389Q216 -630 116 -850L44 -1006Q40 -1024 18 -1090Q-4 -1156 0 -1230Q-2 -1466 166 -1634Q334 -1802 570 -1802Q806 -1802 978 -1636Z"/>
</svg>