<svg xmlns="http://www.w3.org/2000/svg" viewBox="0 -1920 2048 2048">
	<path transform="translate(0 42)" d="M702 -538Q586 -626 546 -720L544 -734Q544 -754 557 -767Q570 -780 585 -780Q600 -780 614 -772Q661 -731 787 -695Q912 -660 1024 -660Q1136 -660 1261 -695Q1386 -730 1434 -772Q1448 -780 1463 -780Q1478 -780 1491 -767Q1504 -754 1504 -734L1502 -720Q1462 -626 1346 -538Q1206 -428 1024 -428Q842 -428 702 -538ZM1206 -1084V-1192Q1206 -1238 1238 -1270Q1270 -1302 1315 -1302Q1360 -1302 1392 -1270Q1424 -1238 1424 -1192V-1084Q1424 -1038 1392 -1006Q1360 -974 1315 -974Q1270 -974 1238 -1006Q1206 -1038 1206 -1084ZM624 -1084V-1192Q624 -1238 656 -1270Q688 -1302 733 -1302Q778 -1302 810 -1270Q842 -1238 842 -1192V-1084Q842 -1038 810 -1006Q778 -974 733 -974Q688 -974 656 -1006Q624 -1038 624 -1084ZM1564 -1478Q1340 -1702 1024 -1702Q708 -1702 484 -1478Q260 -1254 260 -938Q260 -622 484 -398Q708 -174 1024 -174Q1340 -174 1564 -398Q1788 -622 1788 -938Q1788 -1254 1564 -1478ZM1718 -244Q1430 44 1024 44Q618 44 330 -244Q42 -532 42 -938Q42 -1344 330 -1632Q618 -1920 1024 -1920Q1430 -1920 1718 -1632Q2006 -1344 2006 -938Q2006 -532 1718 -244Z"/>
</svg>