<svg xmlns="http://www.w3.org/2000/svg" viewBox="0 -1920 2048 2048">
	<path transform="translate(0 42)" d="M396 56Q380 56 374 50Q370 50 362 46Q332 36 312 4Q294 -20 294 -58L292 -822Q292 -870 326 -904Q360 -938 407 -938Q454 -938 488 -904Q522 -870 522 -824V-320L786 -566Q825 -596 864 -596H1824V-1426H1124Q1078 -1426 1044 -1460Q1010 -1494 1010 -1541Q1010 -1588 1043 -1621Q1076 -1654 1124 -1654H1868Q1944 -1654 2000 -1602Q2052 -1546 2052 -1472V-550Q2052 -474 1999 -421Q1946 -368 1868 -368H910L486 26Q456 56 408 56ZM520 -1260Q520 -1212 487 -1179Q454 -1146 407 -1146Q360 -1146 326 -1180Q292 -1214 292 -1260V-1426H114Q68 -1426 34 -1460Q0 -1494 0 -1541Q0 -1588 33 -1621Q66 -1654 114 -1654H292V-1820Q292 -1862 324 -1898Q356 -1934 407 -1934Q458 -1934 489 -1899Q520 -1864 520 -1820V-1654H698Q748 -1654 780 -1622Q812 -1590 812 -1541Q812 -1492 779 -1459Q746 -1426 698 -1426H520Z"/>
</svg>