<svg xmlns="http://www.w3.org/2000/svg" viewBox="0 -1920 2048 2048">
	<path transform="translate(0 40)" d="M128 -1302H816Q866 -1302 903 -1267Q940 -1232 944 -1176Q940 -1120 904 -1085Q868 -1050 816 -1050H128Q76 -1050 40 -1085Q4 -1120 0 -1176Q4 -1232 41 -1267Q78 -1302 128 -1302ZM520 -150H522L36 -634Q-4 -674 0 -724Q0 -782 38 -814Q72 -850 126 -850Q180 -850 214 -814L612 -418L1830 -1638Q1872 -1676 1920 -1676Q1968 -1676 2010 -1638H2008Q2044 -1608 2046 -1553Q2048 -1498 2010 -1460L700 -150Q662 -112 610 -112Q558 -112 520 -150ZM126 -1764H1234Q1288 -1764 1324 -1725Q1360 -1686 1360 -1637Q1360 -1588 1324 -1550Q1288 -1512 1234 -1512H126Q72 -1512 38 -1550Q0 -1588 0 -1637Q0 -1686 36 -1725Q72 -1764 126 -1764Z"/>
</svg>