<svg xmlns="http://www.w3.org/2000/svg" viewBox="0 -1920 2048 2048">
	<path transform="translate(120 40)" d="M598 -294L1080 -118Q1030 -42 944 -13Q858 16 770 -16Q682 -48 635 -126Q588 -204 598 -294ZM1304 -226L68 -676Q44 -686 21 -711Q-2 -736 1 -781Q4 -826 38 -854H40Q228 -1017 342 -1290L1396 -236Q1370 -220 1346 -220Q1322 -220 1304 -226ZM1660 -174L90 -1744Q62 -1772 62 -1812Q62 -1852 90 -1880Q118 -1908 158 -1908Q198 -1908 226 -1880L1796 -310Q1824 -282 1824 -242Q1824 -202 1796 -174Q1768 -146 1730 -146Q1692 -146 1660 -174ZM968 -1816Q994 -1816 1008 -1814Q1031 -1882 1092 -1908Q1154 -1934 1218 -1911Q1282 -1888 1313 -1823Q1344 -1758 1316 -1702Q1436 -1614 1500 -1478Q1618 -1224 1504 -918Q1502 -912 1478 -834L614 -1696Q778 -1816 968 -1816Z"/>
</svg>