<svg xmlns="http://www.w3.org/2000/svg" viewBox="0 -1920 2048 2048">
	<path transform="translate(325 29)" d="M1032 -1772V-926Q960 -946 894 -946Q828 -946 618 -889Q408 -832 300 -832H298Q158 -832 40 -896Q0 -920 0 -962V-1660Q0 -1702 38 -1726Q72 -1744 110 -1726Q196 -1678 288 -1678Q380 -1678 588 -1732Q800 -1792 886 -1792Q972 -1792 1032 -1772ZM1400 -1808V-42Q1400 4 1368 37Q1336 70 1290 70Q1244 70 1211 37Q1178 4 1178 -42V-1808Q1178 -1854 1211 -1887Q1244 -1920 1290 -1920Q1336 -1920 1368 -1887Q1400 -1854 1400 -1808Z"/>
</svg>