<svg xmlns="http://www.w3.org/2000/svg" viewBox="0 -1920 2048 2048">
	<path transform="translate(0 42)" d="M1398 -890L870 -520Q858 -508 840 -508Q822 -508 816 -514Q802 -514 790 -531Q778 -548 778 -568V-1310Q778 -1344 810 -1362Q818 -1368 837 -1368Q856 -1368 870 -1358L1398 -986Q1414 -974 1418 -966Q1422 -958 1422 -933Q1422 -908 1398 -890ZM1582 -1496Q1348 -1726 1023 -1726Q698 -1726 467 -1495Q236 -1264 236 -937Q236 -610 468 -382Q696 -150 1023 -150Q1350 -150 1581 -381Q1812 -612 1812 -937Q1812 -1262 1582 -1496ZM629 -1883Q816 -1962 1024 -1962Q1232 -1962 1419 -1883Q1606 -1804 1748 -1663Q1890 -1522 1969 -1334Q2048 -1146 2048 -938Q2048 -730 1969 -544Q1890 -358 1748 -216Q1606 -74 1419 6Q1232 86 1024 86Q816 86 629 6Q442 -74 301 -215Q160 -356 80 -543Q0 -730 0 -938Q0 -1146 80 -1334Q160 -1522 301 -1663Q442 -1804 629 -1883Z"/>
</svg>
