<svg xmlns="http://www.w3.org/2000/svg" viewBox="0 -1920 2048 2048">
	<path transform="translate(0 40)" d="M1130 -625Q1174 -580 1174 -518Q1174 -456 1130 -412Q1086 -368 1024 -368Q962 -368 917 -412Q872 -456 872 -518Q872 -580 916 -625Q960 -670 1023 -670Q1086 -670 1130 -625ZM1098 -806Q1084 -746 1024 -746Q964 -746 950 -806Q834 -1296 834 -1355Q834 -1414 884 -1459Q934 -1504 1023 -1504Q1112 -1504 1162 -1459Q1212 -1414 1212 -1360Q1212 -1306 1098 -806ZM1587 -1499Q1354 -1732 1024 -1732Q694 -1732 461 -1499Q228 -1266 228 -936Q228 -606 461 -373Q694 -140 1024 -140Q1354 -140 1587 -373Q1820 -606 1820 -936Q1820 -1266 1587 -1499ZM627 -1879Q816 -1960 1024 -1960Q1232 -1960 1421 -1879Q1610 -1798 1748 -1660Q1886 -1522 1967 -1333Q2048 -1144 2048 -936Q2048 -728 1967 -539Q1886 -350 1748 -212Q1610 -74 1421 7Q1232 88 1024 88Q816 88 627 7Q438 -74 300 -212Q162 -350 81 -539Q0 -728 0 -936Q0 -1144 81 -1333Q162 -1522 300 -1660Q438 -1798 627 -1879Z"/>
</svg>