<svg xmlns="http://www.w3.org/2000/svg" viewBox="0 -1920 2048 2048">
	<path transform="translate(0 40)" d="M900 -482Q862 -482 830 -514L602 -742Q568 -776 568 -822Q568 -868 602 -902Q636 -936 683 -936Q730 -936 764 -902L892 -774L1232 -1302Q1258 -1342 1304 -1352Q1350 -1362 1390 -1335Q1430 -1308 1439 -1263Q1448 -1218 1422 -1178Q1204 -838 1082 -652L1006 -534Q980 -482 900 -482ZM461 -373Q694 -140 1024 -140Q1354 -140 1587 -373Q1820 -606 1820 -936Q1820 -1266 1587 -1499Q1354 -1732 1024 -1732Q694 -1732 461 -1499Q228 -1266 228 -936Q228 -606 461 -373ZM627 -1879Q816 -1960 1024 -1960Q1232 -1960 1421 -1879Q1610 -1798 1748 -1660Q1886 -1522 1967 -1333Q2048 -1144 2048 -936Q2048 -728 1967 -539Q1886 -350 1748 -212Q1610 -74 1421 7Q1232 88 1024 88Q816 88 627 7Q438 -74 300 -212Q162 -350 81 -539Q0 -728 0 -936Q0 -1144 81 -1333Q162 -1522 300 -1660Q438 -1798 627 -1879Z"/>
</svg>