<svg xmlns="http://www.w3.org/2000/svg" viewBox="0 -1920 2048 2048">
	<path transform="translate(0 40)" d="M1346 -1100L1184 -938L1346 -778Q1380 -744 1380 -696Q1380 -648 1346 -616Q1312 -584 1265 -584Q1218 -584 1184 -616L1024 -778L862 -616Q828 -584 782 -584Q736 -584 702 -616Q668 -648 668 -696Q668 -744 702 -778L862 -938L702 -1100Q668 -1132 668 -1180Q668 -1228 702 -1260Q736 -1292 782 -1292Q828 -1292 862 -1260L1024 -1100L1184 -1260Q1218 -1292 1265 -1292Q1312 -1292 1346 -1260Q1380 -1228 1380 -1180Q1380 -1132 1346 -1100ZM1587 -1499Q1354 -1732 1024 -1732Q694 -1732 461 -1499Q228 -1266 228 -936Q228 -606 461 -373Q694 -140 1024 -140Q1354 -140 1587 -373Q1820 -606 1820 -936Q1820 -1266 1587 -1499ZM627 -1879Q816 -1960 1024 -1960Q1232 -1960 1421 -1879Q1610 -1798 1748 -1660Q1886 -1522 1967 -1333Q2048 -1144 2048 -936Q2048 -728 1967 -539Q1886 -350 1748 -212Q1610 -74 1421 7Q1232 88 1024 88Q816 88 627 7Q438 -74 300 -212Q162 -350 81 -539Q0 -728 0 -936Q0 -1144 81 -1333Q162 -1522 300 -1660Q438 -1798 627 -1879Z"/>
</svg>