<svg xmlns="http://www.w3.org/2000/svg" viewBox="0 -1920 2048 2048">
	<path transform="translate(252 48)" d="M1542 -298Q1542 -254 1501 -213Q1460 -172 1415 -172Q1370 -172 1348 -181Q1326 -190 1304 -212L772 -746L238 -212Q216 -190 195 -181Q174 -172 127 -172Q80 -172 42 -214Q0 -252 0 -312Q0 -340 12 -368Q24 -396 42 -408L574 -942L42 -1476Q0 -1514 0 -1574Q0 -1634 41 -1673Q82 -1712 127 -1712Q198 -1712 238 -1672L772 -1138L1304 -1672Q1344 -1712 1401 -1712Q1458 -1712 1500 -1672Q1542 -1632 1542 -1587Q1542 -1516 1502 -1476L968 -942L1502 -408Q1542 -378 1542 -298Z"/>
</svg>