<svg xmlns="http://www.w3.org/2000/svg" viewBox="0 -1920 2048 2048">
	<path transform="translate(152 42)" d="M1748 -142Q1748 -110 1723 -87Q1698 -64 1670 -64H1064Q1034 -64 1011 -87Q988 -110 988 -142V-748Q988 -780 1010 -802Q1032 -824 1064 -824H1670Q1700 -824 1724 -802Q1748 -780 1748 -748ZM760 -142Q760 -110 735 -87Q710 -64 682 -64H76Q46 -64 23 -87Q0 -110 0 -142V-748Q0 -780 22 -802Q44 -824 76 -824H682Q712 -824 736 -802Q760 -780 760 -748ZM1748 -1130Q1748 -1098 1725 -1075Q1702 -1052 1670 -1052H1064Q1032 -1052 1010 -1075Q988 -1098 988 -1130V-1736Q988 -1768 1010 -1790Q1032 -1812 1064 -1812H1670Q1700 -1812 1724 -1790Q1748 -1768 1748 -1736ZM760 -1130Q760 -1098 737 -1075Q714 -1052 682 -1052H76Q44 -1052 22 -1075Q0 -1098 0 -1130V-1736Q0 -1768 22 -1790Q44 -1812 76 -1812H682Q712 -1812 736 -1790Q760 -1768 760 -1736Z"/>
</svg>