<svg xmlns="http://www.w3.org/2000/svg" viewBox="0 -1920 2048 2048">
	<path transform="translate(0 42)" d="M1434 -772Q1387 -731 1261 -695Q1136 -660 1024 -660Q912 -660 787 -695Q662 -730 614 -772Q600 -780 585 -780Q570 -780 557 -767Q544 -754 544 -734L546 -720Q586 -626 702 -538Q842 -428 1024 -428Q1206 -428 1346 -538Q1462 -626 1502 -720L1504 -734Q1504 -754 1491 -767Q1478 -780 1463 -780Q1448 -780 1434 -772ZM1424 -1084V-1192Q1424 -1238 1392 -1270Q1360 -1302 1315 -1302Q1270 -1302 1238 -1270Q1206 -1238 1206 -1192V-1084Q1206 -1038 1238 -1006Q1270 -974 1315 -974Q1360 -974 1392 -1006Q1424 -1038 1424 -1084ZM842 -1084V-1192Q842 -1238 810 -1270Q778 -1302 733 -1302Q688 -1302 656 -1270Q624 -1238 624 -1192V-1084Q624 -1038 656 -1006Q688 -974 733 -974Q778 -974 810 -1006Q842 -1038 842 -1084ZM1718 -244Q1430 44 1024 44Q618 44 330 -244Q42 -532 42 -938Q42 -1344 330 -1632Q618 -1920 1024 -1920Q1430 -1920 1718 -1632Q2006 -1344 2006 -938Q2006 -532 1718 -244Z"/>
</svg>