<svg xmlns="http://www.w3.org/2000/svg" viewBox="0 -1920 2048 2048">
	<path transform="translate(34.5 40)" d="M1180 -1016Q1180 -1102 1132 -1160Q1082 -1216 986 -1216Q890 -1216 814 -1126Q738 -1036 738 -928Q738 -820 792 -760Q840 -702 937 -702Q1034 -702 1107 -793Q1180 -884 1180 -1016ZM1690 -672Q1770 -756 1770 -938Q1770 -1258 1542 -1486Q1314 -1714 993 -1714Q672 -1714 444 -1486Q216 -1258 216 -936Q216 -614 446 -388Q676 -162 994 -162Q1222 -162 1410 -286Q1430 -306 1464 -306Q1529 -306 1557 -264Q1584 -222 1578 -180Q1572 -138 1532 -108Q1295 54 994 54Q586 54 292 -236Q154 -372 77 -554Q0 -736 0 -937Q0 -1138 77 -1320Q154 -1502 292 -1640Q430 -1778 611 -1854Q792 -1930 994 -1930Q1196 -1930 1377 -1854Q1558 -1778 1696 -1640Q1834 -1502 1910 -1321Q1986 -1140 1986 -938Q1986 -656 1800 -528Q1678 -442 1528 -442Q1273 -442 1170 -580Q1025 -460 859 -460Q692 -460 579 -591Q466 -722 466 -904Q466 -1138 604 -1294Q742 -1450 941 -1450Q1140 -1450 1242 -1326Q1288 -1409 1380 -1396Q1424 -1396 1463 -1350Q1502 -1304 1492 -1224L1416 -798Q1396 -684 1456 -638Q1490 -612 1561 -612Q1632 -612 1690 -672Z"/>
</svg>