<svg xmlns="http://www.w3.org/2000/svg" viewBox="0 -1920 2048 2048">
	<path transform="translate(100 40)" d="M1722 -1066Q1772 -1066 1812 -1030Q1848 -990 1848 -939Q1848 -888 1812 -848Q1774 -810 1722 -810H1514L1508 -818L1266 -1066ZM1292 -458Q1228 -458 1192 -494L1090 -636V-104Q1090 -52 1033 -4Q976 44 922 44Q868 44 808 -6Q748 -56 748 -104V-636L656 -494Q620 -458 580 -458Q540 -458 518 -468Q442 -503 442 -584Q442 -636 480 -672L836 -1028Q848 -1044 875 -1055Q902 -1066 924 -1066Q946 -1066 973 -1055Q1000 -1044 1012 -1028L1368 -672Q1406 -636 1406 -583Q1406 -530 1369 -494Q1332 -458 1292 -458ZM126 -810Q72 -810 38 -848Q0 -886 0 -939Q0 -992 37 -1029Q74 -1066 126 -1066H582L360 -840L342 -818L334 -810ZM126 -1492H1722Q1772 -1492 1812 -1456Q1848 -1416 1848 -1365Q1848 -1314 1811 -1277Q1774 -1240 1722 -1240H126Q72 -1240 38 -1278Q0 -1312 0 -1365Q0 -1418 37 -1455Q74 -1492 126 -1492ZM1722 -1668H126Q72 -1668 36 -1705Q0 -1742 0 -1793Q0 -1844 37 -1881Q74 -1918 126 -1918H1722Q1772 -1918 1812 -1882Q1848 -1842 1848 -1793Q1848 -1744 1812 -1706Q1776 -1668 1722 -1668Z"/>
</svg>