<svg xmlns="http://www.w3.org/2000/svg" viewBox="0 -1920 2048 2048">
	<path transform="translate(90 35)" d="M720 -738H1110L1150 -1132H758ZM518 0H504Q448 -2 410 -52Q374 -92 378 -154L410 -458H140Q80 -458 42 -500Q0 -538 0 -597Q0 -656 41 -697Q82 -738 140 -738H438L478 -1132H204Q144 -1132 106 -1174Q64 -1212 64 -1271Q64 -1330 105 -1371Q146 -1412 204 -1412H506L538 -1744Q546 -1804 589 -1839Q632 -1874 690 -1871Q748 -1868 785 -1823Q822 -1778 818 -1716L788 -1412H1178L1212 -1744Q1214 -1798 1260 -1835Q1306 -1872 1363 -1870Q1420 -1868 1459 -1820Q1498 -1772 1490 -1716L1460 -1412H1730Q1786 -1412 1830 -1372Q1870 -1328 1870 -1271Q1870 -1214 1829 -1173Q1788 -1132 1730 -1132H1432L1392 -738H1666Q1722 -738 1766 -698Q1806 -654 1806 -597Q1806 -540 1765 -499Q1724 -458 1666 -458H1364L1330 -126Q1328 -74 1288 -37Q1248 0 1192 0H1178Q1122 -2 1084 -52Q1044 -98 1052 -154L1082 -458H692L658 -126Q650 -70 613 -35Q576 0 518 0Z"/>
</svg>