<svg xmlns="http://www.w3.org/2000/svg" viewBox="0 -1920 2048 2048">
	<path transform="translate(5 100)" d="M938 -606Q904 -572 904 -526Q904 -480 938 -446Q974 -414 1020 -414Q1066 -414 1100 -445Q1134 -476 1134 -526Q1134 -576 1100 -607Q1066 -638 1020 -638Q974 -638 938 -606ZM1182 -928Q1250 -992 1250 -1085Q1250 -1178 1183 -1245Q1116 -1312 1020 -1312Q924 -1312 857 -1247Q790 -1182 790 -1086Q790 -990 858 -928Q920 -862 1020 -862Q1120 -862 1182 -928ZM1846 -900L1784 -958L1570 -162Q1562 -128 1533 -102Q1504 -76 1458 -76H580Q536 -76 507 -102Q478 -128 470 -162L256 -958L192 -900Q154 -870 108 -871Q62 -872 28 -904Q-4 -938 -2 -984Q0 -1030 34 -1064L940 -1886Q974 -1918 1019 -1918Q1064 -1918 1098 -1886L2004 -1064Q2038 -1032 2040 -985Q2042 -938 2017 -912Q1977 -870 1931 -870Q1885 -870 1846 -900Z"/>
</svg>