<svg xmlns="http://www.w3.org/2000/svg" viewBox="0 -1920 2048 2048">
	<path transform="translate(120 40)" d="M860 22Q818 22 770 6Q684 -26 636 -106Q586 -180 598 -272L1080 -96Q1060 -62 1022 -32Q946 22 860 22ZM968 -1794H1000Q1002 -1792 1008 -1792Q1031 -1860 1092 -1886Q1154 -1912 1219 -1888Q1284 -1864 1312 -1805Q1340 -1746 1318 -1680Q1554 -1494 1558 -1187Q1560 -1036 1514 -914Q1408 -632 1434 -402Q1436 -352 1440 -330Q1444 -326 1444 -316V-302Q1444 -258 1414 -228Q1384 -198 1342 -198H1332Q1324 -198 1306 -204L68 -654L40 -672Q23 -681 11 -706Q0 -732 0 -758Q9 -814 40 -832L76 -864Q264 -1052 352 -1294Q440 -1536 601 -1665Q762 -1794 968 -1794Z"/>
</svg>