<svg xmlns="http://www.w3.org/2000/svg" viewBox="0 -1920 2048 2048">
	<path transform="translate(80 30)" d="M1268 -572Q1332 -558 1538 -505Q1744 -452 1782 -428L1784 -426Q1846 -392 1866 -340Q1906 -238 1880 -138L1870 -92Q1868 -82 1862 -78Q1856 -74 1849 -58Q1842 -42 1838 -42H50Q46 -42 39 -58Q32 -74 26 -78Q20 -82 18 -92L8 -138Q-2 -184 0 -232Q4 -376 104 -426L106 -428Q144 -452 350 -505Q556 -558 620 -572Q764 -406 944 -406Q1124 -406 1268 -572ZM970 -1810H990Q1140 -1804 1222 -1728Q1372 -1586 1392 -1396L1400 -1322Q1418 -1322 1434 -1306Q1466 -1270 1455 -1182Q1444 -1094 1396 -1032Q1348 -970 1308 -970L1284 -908Q1260 -852 1212 -772Q1084 -572 944 -572Q860 -572 792 -634Q670 -746 606 -908L580 -970Q560 -970 538 -988Q486 -1024 451 -1111Q416 -1198 432 -1257Q448 -1316 478 -1320L488 -1322L496 -1384Q502 -1450 528 -1520Q590 -1716 724 -1734Q810 -1810 970 -1810Z"/>
</svg>