<svg xmlns="http://www.w3.org/2000/svg" viewBox="0 -1920 2048 2048">
	<path transform="translate(52 40)" d="M1394 -1106Q1394 -1352 1222 -1524Q1050 -1696 805 -1696Q560 -1696 387 -1523Q214 -1350 214 -1106Q214 -862 387 -689Q560 -516 806 -516Q1052 -516 1222 -690Q1302 -768 1348 -876Q1394 -984 1394 -1106ZM1610 -1106Q1610 -848 1448 -622L1536 -534Q1638 -542 1700 -480L1890 -290Q1946 -234 1946 -155Q1946 -76 1890 -20Q1834 36 1756 36Q1670 36 1622 -20L1430 -210Q1394 -248 1382 -294Q1370 -340 1378 -374L1288 -464Q1073 -302 804 -302Q640 -302 491 -364Q342 -426 236 -538Q124 -644 62 -793Q0 -942 0 -1106Q0 -1440 236 -1676Q472 -1912 803 -1912Q1134 -1912 1374 -1676Q1610 -1436 1610 -1106Z"/>
</svg>