<svg xmlns="http://www.w3.org/2000/svg" viewBox="0 -1920 2048 2048">
	<path transform="translate(56 72)" d="M1108 -508Q1250 -556 1336 -660Q1448 -790 1448 -968Q1448 -1058 1414 -1148Q1344 -1326 1156 -1410Q1144 -1416 1066 -1438Q1024 -1446 968 -1446Q826 -1446 707 -1369Q588 -1292 528 -1154Q490 -1062 490 -971Q490 -880 524 -792Q593 -612 782 -526Q810 -512 874 -500Q918 -488 976 -488Q1034 -488 1108 -508ZM1086 -230Q1006 -220 976 -220Q946 -220 929 -221Q895 -223 870 -228L838 -232L736 -62Q706 -6 638 -6H628Q618 -6 615 -7L594 -14L544 -36Q510 -50 488 -90Q466 -130 480 -172L532 -362Q404 -468 358 -542L164 -492Q162 -490 158 -490H150Q148 -488 142 -488H136Q96 -488 67 -510Q38 -532 28 -558L10 -608Q-6 -652 8 -691Q22 -730 60 -752L232 -848Q222 -900 222 -969Q222 -1038 234 -1098L64 -1200Q-18 -1255 16 -1344L34 -1392Q58 -1434 95 -1452Q132 -1470 170 -1458L364 -1406Q451 -1521 542 -1580L494 -1772Q484 -1810 503 -1852Q522 -1894 560 -1906L608 -1928Q630 -1936 649 -1936Q721 -1936 750 -1878L850 -1706Q856 -1708 866 -1708L908 -1712L968 -1714H1002L1068 -1708Q1080 -1704 1100 -1704L1200 -1874Q1216 -1892 1237 -1911Q1258 -1930 1292 -1930Q1326 -1930 1344 -1922L1392 -1900Q1434 -1884 1452 -1846Q1470 -1800 1460 -1762L1406 -1572Q1452 -1538 1502 -1490Q1532 -1458 1580 -1394L1772 -1444Q1866 -1470 1908 -1374L1928 -1326Q1938 -1308 1938 -1286Q1938 -1264 1925 -1233Q1912 -1202 1878 -1182L1704 -1084Q1712 -1046 1712 -967Q1712 -888 1702 -838L1874 -736Q1892 -726 1911 -701Q1930 -676 1930 -646Q1930 -616 1920 -592L1902 -544Q1890 -516 1859 -495Q1828 -474 1796 -474H1780Q1776 -474 1764 -478L1574 -532Q1522 -464 1492 -434Q1442 -386 1394 -356L1446 -164Q1456 -120 1438 -82Q1420 -44 1376 -28L1328 -8Q1320 0 1296 0H1286Q1252 0 1230 -18Q1198 -32 1184 -58Z"/>
</svg>