<svg xmlns="http://www.w3.org/2000/svg" viewBox="0 -1920 2048 2048">
	<path transform="translate(260 42)" d="M816 -1876Q816 -1908 852 -1908Q864 -1908 880 -1892L914 -1836Q928 -1812 1049 -1629Q1170 -1446 1302 -1270Q1594 -867 1508 -588Q1419 -297 956 -130Q954 -128 939 -128Q924 -128 920 -140Q912 -148 910 -158Q908 -168 924 -192Q1032 -390 1048 -530Q1082 -806 906 -1096Q894 -1008 859 -929Q824 -850 742 -750Q658 -658 646 -538Q624 -320 710 -122Q732 -68 754 -24L758 -20Q762 -12 762 -8V-2Q762 12 752 22Q742 32 728 32H724Q722 32 720 30H714Q702 26 603 -25Q504 -76 394 -158Q82 -380 14 -632Q-41 -870 124 -1088Q260 -1270 320 -1374Q380 -1478 388 -1500L398 -1526Q409 -1547 422 -1550Q464 -1550 464 -1518Q478 -1303 536 -1170Q628 -1288 688 -1420Q788 -1646 808 -1810Q816 -1866 816 -1876Z"/>
</svg>