<svg xmlns="http://www.w3.org/2000/svg" viewBox="0 -1920 2048 2048">
	<path d="M1070 -330H978Q962 -330 950 -317Q938 -304 938 -286Q938 -268 950 -256Q962 -244 978 -244H1070Q1086 -244 1098 -256Q1110 -268 1110 -286Q1110 -304 1098 -317Q1086 -330 1070 -330ZM1848 -1466H198Q188 -1466 179 -1458Q170 -1450 170 -1438V-442Q170 -432 179 -423Q188 -414 198 -414H1848Q1860 -414 1868 -423Q1876 -432 1876 -442V-1438Q1876 -1466 1848 -1466ZM0 -278V-1518Q0 -1568 35 -1603Q70 -1638 120 -1638H1928Q1978 -1638 2013 -1603Q2048 -1568 2048 -1518V-278Q2048 -228 2015 -193Q1982 -158 1934 -158H114Q66 -158 33 -193Q0 -228 0 -278Z"/>
</svg>