<svg xmlns="http://www.w3.org/2000/svg" viewBox="0 -1920 2048 2048">
	<path transform="translate(28 0)" d="M1822 -682V-1366Q1822 -1394 1792 -1394H200Q170 -1394 170 -1366V-682Q170 -672 179 -663Q188 -654 200 -654H1792Q1804 -654 1813 -663Q1822 -672 1822 -682ZM142 -1566H1850Q1908 -1566 1950 -1524Q1992 -1482 1992 -1422V-626Q1992 -568 1950 -526Q1908 -484 1850 -484H1128L1216 -342H1508Q1532 -342 1549 -325Q1566 -308 1566 -284Q1566 -260 1549 -244Q1532 -228 1508 -228H484Q460 -228 443 -244Q426 -260 426 -284Q426 -308 443 -325Q460 -342 484 -342H776L864 -484H142Q84 -484 42 -526Q0 -568 0 -626V-1422Q0 -1482 42 -1524Q84 -1566 142 -1566Z"/>
</svg>