<svg xmlns="http://www.w3.org/2000/svg" viewBox="0 -1920 2048 2048">
	<path transform="translate(55 0)" d="M370 -1408H1424Q1636 -1408 1786 -1258Q1936 -1108 1936 -896Q1936 -684 1786 -534Q1636 -384 1424 -384H684Q648 -384 623 -409Q598 -434 598 -469Q598 -504 623 -529Q648 -554 684 -554H1424Q1564 -554 1664 -654Q1764 -754 1764 -896Q1764 -1038 1664 -1138Q1564 -1238 1424 -1238H370Q288 -1238 230 -1179Q172 -1120 172 -1038Q172 -956 230 -898Q288 -840 370 -840H1252Q1276 -840 1293 -856Q1310 -872 1310 -896Q1310 -920 1293 -936Q1276 -952 1252 -952H656Q620 -952 595 -978Q570 -1004 570 -1039Q570 -1074 595 -1099Q620 -1124 656 -1124H1252Q1346 -1124 1413 -1057Q1480 -990 1480 -896Q1480 -802 1413 -735Q1346 -668 1252 -668H370Q216 -668 108 -776Q0 -884 0 -1038Q0 -1192 108 -1300Q216 -1408 370 -1408Z"/>
</svg>