<svg xmlns="http://www.w3.org/2000/svg" viewBox="0 -1920 2048 2048">
	<path transform="translate(65 44)" d="M1788 -940Q1788 -1120 1712 -1284Q1636 -1448 1498 -1568L1388 -1588L1174 -1600L1146 -1526L1236 -1438L1318 -1340L1214 -1198L1330 -1088L1562 -988L1714 -736L1760 -734Q1788 -824 1788 -940ZM972 -1632L946 -1766Q678 -1764 460 -1599Q242 -1434 168 -1184L240 -1164L496 -1044L462 -934L510 -786L626 -692L682 -302L742 -216L938 -598L1102 -740L1076 -900L858 -1094L610 -1066L344 -1248L476 -1262L554 -1418L888 -1598ZM282 -262Q150 -392 75 -569Q0 -746 0 -942Q0 -1138 75 -1314Q150 -1490 281 -1619Q412 -1748 592 -1824Q772 -1900 966 -1900Q1160 -1900 1334 -1822Q1408 -1790 1498 -1734Q1732 -1570 1843 -1311Q1920 -1132 1920 -939Q1920 -746 1844 -569Q1768 -392 1637 -260Q1506 -128 1328 -54Q1150 20 961 20Q772 20 592 -54Q412 -128 282 -262Z"/>
</svg>