<svg xmlns="http://www.w3.org/2000/svg" viewBox="0 -1920 2048 2048">
	<path transform="translate(130 0)" d="M100 -388H1690Q1732 -388 1760 -359Q1788 -330 1788 -288Q1788 -246 1759 -217Q1730 -188 1690 -188H100Q60 -188 30 -217Q0 -246 0 -288Q0 -330 29 -359Q58 -388 100 -388ZM404 -722H1388Q1354 -912 1218 -1032Q1082 -1152 895 -1152Q708 -1152 572 -1031Q436 -910 404 -722ZM1494 -520H296Q256 -520 228 -549Q200 -578 200 -622Q200 -906 366 -1105Q532 -1304 794 -1340V-1416Q754 -1416 725 -1445Q696 -1474 696 -1515Q696 -1556 725 -1585Q754 -1614 794 -1614H996Q1036 -1614 1066 -1585Q1096 -1556 1096 -1515Q1096 -1474 1066 -1445Q1036 -1416 996 -1416V-1340Q1258 -1304 1426 -1104Q1594 -904 1594 -622Q1594 -580 1565 -550Q1536 -520 1494 -520Z"/>
</svg>