<svg xmlns="http://www.w3.org/2000/svg" viewBox="0 -1920 2048 2048">
	<path transform="translate(400 45)" d="M902 -614L992 -656Q1018 -668 1044 -659Q1070 -650 1082 -626L1240 -296Q1250 -272 1241 -246Q1232 -220 1208 -208L1118 -164ZM194 -1708L224 -1724L440 -1274L350 -1232Q324 -1220 315 -1194Q306 -1168 318 -1144L604 -544Q616 -520 642 -511Q668 -502 694 -514L784 -556L998 -108L968 -92Q736 -54 507 -217Q278 -380 132 -685Q-14 -990 2 -1271Q18 -1552 194 -1708ZM344 -1780L434 -1824Q458 -1836 484 -1827Q510 -1818 522 -1792L680 -1464Q692 -1438 683 -1412Q674 -1386 648 -1376L558 -1332Z"/>
</svg>