<svg xmlns="http://www.w3.org/2000/svg" viewBox="0 -1920 2048 2048">
	<path transform="translate(259 42)" d="M310 -1080H312Q354 -1080 384 -1110Q414 -1140 416 -1182Q416 -1278 500 -1358Q614 -1468 760 -1462Q802 -1460 834 -1490Q866 -1520 868 -1563Q870 -1606 841 -1637Q812 -1668 768 -1672Q662 -1676 551 -1633Q440 -1590 356 -1510Q210 -1370 206 -1186Q206 -1142 236 -1111Q266 -1080 310 -1080ZM940 -138Q968 -138 989 -118Q1010 -98 1010 -69Q1010 -40 989 -20Q968 0 940 0H592Q564 0 543 -20Q522 -40 522 -69Q522 -98 543 -118Q564 -138 592 -138H708Q672 -178 564 -286Q359 -491 197 -700Q0 -954 0 -1184Q0 -1492 221 -1686Q442 -1880 766 -1880Q1090 -1880 1311 -1686Q1532 -1492 1532 -1184Q1532 -957 1333 -700Q1178 -500 1017 -339Q856 -178 820 -138Z"/>
</svg>