<svg xmlns="http://www.w3.org/2000/svg" viewBox="0 -1920 2048 2048">
	<path transform="translate(0 50)" d="M2020 -224Q1988 -192 1948 -194L660 -192Q614 -196 586 -227Q558 -258 558 -299Q558 -340 588 -370Q622 -400 660 -398L1948 -400Q1996 -396 2023 -366Q2050 -336 2050 -293Q2050 -250 2020 -224ZM176 -124Q102 -128 53 -177Q4 -226 4 -299Q4 -372 56 -420Q108 -468 176 -466Q245 -471 298 -418V-416Q348 -370 348 -300Q348 -230 299 -179Q250 -128 176 -124ZM658 -1040L1946 -1038Q1984 -1040 2016 -1010Q2048 -980 2048 -940Q2048 -900 2020 -869Q1992 -838 1946 -834L658 -836Q618 -834 586 -866Q556 -892 556 -934Q556 -976 583 -1006Q610 -1036 658 -1040ZM174 -1110Q261 -1102 296 -1058V-1060Q346 -1004 346 -935Q346 -866 293 -815Q240 -764 174 -764Q108 -764 55 -813Q2 -862 2 -936Q2 -1010 50 -1058Q98 -1106 174 -1110ZM2018 -1506Q1992 -1478 1946 -1474L654 -1476Q614 -1472 584 -1506Q550 -1536 554 -1578Q552 -1616 578 -1647Q604 -1678 654 -1682L1946 -1680Q1984 -1682 2018 -1652Q2048 -1618 2048 -1581Q2048 -1544 2018 -1506ZM172 -1406Q98 -1410 49 -1459Q0 -1508 0 -1581Q0 -1654 52 -1702Q104 -1750 172 -1748Q241 -1753 294 -1700V-1698Q344 -1652 344 -1582Q344 -1512 295 -1461Q246 -1410 172 -1406Z"/>
</svg>