<svg xmlns="http://www.w3.org/2000/svg" viewBox="0 -1920 2048 2048">
	<path transform="translate(150 40)" d="M560 -1318L656 -834H1458L1526 -1318ZM674 -448H1542Q1602 -448 1650 -413Q1698 -378 1719 -328Q1740 -278 1731 -220Q1722 -162 1679 -119Q1636 -76 1577 -67Q1518 -58 1468 -79Q1418 -100 1383 -148Q1348 -196 1348 -256H1060Q1060 -176 1003 -119Q946 -62 866 -62Q786 -62 730 -119Q674 -176 674 -256Q590 -256 518 -301Q446 -346 408 -426Q370 -506 388 -599Q406 -692 474 -756L304 -1608H94Q36 -1608 12 -1656Q-12 -1704 12 -1752Q36 -1800 94 -1800H384Q418 -1800 445 -1777Q472 -1754 478 -1722L520 -1510H1638Q1682 -1510 1711 -1476Q1740 -1442 1734 -1400L1638 -724Q1632 -690 1604 -666Q1576 -642 1542 -642H674Q614 -642 590 -593Q566 -544 590 -496Q614 -448 674 -448Z"/>
</svg>