<svg xmlns="http://www.w3.org/2000/svg" viewBox="0 -1920 2048 2048">
	<path transform="scale(0.95 0.95) translate(45 0)" d="M1535 -220L1524 -216H42L30 -220Q26 -220 26 -222L20 -228L16 -236Q14 -238 7 -273Q0 -308 2 -352Q2 -470 86 -514H88Q112 -530 262 -572Q412 -614 514 -634Q637 -496 781 -496Q925 -496 1052 -634Q1146 -614 1302 -571Q1458 -528 1476 -514H1478Q1528 -488 1546 -442Q1578 -362 1558 -274Q1548 -236 1548 -232Q1548 -228 1543 -224Q1538 -220 1535 -220ZM1964 -1236Q2040 -1236 2048 -1156Q2048 -1120 2024 -1096L1922 -988L2036 -878Q2064 -850 2064 -817Q2064 -784 2042 -761Q2020 -738 1984 -736Q1948 -734 1924 -758L1808 -870L1704 -760Q1680 -736 1646 -734Q1612 -732 1586 -756Q1562 -784 1562 -816Q1558 -848 1584 -876L1688 -984L1572 -1094Q1550 -1116 1547 -1150Q1544 -1184 1568 -1209Q1592 -1234 1628 -1238Q1662 -1234 1686 -1214L1802 -1102L1904 -1210Q1930 -1236 1964 -1236ZM804 -1660H818Q820 -1660 820 -1658Q946 -1654 1014 -1592Q1134 -1484 1154 -1318L1160 -1256Q1177 -1256 1188 -1242Q1216 -1210 1207 -1142Q1198 -1074 1159 -1019Q1120 -964 1084 -964Q1055 -877 1004 -798Q900 -634 782 -634Q714 -634 656 -686Q556 -778 502 -912L480 -964Q462 -964 446 -978Q402 -1008 373 -1082Q344 -1156 359 -1203Q374 -1250 398 -1254L406 -1256L412 -1306Q418 -1358 438 -1418Q492 -1586 600 -1596Q668 -1660 804 -1660Z"/>
</svg>