<svg xmlns="http://www.w3.org/2000/svg" viewBox="0 -1920 2048 2048">
	<path transform="translate(265 35)" d="M1078 -792V-788Q1078 -624 962 -508L680 -226Q564 -108 399 -108Q234 -108 117 -226Q0 -344 0 -508Q0 -672 118 -790L320 -992Q338 -896 388 -818L238 -668Q172 -602 172 -508Q172 -414 238 -347Q304 -280 398 -280Q492 -280 560 -346L842 -628Q870 -660 890 -698Q928 -784 892 -874Q876 -910 840 -952Q798 -985 768 -996L744 -1008Q742 -1010 740 -1010Q708 -1042 706 -1092Q704 -1142 746 -1178H748L750 -1180Q872 -1160 966 -1066Q990 -1042 1010 -1012Q1078 -910 1078 -792ZM1384 -1090L1182 -888Q1164 -984 1114 -1062L1264 -1212Q1330 -1278 1330 -1372Q1330 -1466 1264 -1534Q1196 -1600 1102 -1600Q1008 -1600 942 -1534L660 -1252Q632 -1220 612 -1182Q574 -1096 610 -1006Q630 -960 660 -930Q697 -898 727 -886Q756 -874 760 -870Q786 -848 794 -812Q807 -755 752 -700L742 -702Q656 -714 578 -776Q576 -778 538 -810Q496 -856 474 -896L464 -916Q420 -1002 422 -1090Q426 -1267 540 -1372L822 -1654Q938 -1772 1103 -1772Q1268 -1772 1384 -1654Q1500 -1536 1500 -1372Q1500 -1208 1384 -1090Z"/>
</svg>