<svg xmlns="http://www.w3.org/2000/svg" viewBox="0 -1920 2048 2048">
	<path transform="translate(27 46)" d="M1320 -1280L838 -800L672 -968Q636 -998 601 -998Q566 -998 526 -968Q496 -926 497 -887Q498 -848 528 -824L766 -584Q802 -554 844 -554Q886 -554 910 -584H912L1462 -1136H1464Q1494 -1178 1492 -1218Q1490 -1258 1462 -1280Q1438 -1310 1390 -1310Q1342 -1310 1320 -1280ZM1448 -134Q1424 -134 1380 -143Q1336 -152 1322 -158Q1272 -58 1186 -1Q1100 56 994 56Q888 56 797 -7Q706 -70 670 -158Q608 -134 542 -134Q392 -134 286 -247Q180 -360 182 -514Q180 -520 182 -526V-538Q180 -544 182 -550Q184 -556 182 -562Q96 -618 47 -705Q-2 -792 -2 -893Q-2 -994 51 -1089Q104 -1184 202 -1234L194 -1266Q182 -1296 182 -1334Q178 -1350 182 -1368Q180 -1520 284 -1634Q388 -1748 542 -1748Q608 -1748 670 -1724Q708 -1814 796 -1875Q884 -1936 994 -1936Q1214 -1936 1322 -1724Q1375 -1748 1448 -1748Q1598 -1748 1703 -1636Q1808 -1524 1812 -1368Q1810 -1356 1810 -1334L1798 -1266Q1794 -1248 1786 -1234Q1876 -1192 1932 -1103Q1988 -1014 1992 -894Q1988 -782 1938 -694Q1888 -606 1806 -562Q1810 -554 1810 -550L1812 -526Q1808 -520 1812 -514Q1808 -354 1702 -244Q1596 -134 1448 -134Z"/>
</svg>