<svg xmlns="http://www.w3.org/2000/svg" viewBox="0 -1920 2048 2048">
	<path transform="translate(230 32)" d="M1154 -142Q1154 -94 1108 -74Q1096 -68 1073 -68Q1050 -68 1028 -90L486 -632H74Q44 -632 22 -654Q0 -676 0 -706V-1148Q0 -1178 22 -1200Q44 -1222 74 -1222H264L1154 -330ZM1470 -188L72 -1586Q52 -1608 52 -1638Q52 -1668 72 -1690Q94 -1712 125 -1712Q156 -1712 178 -1690L1574 -292Q1596 -272 1596 -240Q1596 -208 1574 -187Q1552 -166 1522 -166Q1492 -166 1470 -188ZM1154 -1714V-886L652 -1388L1028 -1766Q1066 -1802 1110 -1782Q1154 -1762 1154 -1714Z"/>
</svg>