<svg xmlns="http://www.w3.org/2000/svg" viewBox="0 -1920 2048 2048">
	<path transform="translate(240 30)" d="M1022 -362Q1178 -430 1278 -566Q1178 -604 1100 -624Q1072 -488 1022 -362ZM290 -566Q390 -430 546 -362Q496 -488 468 -624Q390 -604 290 -566ZM638 -654Q680 -462 762 -316Q768 -314 784 -314Q800 -314 806 -316Q888 -462 930 -654Q866 -662 784 -662Q702 -662 638 -654ZM954 -1020Q880 -1012 784 -1012Q688 -1012 614 -1020Q610 -988 610 -924Q610 -860 614 -828Q688 -836 784 -836Q880 -836 954 -828Q958 -860 958 -924Q958 -988 954 -1020ZM1358 -1128Q1244 -1078 1126 -1052Q1134 -968 1134 -924Q1134 -880 1126 -796Q1244 -770 1358 -720Q1394 -816 1394 -924Q1394 -1032 1358 -1128ZM210 -720Q324 -770 442 -796Q434 -880 434 -924Q434 -968 442 -1052Q324 -1078 210 -1128Q174 -1032 174 -924Q174 -816 210 -720ZM1278 -1282Q1178 -1418 1022 -1486Q1072 -1360 1100 -1224Q1178 -1244 1278 -1282ZM546 -1486Q390 -1418 290 -1282Q390 -1244 468 -1224Q496 -1360 546 -1486ZM930 -1194Q888 -1386 806 -1532Q800 -1534 784 -1534Q768 -1534 762 -1532Q680 -1386 638 -1194Q702 -1186 784 -1186Q866 -1186 930 -1194ZM1568 -924Q1568 -686 1434 -488Q1344 -356 1209 -267Q1074 -178 914 -150L868 -144Q812 -140 784 -140Q756 -140 700 -144L654 -150Q494 -178 359 -267Q146 -408 52 -642Q0 -776 0 -924Q0 -1162 134 -1360Q224 -1492 359 -1581Q494 -1670 654 -1698L700 -1704Q756 -1708 784 -1708Q812 -1708 868 -1704L914 -1698Q1074 -1670 1209 -1581Q1422 -1440 1516 -1206Q1568 -1072 1568 -924Z"/>
</svg>