<svg xmlns="http://www.w3.org/2000/svg" viewBox="0 -1920 2048 2048">
	<path transform="translate(0 40)" d="M1535 -220L1524 -216H42L30 -220Q26 -220 26 -222L20 -228L16 -236Q14 -238 7 -273Q0 -308 2 -352Q2 -470 86 -514H88Q112 -530 262 -572Q412 -614 514 -634Q637 -496 781 -496Q925 -496 1052 -634Q1146 -614 1302 -571Q1458 -528 1476 -514H1478Q1528 -488 1546 -442Q1578 -362 1558 -274Q1548 -236 1548 -232Q1548 -228 1543 -224Q1538 -220 1535 -220ZM1962 -1020Q1996 -1020 2021 -995Q2046 -970 2046 -936Q2046 -902 2021 -877Q1996 -852 1962 -852H1638L1662 -828Q1686 -804 1686 -770Q1686 -736 1662 -711Q1638 -686 1603 -686Q1568 -686 1544 -712L1378 -878Q1354 -900 1354 -936Q1354 -972 1378 -994L1544 -1160Q1568 -1186 1603 -1186Q1638 -1186 1662 -1161Q1686 -1136 1686 -1102Q1686 -1068 1662 -1044L1638 -1020ZM804 -1660H818Q820 -1660 820 -1658Q946 -1654 1014 -1592Q1134 -1484 1154 -1318L1160 -1256Q1177 -1256 1188 -1242Q1216 -1210 1207 -1142Q1198 -1074 1159 -1019Q1120 -964 1084 -964Q1055 -877 1004 -798Q900 -634 782 -634Q714 -634 656 -686Q556 -778 502 -912L480 -964Q462 -964 446 -978Q402 -1008 373 -1082Q344 -1156 359 -1203Q374 -1250 398 -1254L406 -1256L412 -1306Q418 -1358 438 -1418Q492 -1586 600 -1596Q668 -1660 804 -1660Z"/>
</svg>