<svg xmlns="http://www.w3.org/2000/svg" viewBox="0 -1920 2048 2048">
	<path transform="translate(0 40)" d="M919 -1081Q880 -1042 824 -1042Q768 -1042 728 -1081Q688 -1120 688 -1176Q688 -1232 728 -1272Q768 -1312 824 -1312Q880 -1312 919 -1272Q958 -1232 958 -1176Q958 -1120 919 -1081ZM1790 -1462H260Q232 -1462 211 -1442Q190 -1422 190 -1394V-690L496 -996L848 -644L1450 -1248L1860 -840V-1394Q1860 -1422 1839 -1442Q1818 -1462 1790 -1462ZM260 -1652H1790Q1898 -1652 1974 -1576Q2050 -1500 2050 -1394V-482Q2050 -376 1974 -299Q1898 -222 1790 -222H260Q152 -222 76 -299Q0 -376 0 -482V-1394Q0 -1500 76 -1576Q152 -1652 260 -1652Z"/>
</svg>