<svg xmlns="http://www.w3.org/2000/svg" viewBox="0 -1920 2048 2048">
	<path transform="translate(0 38)" d="M1276 -990Q1314 -990 1341 -965Q1368 -940 1372 -896Q1368 -850 1340 -825Q1312 -800 1276 -800H1120L1118 -654Q1122 -618 1092 -588Q1068 -560 1026 -560Q984 -560 958 -585Q932 -610 928 -654L930 -800H772Q734 -800 705 -829Q676 -858 676 -894Q676 -930 704 -960Q732 -990 772 -990H930L928 -1136Q932 -1180 959 -1205Q986 -1230 1026 -1230Q1066 -1230 1093 -1201Q1120 -1172 1118 -1136L1120 -990ZM1596 -1224Q1600 -1174 1632 -1142Q1664 -1110 1713 -1110Q1762 -1110 1794 -1146Q1826 -1182 1826 -1227Q1826 -1272 1793 -1305Q1760 -1338 1713 -1338Q1666 -1338 1633 -1308Q1600 -1278 1596 -1224ZM1540 -894Q1536 -1112 1385 -1261Q1234 -1410 1022 -1410Q810 -1410 659 -1255Q508 -1100 508 -895Q508 -690 659 -535Q810 -380 1022 -380Q1234 -380 1385 -529Q1536 -678 1540 -894ZM1790 -1578Q1896 -1578 1973 -1499Q2050 -1420 2048 -1318L2050 -408Q2046 -298 1970 -223Q1894 -148 1788 -148H260Q154 -148 79 -222Q4 -296 0 -408L2 -1318Q0 -1422 76 -1500Q152 -1578 258 -1578H550Q552 -1590 560 -1599Q568 -1608 574 -1622Q580 -1636 589 -1647Q598 -1658 615 -1682Q649 -1730 738 -1730H1312Q1401 -1730 1437 -1679Q1456 -1652 1462 -1644L1474 -1624Q1482 -1608 1488 -1602L1500 -1578Z"/>
</svg>