<svg xmlns="http://www.w3.org/2000/svg" viewBox="0 -1920 2048 2048">
	<path transform="scale(0.75 0.75) translate(60 -265)" d="M1824 -1110Q1824 -1156 1878 -1188Q1886 -1194 1910 -1194H1930Q1946 -1194 1958 -1182Q1970 -1178 1972 -1170L2216 -906L2460 -1170Q2470 -1180 2481 -1187Q2492 -1194 2506 -1194H2522Q2558 -1194 2579 -1173Q2600 -1152 2604 -1140Q2608 -1128 2608 -1102V-1094Q2606 -1092 2606 -1090V-1076Q2604 -1074 2604 -1071Q2604 -1068 2602 -1066V-1062Q2598 -1058 2598 -1054L2594 -1050Q2594 -1044 2590 -1044L2276 -684Q2256 -664 2248 -664L2232 -660H2224Q2222 -658 2215 -658Q2208 -658 2206 -660H2198L2176 -668Q2174 -668 2172 -670L2168 -672L2162 -678L2154 -684L1850 -1036Q1830 -1063 1830 -1066L1826 -1086V-1094Q1824 -1096 1824 -1110ZM812 -1232Q807 -1232 801 -1235Q795 -1238 768 -1248Q760 -1248 744 -1252L712 -1254H694Q548 -1254 450 -1138Q418 -1100 406 -1062Q382 -1019 382 -944Q382 -870 406 -814Q455 -699 588 -642Q590 -640 595 -639Q600 -638 618 -631Q636 -624 664 -624H696Q791 -624 852 -664Q960 -735 984 -814Q1012 -876 1012 -938Q1012 -1000 988 -1056Q968 -1112 921 -1159Q874 -1206 820 -1228ZM1384 -684L1380 -668L1364 -632Q1359 -609 1314 -586Q1298 -582 1290 -582H1284Q1282 -582 1282 -584H1272Q1270 -584 1270 -586H1266L1130 -624Q1118 -608 1115 -603L1096 -580L1080 -564L1028 -520L1020 -512L1000 -498L1038 -360Q1040 -354 1040 -344V-330Q1034 -300 1022 -288Q1010 -276 986 -262L954 -248H950L948 -246H944L942 -244H928Q926 -242 924 -242H920L896 -248Q892 -248 890 -249Q888 -250 882 -252Q865 -258 852 -284L778 -408H770Q768 -406 766 -406H750Q748 -404 744 -404H730Q728 -402 724 -402H672Q664 -402 660 -404H648Q640 -404 636 -406H624Q622 -408 620 -408Q618 -408 616 -410H600L528 -286Q526 -278 516 -272Q500 -256 496 -256Q492 -256 490 -254L456 -246Q454 -246 454 -248H442L440 -250Q436 -250 434 -252L426 -254L388 -268Q364 -284 348 -308Q340 -342 344 -366L380 -504Q368 -512 348 -532Q336 -540 330 -546L314 -562Q298 -582 282 -598Q266 -614 256 -632L116 -596L114 -594H104L98 -592Q79 -592 58 -604Q37 -616 28 -634Q22 -640 20 -644L6 -680Q0 -690 0 -705Q0 -720 2 -737Q4 -754 19 -765Q34 -776 40 -782L166 -852V-864Q164 -868 164 -876V-886Q162 -890 162 -898V-922Q160 -924 160 -932V-966Q160 -972 162 -976L164 -1000Q164 -1008 166 -1012V-1032L46 -1104Q25 -1111 16 -1138L8 -1150Q4 -1170 4 -1180L10 -1208L26 -1242Q28 -1252 43 -1267Q58 -1282 74 -1290Q90 -1298 122 -1290L262 -1252Q263 -1254 288 -1288L336 -1336Q342 -1342 350 -1347L380 -1372L384 -1374Q386 -1376 388 -1376L354 -1516Q347 -1536 355 -1559Q362 -1582 376 -1596Q390 -1610 400 -1612L438 -1626Q440 -1628 442 -1628L460 -1632H482Q484 -1630 494 -1630Q504 -1630 515 -1619Q526 -1608 532 -1604L610 -1466Q612 -1468 616 -1468Q620 -1468 622 -1470H638Q642 -1470 644 -1472H652Q660 -1472 664 -1474H732Q734 -1472 738 -1472H756Q758 -1470 761 -1470Q764 -1470 766 -1468H778Q780 -1466 784 -1466Q788 -1466 790 -1464L860 -1588Q882 -1617 895 -1623Q908 -1628 924 -1628H952L998 -1606L1014 -1600Q1032 -1588 1048 -1556L1050 -1526Q1050 -1516 1048 -1510L1008 -1372Q1024 -1364 1054 -1337Q1084 -1310 1101 -1290Q1118 -1270 1122 -1263Q1126 -1256 1128 -1254Q1130 -1252 1134 -1244L1272 -1280Q1314 -1288 1335 -1272Q1356 -1255 1370 -1230L1382 -1196Q1390 -1182 1390 -1168Q1390 -1154 1388 -1137Q1386 -1120 1348 -1092L1222 -1022L1228 -1002Q1228 -986 1230 -980V-900L1224 -856Q1224 -848 1222 -844L1344 -770Q1386 -745 1386 -716Q1386 -688 1384 -684Z"/>
</svg>