<svg xmlns="http://www.w3.org/2000/svg" viewBox="0 -1920 2048 2048">
	<path transform="translate(22 127)" d="M875 -437Q928 -386 1002 -386Q1076 -386 1129 -439Q1182 -492 1182 -565Q1182 -638 1129 -691Q1076 -744 1002 -744Q928 -744 875 -693Q822 -642 822 -565Q822 -488 875 -437ZM1896 -672Q1944 -672 1974 -639Q2004 -606 2004 -566Q2004 -526 1974 -492Q1944 -458 1896 -458H1382Q1344 -330 1239 -250Q1134 -170 1002 -170Q870 -170 765 -250Q660 -330 622 -458H108Q64 -458 32 -490Q0 -522 0 -566Q0 -610 31 -641Q62 -672 108 -672H622Q660 -800 765 -880Q870 -960 1002 -960Q1134 -960 1239 -880Q1344 -800 1382 -672ZM523 -1607Q470 -1660 396 -1660Q322 -1660 269 -1609Q216 -1558 216 -1481Q216 -1404 269 -1353Q322 -1302 396 -1302Q470 -1302 523 -1355Q576 -1408 576 -1481Q576 -1554 523 -1607ZM396 -1876Q528 -1876 633 -1796Q738 -1716 776 -1588H1896Q1944 -1588 1974 -1555Q2004 -1522 2004 -1482Q2004 -1442 1973 -1407Q1942 -1372 1896 -1372H776Q740 -1250 636 -1168Q532 -1086 381 -1086Q230 -1086 116 -1202Q2 -1318 2 -1481Q2 -1644 116 -1760Q230 -1876 396 -1876Z"/>
</svg>