<svg xmlns="http://www.w3.org/2000/svg" viewBox="0 -1920 2048 2048">
	<path transform="translate(102 110)" d="M1556 -248Q1552 -188 1514 -152Q1476 -116 1435 -116Q1394 -116 1370 -128Q1346 -140 1344 -142L920 -462L500 -142Q460 -116 420 -116Q380 -116 342 -140Q304 -170 293 -213Q282 -256 298 -292L470 -790L64 -1042Q32 -1060 16 -1095Q0 -1130 0 -1146Q0 -1162 4 -1190Q22 -1238 52 -1260Q92 -1286 132 -1286H636L796 -1802Q804 -1836 840 -1865Q876 -1894 920 -1894H922Q964 -1894 1000 -1868Q1036 -1842 1046 -1802L1206 -1286H1710Q1752 -1286 1790 -1260Q1810 -1244 1840 -1190Q1857 -1091 1780 -1042L1372 -790L1540 -308L1552 -280Q1554 -274 1554 -264Q1554 -254 1556 -248Z"/>
</svg>