<svg xmlns="http://www.w3.org/2000/svg" viewBox="0 -1920 2048 2048">
	<path transform="translate(142 0)" d="M1326 -1724Q1504 -1724 1635 -1579Q1766 -1434 1766 -1246Q1760 -1082 1685 -904Q1610 -726 1501 -581Q1392 -436 1271 -318Q1150 -200 1046 -134Q942 -68 884 -69Q826 -70 719 -136Q612 -202 490 -321Q368 -440 258 -583Q148 -726 75 -904Q2 -1082 2 -1258Q2 -1434 133 -1579Q264 -1724 444 -1724Q556 -1724 649 -1666Q742 -1608 779 -1562Q884 -1431 884 -1418L900 -1444Q977 -1560 1029 -1601Q1080 -1642 1122 -1668Q1212 -1724 1326 -1724Z"/>
</svg>