<svg xmlns="http://www.w3.org/2000/svg" viewBox="0 -1920 2048 2048">
	<path transform="translate(785 0)" d="M70 -273Q138 -342 236 -342Q334 -342 402 -273Q470 -204 470 -107Q470 -10 402 59Q334 128 236 128Q138 128 70 59Q2 -10 2 -107Q2 -204 70 -273ZM70 -1062Q138 -1130 236 -1130Q334 -1130 402 -1062Q470 -994 470 -896Q470 -798 402 -730Q334 -662 236 -662Q138 -662 70 -730Q2 -798 2 -896Q2 -994 70 -1062ZM70 -1851Q138 -1920 236 -1920Q334 -1920 402 -1851Q470 -1782 470 -1685Q470 -1588 402 -1519Q334 -1450 236 -1450Q138 -1450 70 -1519Q2 -1588 2 -1685Q2 -1782 70 -1851Z"/>
</svg>