<svg xmlns="http://www.w3.org/2000/svg" viewBox="0 -1920 2048 2048">
	<path transform="scale(0.8 0.8) translate(68 -220)" d="M1880 -674Q1786 -764 1786 -897Q1786 -1030 1878 -1124Q1970 -1218 2103 -1218Q2236 -1218 2330 -1124Q2424 -1030 2424 -897Q2424 -764 2330 -672Q2236 -580 2103 -580Q1970 -580 1880 -674ZM1438 -1124Q1530 -1028 1530 -897Q1530 -766 1437 -673Q1344 -580 1211 -580Q1078 -580 988 -674Q894 -764 894 -897Q894 -1030 986 -1124Q1078 -1218 1211 -1218Q1344 -1218 1438 -1124ZM546 -1124Q638 -1028 638 -897Q638 -766 545 -673Q452 -580 320 -580Q188 -580 94 -672Q0 -764 0 -897Q0 -1030 94 -1124Q188 -1218 320 -1218Q452 -1218 546 -1124Z"/>
</svg>