<svg xmlns="http://www.w3.org/2000/svg" viewBox="0 -1920 2048 2048">
	<path transform="translate(0 75)" d="M952 -250Q932 -246 906 -246Q880 -246 842 -274L54 -866Q30 -878 16 -912Q0 -940 0 -971Q0 -1034 54 -1076L842 -1668Q874 -1690 913 -1694Q952 -1698 980 -1680Q1012 -1666 1033 -1633Q1054 -1600 1054 -1564V-1168H1316Q1616 -1168 1828 -956Q2040 -744 2040 -444Q2040 -362 1982 -304Q1924 -246 1842 -246Q1760 -246 1703 -307Q1646 -368 1646 -444Q1646 -582 1550 -678Q1454 -774 1316 -774H1054V-378Q1054 -302 980 -260Z"/>
</svg>