<svg xmlns="http://www.w3.org/2000/svg" viewBox="0 -1920 2048 2048">
	<path transform="scale(0.8 0.8) translate(0 -285)" d="M1656 -842H1848V-1226H1274Q1194 -1226 1138 -1282Q1082 -1338 1082 -1417Q1082 -1496 1138 -1552Q1194 -1608 1274 -1608H2038Q2118 -1608 2174 -1552Q2230 -1496 2230 -1416V-842H2422Q2503 -842 2536 -772Q2552 -738 2548 -701Q2544 -664 2524 -638L2140 -128Q2094 -78 2050 -78Q2006 -78 1984 -92Q1960 -102 1938 -128L1554 -638Q1534 -664 1530 -701Q1521 -783 1590 -824Q1620 -842 1656 -842ZM700 -460H1274Q1354 -460 1410 -404Q1466 -348 1466 -269Q1466 -190 1410 -134Q1354 -78 1274 -78H508Q430 -78 374 -134Q318 -190 318 -268V-842H126Q94 -842 60 -862Q-5 -900 0 -982Q2 -1014 24 -1048L408 -1560Q444 -1608 509 -1608Q574 -1608 610 -1560L984 -1060Q1020 -1010 1020 -964Q1020 -918 982 -880Q944 -842 892 -842H700Z"/>
</svg>