<svg xmlns="http://www.w3.org/2000/svg" viewBox="0 -1920 2048 2048">
	<path transform="translate(285 105)" d="M1012 -82H460Q404 -82 367 -119Q330 -156 320 -222L174 -1168H1300L1152 -222Q1142 -156 1105 -119Q1068 -82 1012 -82ZM484 -1518H988Q962 -1610 891 -1662Q820 -1714 736 -1714Q652 -1714 581 -1662Q510 -1610 484 -1518ZM104 -1338Q0 -1338 0 -1412Q0 -1454 28 -1486Q56 -1518 104 -1518H272Q296 -1692 428 -1808Q560 -1924 736 -1924Q912 -1924 1044 -1808Q1176 -1692 1200 -1518H1368Q1416 -1518 1444 -1486Q1472 -1454 1472 -1412Q1472 -1338 1368 -1338Z"/>
</svg>