<svg xmlns="http://www.w3.org/2000/svg" viewBox="0 -1920 2048 2048">
	<path transform="translate(128 0)" d="M1152 -1024V-416H256V-1024ZM128 -288H1280V-1152H128ZM512 -1248H640V-1408H1536V-768H1408V-640H1664V-1536H512ZM514 -1664H1664Q1712 -1664 1752 -1624Q1792 -1584 1792 -1536V-640Q1792 -592 1752 -552Q1712 -512 1664 -512H1410L1408 -288Q1408 -218 1369 -173Q1330 -128 1280 -128H128Q78 -128 39 -173Q0 -218 0 -288L-2 -1152Q0 -1200 40 -1240Q80 -1280 130 -1280H384L386 -1536Q384 -1584 422 -1624Q460 -1664 514 -1664Z"/>
</svg>