<svg xmlns="http://www.w3.org/2000/svg" viewBox="0 -1920 2048 2048">
	<path transform="translate(256 0)" d="M1024 -1038H854L962 -1272Q974 -1300 958 -1326Q942 -1352 910 -1352H710Q666 -1352 656 -1308L542 -882Q536 -854 553 -832Q570 -810 598 -810H712L628 -484Q614 -440 660 -418Q668 -412 691 -412Q714 -412 730 -438L1072 -950Q1090 -980 1074 -1009Q1058 -1038 1024 -1038ZM225 -1439Q450 -1664 768 -1664Q1086 -1664 1311 -1439Q1536 -1214 1536 -896Q1536 -578 1311 -353Q1086 -128 768 -128Q450 -128 225 -353Q0 -578 0 -896Q0 -1214 225 -1439Z"/>
</svg>