<svg xmlns="http://www.w3.org/2000/svg" viewBox="0 -1920 2048 2048">
	<path transform="translate(512 0)" d="M426 -726H540Q564 -726 581 -742Q598 -758 598 -782Q598 -806 581 -823Q564 -840 540 -840H426V-952Q426 -976 410 -993Q394 -1010 370 -1010Q346 -1010 329 -993Q312 -976 312 -952V-840H200Q176 -840 159 -823Q142 -806 142 -782Q142 -758 159 -742Q176 -726 200 -726H312V-612Q312 -588 329 -571Q346 -554 370 -554Q394 -554 410 -571Q426 -588 426 -612ZM56 -1380H682Q706 -1380 723 -1363Q740 -1346 740 -1322V-184Q740 -162 723 -145Q706 -128 682 -128H56Q34 -128 17 -145Q0 -162 0 -184V-1322Q0 -1346 17 -1363Q34 -1380 56 -1380ZM398 -1664H938Q974 -1664 999 -1639Q1024 -1614 1024 -1578V-384Q1024 -348 999 -323Q974 -298 939 -298Q904 -298 879 -323Q854 -348 854 -384V-1464Q854 -1476 845 -1485Q836 -1494 824 -1494H398Q364 -1494 338 -1519Q312 -1544 312 -1579Q312 -1614 338 -1639Q364 -1664 398 -1664Z"/>
</svg>