<svg xmlns="http://www.w3.org/2000/svg" viewBox="0 -1920 2048 2048">
	<path transform="translate(540 0)" d="M459 -1121Q434 -1096 399 -1096Q364 -1096 339 -1121Q314 -1146 314 -1181Q314 -1216 339 -1241Q364 -1266 399 -1266Q434 -1266 459 -1241Q484 -1216 484 -1181Q484 -1146 459 -1121ZM796 -1464Q796 -1494 768 -1494H200Q172 -1494 172 -1464V-528L284 -696L398 -584L598 -924L796 -668ZM142 -1664H826Q884 -1664 926 -1622Q968 -1580 968 -1522V-270Q968 -212 926 -170Q884 -128 826 -128H142Q84 -128 42 -170Q0 -212 0 -270V-1522Q0 -1580 42 -1622Q84 -1664 142 -1664Z"/>
</svg>