<svg xmlns="http://www.w3.org/2000/svg" viewBox="0 -1920 2048 2048">
	<path transform="translate(553 0)" d="M118 -600V-584L758 -840L692 -946Q688 -952 665 -986Q642 -1020 636 -1030Q630 -1040 609 -1073Q588 -1106 579 -1123Q511 -1252 472 -1368Q416 -1201 335 -1073Q314 -1040 308 -1030Q302 -1020 279 -986Q216 -893 180 -829Q118 -719 118 -600ZM944 -600Q944 -418 812 -273Q680 -128 472 -128Q264 -128 132 -273Q0 -418 0 -600Q0 -682 24 -759Q48 -836 74 -882Q100 -928 157 -1015Q214 -1102 248 -1162Q282 -1222 333 -1348Q384 -1474 414 -1616Q424 -1664 472 -1664Q520 -1664 530 -1616Q560 -1474 611 -1348Q662 -1222 696 -1162Q730 -1102 787 -1015Q844 -928 870 -882Q896 -836 920 -759Q944 -682 944 -600Z"/>
</svg>