<svg xmlns="http://www.w3.org/2000/svg" viewBox="0 -1920 2048 2048">
	<path transform="translate(0 42)" d="M644 42Q638 42 614 18H612L596 0V-2Q594 -2 592 -4V-8Q588 -8 588 -12H586L46 -730Q-12 -808 4 -904Q22 -1000 104 -1050Q180 -1104 280 -1089Q380 -1074 436 -994L766 -554L1616 -1864Q1672 -1944 1773 -1959Q1874 -1974 1950 -1920Q2032 -1868 2048 -1773Q2064 -1678 2006 -1600L986 -26Q982 -22 982 -20H980V-18L970 -4H968L930 34Q926 34 926 38H924L922 40Q918 40 918 44H916L914 46H912V48L906 50L880 62Q874 64 870 68H868Q866 70 864 70L852 74Q850 74 844 76L818 82Q812 82 808 84H784Q782 86 780 86L778 84H762Q756 82 736 82Q716 82 706 72Q698 72 694 68H690L688 66Q684 66 678 60H674L666 54L648 48V46L646 44H644Z"/>
</svg>