<svg xmlns="http://www.w3.org/2000/svg" viewBox="0 -1920 2048 2048">
	<path d="M1535 -220L1524 -216H42L30 -220Q26 -220 26 -222L20 -228L16 -236Q14 -238 7 -273Q0 -308 2 -352Q2 -470 86 -514H88Q112 -530 262 -572Q412 -614 514 -634Q637 -496 781 -496Q925 -496 1052 -634Q1146 -614 1302 -571Q1458 -528 1476 -514H1478Q1528 -488 1546 -442Q1578 -362 1558 -274Q1548 -236 1548 -232Q1548 -228 1543 -224Q1538 -220 1535 -220ZM2022 -1072L1682 -732Q1676 -726 1656 -717Q1636 -708 1613 -708Q1590 -708 1566 -732L1402 -898Q1378 -922 1378 -956Q1378 -990 1402 -1014Q1426 -1038 1460 -1038Q1494 -1038 1518 -1014L1624 -906L1906 -1188Q1930 -1212 1964 -1212Q1998 -1212 2022 -1188Q2046 -1164 2046 -1130Q2046 -1096 2022 -1072ZM804 -1660H818Q820 -1660 820 -1658Q946 -1654 1014 -1592Q1134 -1484 1154 -1318L1160 -1256Q1177 -1256 1188 -1242Q1216 -1210 1207 -1142Q1198 -1074 1159 -1019Q1120 -964 1084 -964Q1055 -877 1004 -798Q900 -634 782 -634Q714 -634 656 -686Q556 -778 502 -912L480 -964Q462 -964 446 -978Q402 -1008 373 -1082Q344 -1156 359 -1203Q374 -1250 398 -1254L406 -1256L412 -1306Q418 -1358 438 -1418Q492 -1586 600 -1596Q668 -1660 804 -1660Z"/>
</svg>