<svg xmlns="http://www.w3.org/2000/svg" viewBox="0 -1920 2048 2048">
	<path transform="translate(0 44)" d="M1352 -1058Q1398 -1058 1433 -1025Q1468 -992 1472 -940Q1468 -886 1434 -854Q1400 -822 1352 -822H1026Q976 -822 943 -854Q910 -886 906 -940L908 -1392Q906 -1436 939 -1473Q972 -1510 1022 -1510Q1072 -1510 1106 -1478Q1140 -1446 1144 -1392L1142 -1058ZM1024 -1728Q866 -1728 721 -1667Q576 -1606 468 -1498Q236 -1262 236 -938Q236 -614 468 -382Q576 -272 721 -211Q866 -150 1024 -150Q1352 -150 1582 -379Q1812 -608 1816 -940Q1812 -1270 1581 -1499Q1350 -1728 1024 -1728ZM302 -216Q4 -512 0 -940Q2 -1148 81 -1335Q160 -1522 302 -1664Q444 -1806 631 -1885Q818 -1964 1025 -1964Q1232 -1964 1421 -1884Q1610 -1804 1751 -1663Q1892 -1522 1971 -1334Q2050 -1146 2050 -939Q2050 -732 1971 -545Q1892 -358 1751 -216Q1610 -74 1422 5Q1234 84 1026 84Q818 84 631 5Q444 -74 302 -216Z"/>
</svg>