<svg xmlns="http://www.w3.org/2000/svg" viewBox="0 -1920 2048 2048">
	<path transform="scale(0.8, 0.8) translate(150 -185)" d="M1454 -356Q1454 -216 1342 -216H112Q46 -216 23 -240Q0 -264 0 -326Q0 -388 20 -454Q40 -520 84 -542Q230 -612 448 -664Q570 -524 727 -524Q884 -524 1006 -664Q1224 -612 1370 -542Q1414 -520 1434 -466Q1454 -412 1454 -356ZM2174 -356H1622Q1622 -524 1530 -632H1564Q1624 -602 1682 -602Q1808 -602 1906 -714Q2086 -670 2196 -616Q2264 -584 2264 -470Q2264 -356 2174 -356ZM1476 -884L1450 -942Q1424 -942 1394 -984Q1364 -1026 1358 -1073Q1352 -1120 1361 -1141Q1370 -1162 1380 -1164L1392 -1168Q1392 -1195 1404 -1246Q1416 -1298 1431 -1332Q1446 -1366 1475 -1396Q1504 -1426 1542 -1430Q1594 -1478 1679 -1478Q1764 -1478 1823 -1446Q1882 -1414 1909 -1369Q1968 -1271 1972 -1200L1974 -1168Q1991 -1168 2003 -1144Q2014 -1120 2008 -1072Q2002 -1024 1973 -983Q1944 -942 1916 -942Q1857 -796 1763 -735Q1724 -710 1672 -710Q1620 -710 1562 -768Q1504 -826 1476 -884ZM436 -932L424 -964Q390 -964 351 -1018Q312 -1072 304 -1132Q296 -1192 308 -1220Q320 -1248 336 -1252L350 -1256Q350 -1286 366 -1356Q382 -1426 401 -1470Q420 -1514 458 -1553Q496 -1592 544 -1598Q612 -1660 721 -1660Q830 -1660 907 -1618Q984 -1576 1020 -1517Q1095 -1393 1100 -1298L1104 -1256Q1142 -1256 1152 -1197Q1156 -1174 1149 -1123Q1142 -1072 1103 -1018Q1064 -964 1030 -964Q1019 -931 984 -870Q948 -808 915 -768Q882 -728 830 -696Q778 -664 726 -664Q674 -664 624 -695Q574 -726 523 -790Q472 -854 436 -932Z"/>
</svg>