<svg xmlns="http://www.w3.org/2000/svg" viewBox="0 -1920 2048 2048">
	<path transform="translate(25 42)" d="M1792 -1320Q1792 -1310 1794 -1306V-1292Q1794 -1086 1716 -879Q1638 -672 1489 -502Q1340 -332 1120 -230Q900 -128 628 -128Q284 -128 0 -312Q24 -306 72 -306H98Q378 -306 606 -480Q478 -482 369 -563Q260 -644 224 -766Q254 -760 262 -760H282Q288 -758 303 -758Q318 -758 333 -759Q348 -760 368 -764Q388 -768 396 -770Q404 -772 408 -772Q266 -800 173 -914Q80 -1028 80 -1174V-1180Q162 -1128 266 -1128Q178 -1188 134 -1274Q84 -1362 84 -1446Q84 -1530 95 -1571Q106 -1612 138 -1676Q294 -1484 510 -1376Q732 -1260 982 -1248Q972 -1318 972 -1340Q972 -1510 1092 -1630Q1212 -1750 1384 -1750Q1556 -1750 1682 -1620Q1827 -1652 1942 -1720Q1918 -1648 1872 -1590Q1820 -1530 1762 -1494Q1894 -1516 1996 -1558Q1927 -1448 1792 -1346Z"/>
</svg>