<svg xmlns="http://www.w3.org/2000/svg" viewBox="0 -1920 2048 2048">
	<path transform="translate(0 41)" d="M927 -396Q968 -356 1024 -356Q1080 -356 1120 -396Q1160 -436 1160 -493Q1160 -550 1120 -590Q1080 -630 1024 -630Q968 -630 927 -590Q886 -550 886 -493Q886 -436 927 -396ZM956 -786Q974 -732 1025 -732Q1076 -732 1090 -786Q1112 -860 1153 -1080Q1194 -1300 1194 -1374Q1194 -1448 1147 -1484Q1100 -1520 1024 -1520Q948 -1520 900 -1484Q852 -1448 852 -1375Q852 -1302 893 -1085Q934 -868 956 -786ZM374 -1862H1674Q1788 -1862 1868 -1782Q1948 -1702 1948 -1588V-288Q1948 -174 1868 -94Q1788 -14 1674 -14H374Q260 -14 180 -94Q100 -174 100 -288V-1588Q100 -1702 180 -1782Q260 -1862 374 -1862Z"/>
</svg>