<svg xmlns="http://www.w3.org/2000/svg" viewBox="0 -1920 2048 2048">
	<path transform="translate(67 15)" d="M1856 -864L1440 -416Q1414 -390 1384 -384H1376Q1344 -384 1316 -412Q1288 -440 1288 -480Q1288 -520 1312 -544L1568 -800H512Q488 -800 452 -836Q416 -872 416 -906Q416 -940 451 -982Q486 -1024 512 -1024H1568L1312 -1280Q1264 -1328 1312 -1376Q1335 -1421 1360 -1413Q1386 -1405 1408 -1393Q1430 -1380 1440 -1376L1856 -992Q1880 -968 1880 -928Q1880 -888 1856 -864ZM192 -512H768Q798 -512 831 -486Q864 -460 864 -416Q864 -372 831 -346Q798 -320 768 -320H128Q82 -320 57 -358Q32 -396 32 -448V-1376Q32 -1428 57 -1466Q82 -1504 128 -1504H768Q798 -1504 831 -1478Q864 -1452 864 -1408Q864 -1364 831 -1338Q798 -1312 768 -1312H192Z"/>
</svg>