<svg xmlns="http://www.w3.org/2000/svg" viewBox="0 -1920 2048 2048">
	<path d="M2048 -408V-116Q2048 -16 1976 56Q1904 128 1804 128H244Q144 128 72 56Q0 -16 0 -116V-408Q0 -470 43 -512Q86 -554 147 -554Q208 -554 250 -512Q292 -470 292 -408V-214Q292 -192 306 -178Q320 -164 342 -164H1708Q1728 -166 1742 -179Q1756 -192 1756 -212V-408Q1756 -470 1798 -512Q1840 -554 1901 -554Q1962 -554 2005 -512Q2048 -470 2048 -408ZM1566 -938L1128 -500Q1084 -458 1024 -458Q964 -458 920 -500L482 -938Q438 -982 438 -1042Q438 -1102 481 -1145Q524 -1188 585 -1188Q646 -1188 688 -1146L878 -956V-1774Q878 -1834 921 -1877Q964 -1920 1024 -1920Q1084 -1920 1127 -1877Q1170 -1834 1170 -1774V-956L1360 -1146Q1402 -1188 1463 -1188Q1524 -1188 1567 -1145Q1610 -1102 1610 -1042Q1610 -982 1566 -938Z"/>
</svg>