<svg xmlns="http://www.w3.org/2000/svg" viewBox="0 -1920 2048 2048">
	<path transform="translate(193 -65)" d="M830 -1660Q1068 -1660 1264 -1538L1370 -1688Q1384 -1708 1410 -1708H1416Q1444 -1704 1454 -1678L1624 -1204Q1632 -1184 1618 -1160Q1602 -1140 1578 -1140L1076 -1142Q1048 -1142 1035 -1167Q1022 -1192 1038 -1216L1154 -1382Q1000 -1470 830 -1470Q566 -1470 379 -1283Q192 -1096 192 -831Q192 -566 379 -379Q566 -192 831 -192Q1096 -192 1283 -379Q1470 -566 1470 -830Q1470 -870 1498 -898Q1526 -926 1566 -926Q1606 -926 1634 -898Q1662 -870 1662 -830Q1662 -486 1418 -243Q1174 0 830 0Q486 0 243 -243Q0 -486 0 -830Q0 -1174 243 -1417Q486 -1660 830 -1660Z"/>
</svg>