<svg xmlns="http://www.w3.org/2000/svg" viewBox="0 -1920 2048 2048">
	<path transform="translate(195 -42)" d="M1214 -470V-1206Q1214 -1218 1204 -1228Q1194 -1238 1182 -1238H446V-502Q446 -490 456 -480Q466 -470 478 -470ZM1404 -470H1564Q1604 -470 1632 -443Q1660 -416 1660 -376Q1660 -336 1632 -308Q1604 -280 1564 -280H1404V-120Q1404 -80 1376 -52Q1348 -24 1308 -24Q1268 -24 1241 -52Q1214 -80 1214 -120V-280H352Q312 -280 284 -308Q256 -336 256 -376V-1238H96Q56 -1238 28 -1265Q0 -1292 0 -1332Q0 -1372 28 -1400Q56 -1428 96 -1428H256V-1588Q256 -1628 284 -1656Q312 -1684 352 -1684Q392 -1684 419 -1656Q446 -1628 446 -1588V-1428H1308Q1348 -1428 1376 -1400Q1404 -1372 1404 -1332Z"/>
</svg>