<svg xmlns="http://www.w3.org/2000/svg" viewBox="0 -1920 2048 2048">
	<path transform="translate(135 35)" d="M474 -330Q436 -330 410 -356Q384 -382 384 -418V-508Q384 -544 410 -570Q436 -596 474 -596H1214Q1250 -596 1276 -570Q1302 -544 1302 -508V-418Q1302 -382 1276 -356Q1250 -330 1214 -330ZM474 -804Q436 -804 410 -830Q384 -856 384 -892V-982Q384 -1018 410 -1044Q436 -1070 474 -1070H1688Q1724 -1070 1750 -1044Q1776 -1018 1776 -982V-892Q1776 -856 1750 -830Q1724 -804 1688 -804ZM474 -1278Q436 -1278 410 -1304Q384 -1330 384 -1366V-1456Q384 -1492 410 -1518Q436 -1544 474 -1544H1392Q1428 -1544 1454 -1518Q1480 -1492 1480 -1456V-1366Q1480 -1330 1454 -1304Q1428 -1278 1392 -1278ZM266 -330Q266 -294 240 -268Q214 -242 178 -242H88Q52 -242 26 -268Q0 -294 0 -330V-1544Q0 -1580 26 -1606Q52 -1632 88 -1632H178Q214 -1632 240 -1606Q266 -1580 266 -1544Z"/>
</svg>