<svg xmlns="http://www.w3.org/2000/svg" viewBox="0 -1920 2048 2048">
	<path transform="translate(285 143)" d="M0 -314V-988Q0 -1052 45 -1098Q90 -1144 155 -1144Q220 -1144 265 -1098Q310 -1052 310 -988V-314Q310 -248 265 -203Q220 -158 155 -158Q90 -158 45 -203Q0 -248 0 -314ZM1170 -314V-1402Q1170 -1466 1216 -1512Q1262 -1558 1326 -1558Q1390 -1558 1435 -1512Q1480 -1466 1480 -1402V-314Q1480 -248 1435 -203Q1390 -158 1326 -158Q1262 -158 1216 -203Q1170 -248 1170 -314ZM584 -314V-1766Q584 -1830 629 -1875Q674 -1920 739 -1920Q804 -1920 850 -1874Q896 -1828 896 -1766V-314Q896 -248 850 -203Q804 -158 739 -158Q674 -158 629 -203Q584 -248 584 -314Z"/>
</svg>