<svg xmlns="http://www.w3.org/2000/svg" viewBox="0 -1920 2048 2048">
	<path transform="translate(65 -20)" d="M862 -496Q902 -536 958 -536Q1014 -536 1054 -496Q1094 -456 1094 -399Q1094 -342 1054 -302Q1014 -262 958 -262Q902 -262 862 -302Q822 -342 822 -399Q822 -456 862 -496ZM417 -496Q458 -536 514 -536Q570 -536 610 -496Q650 -456 650 -400Q650 -344 610 -303Q570 -262 513 -262Q456 -262 416 -303Q376 -344 376 -400Q376 -456 417 -496ZM1306 -872Q1346 -912 1402 -912Q1458 -912 1499 -872Q1540 -832 1540 -776Q1540 -720 1500 -679Q1460 -638 1403 -638Q1346 -638 1306 -679Q1266 -720 1266 -776Q1266 -832 1306 -872ZM862 -872Q902 -912 958 -912Q1014 -912 1054 -872Q1094 -832 1094 -775Q1094 -718 1054 -678Q1014 -638 958 -638Q902 -638 862 -678Q822 -718 822 -775Q822 -832 862 -872ZM417 -872Q458 -912 514 -912Q570 -912 610 -872Q650 -832 650 -776Q650 -720 610 -679Q570 -638 513 -638Q456 -638 416 -679Q376 -720 376 -776Q376 -832 417 -872ZM1306 -1248Q1346 -1288 1403 -1288Q1460 -1288 1500 -1248Q1540 -1208 1540 -1152Q1540 -1096 1500 -1055Q1460 -1014 1403 -1014Q1346 -1014 1306 -1055Q1266 -1096 1266 -1152Q1266 -1208 1306 -1248ZM861 -1248Q900 -1288 958 -1288Q1016 -1288 1055 -1248Q1094 -1208 1094 -1151Q1094 -1094 1054 -1054Q1014 -1014 958 -1014Q902 -1014 862 -1054Q822 -1094 822 -1151Q822 -1208 861 -1248ZM416 -1248Q456 -1288 513 -1288Q570 -1288 610 -1248Q650 -1208 650 -1152Q650 -1096 610 -1055Q570 -1014 513 -1014Q456 -1014 416 -1055Q376 -1096 376 -1152Q376 -1208 416 -1248ZM240 -126H1676Q1710 -126 1710 -160V-1392Q1710 -1406 1700 -1416Q1690 -1426 1676 -1426H240Q226 -1426 216 -1416Q206 -1406 206 -1392V-160Q206 -126 240 -126ZM1522 -1630H1744Q1816 -1630 1866 -1580Q1916 -1530 1916 -1460V-92Q1916 -20 1866 30Q1816 80 1744 80H172Q100 80 50 30Q0 -20 0 -92V-1460Q0 -1530 50 -1580Q100 -1630 172 -1630H394V-1768Q394 -1796 414 -1816Q434 -1836 462 -1836H632Q660 -1836 681 -1816Q702 -1796 702 -1768V-1630H1214V-1768Q1214 -1796 1235 -1816Q1256 -1836 1284 -1836H1454Q1482 -1836 1502 -1816Q1522 -1796 1522 -1768Z"/>
</svg>