<svg xmlns="http://www.w3.org/2000/svg" viewBox="0 -1920 2048 2048">
	<path transform="translate(0 -15)" d="M380 -500Q348 -500 326 -522Q304 -544 304 -576Q304 -608 326 -630Q348 -652 380 -652H658Q690 -652 711 -630Q732 -608 732 -576Q732 -544 711 -522Q690 -500 658 -500ZM1442 -584Q1442 -550 1417 -525Q1392 -500 1358 -500H1068Q1034 -500 1010 -525Q986 -550 986 -584V-872Q986 -906 1010 -931Q1034 -956 1068 -956H1358Q1392 -956 1417 -931Q1442 -906 1442 -872ZM380 -804Q348 -804 326 -826Q304 -848 304 -880Q304 -912 326 -934Q348 -956 380 -956H796Q828 -956 850 -934Q872 -912 872 -880Q872 -848 850 -826Q828 -804 796 -804ZM1592 -348V-1108Q1592 -1124 1581 -1135Q1570 -1146 1554 -1146H190Q174 -1146 163 -1135Q152 -1124 152 -1108V-348Q152 -332 163 -321Q174 -310 190 -310H1554Q1570 -310 1581 -321Q1592 -332 1592 -348ZM1896 -652V-1410Q1896 -1448 1858 -1448H494Q456 -1448 456 -1410V-1298H1592Q1656 -1298 1700 -1253Q1744 -1208 1744 -1146V-614H1858Q1874 -614 1885 -625Q1896 -636 1896 -652ZM456 -1600H1896Q1960 -1600 2004 -1556Q2048 -1512 2048 -1448V-614Q2048 -552 2004 -507Q1960 -462 1896 -462H1744V-310Q1744 -248 1699 -204Q1654 -160 1592 -160H152Q90 -160 45 -204Q0 -248 0 -310V-1146Q0 -1208 44 -1253Q88 -1298 152 -1298H304V-1448Q304 -1512 348 -1556Q392 -1600 456 -1600Z"/>
</svg>