<svg xmlns="http://www.w3.org/2000/svg" viewBox="0 -1920 2048 2048">
	<path d="M1375 -735Q1442 -668 1536 -668Q1630 -668 1697 -735Q1764 -802 1764 -896Q1764 -990 1697 -1057Q1630 -1124 1536 -1124Q1442 -1124 1375 -1057Q1308 -990 1308 -896Q1308 -802 1375 -735ZM351 -735Q418 -668 512 -668Q606 -668 673 -735Q740 -802 740 -896Q740 -990 673 -1057Q606 -1124 512 -1124Q418 -1124 351 -1057Q284 -990 284 -896Q284 -802 351 -735ZM1962 -1124Q1998 -1124 2023 -1099Q2048 -1074 2048 -1039Q2048 -1004 2023 -978Q1998 -952 1962 -952H1930Q1934 -916 1934 -896Q1934 -732 1817 -615Q1700 -498 1536 -498Q1372 -498 1255 -615Q1138 -732 1138 -896Q1138 -940 1146 -972L1144 -970Q1092 -1008 1024 -1008Q956 -1008 904 -970L902 -972Q910 -940 910 -896Q910 -732 793 -615Q676 -498 512 -498Q348 -498 231 -615Q114 -732 114 -896Q114 -916 118 -952H86Q50 -952 25 -978Q0 -1004 0 -1039Q0 -1074 25 -1099Q50 -1124 86 -1124H186Q242 -1202 328 -1248Q414 -1294 512 -1294Q714 -1294 834 -1128Q922 -1180 1024 -1180Q1126 -1180 1214 -1128Q1334 -1294 1536 -1294Q1634 -1294 1720 -1248Q1806 -1202 1862 -1124Z"/>
</svg>