<svg xmlns="http://www.w3.org/2000/svg" viewBox="0 -1920 2048 2048">
	<path transform="translate(52 0)" d="M1240 -464L1088 -614V-2Q1088 46 1054 80Q1020 114 972 114Q924 114 890 80Q856 46 856 -2V-614L704 -464Q670 -430 622 -430Q574 -430 540 -464Q506 -498 506 -547Q506 -596 540 -628L890 -978Q924 -1012 972 -1012Q1020 -1012 1054 -978L1404 -628Q1438 -596 1438 -547Q1438 -498 1404 -464Q1370 -430 1322 -430Q1274 -430 1240 -464ZM118 -1402H1826Q1876 -1402 1910 -1368Q1944 -1334 1944 -1285Q1944 -1236 1910 -1202Q1876 -1168 1826 -1168H118Q68 -1168 34 -1202Q0 -1236 0 -1285Q0 -1334 34 -1368Q68 -1402 118 -1402ZM1826 -1674H118Q68 -1674 34 -1708Q0 -1742 0 -1790Q0 -1838 34 -1872Q68 -1906 118 -1906H1826Q1876 -1906 1910 -1872Q1944 -1838 1944 -1790Q1944 -1742 1910 -1708Q1876 -1674 1826 -1674Z"/>
</svg>