<svg xmlns="http://www.w3.org/2000/svg" viewBox="0 -1920 2048 2048">
	<path d="M916 -259Q960 -214 1024 -214Q1088 -214 1132 -259Q1176 -304 1176 -366Q1176 -428 1131 -472Q1086 -516 1024 -516Q962 -516 917 -472Q872 -428 872 -366Q872 -304 916 -259ZM644 -1124Q644 -1076 678 -1043Q712 -1010 759 -1010Q806 -1010 839 -1043Q872 -1076 872 -1139Q872 -1202 928 -1258Q984 -1314 1062 -1314Q1140 -1314 1196 -1258Q1252 -1202 1252 -1124Q1252 -1046 1196 -990Q1140 -934 1062 -934H1024Q978 -934 944 -900Q910 -866 910 -820V-726Q910 -678 944 -645Q978 -612 1023 -612Q1068 -612 1100 -641Q1132 -670 1136 -714Q1284 -740 1382 -856Q1480 -972 1480 -1134Q1480 -1296 1357 -1418Q1234 -1540 1062 -1540Q890 -1540 767 -1418Q644 -1296 644 -1124ZM627 -1839Q816 -1920 1024 -1920Q1232 -1920 1421 -1839Q1610 -1758 1748 -1620Q1886 -1482 1967 -1293Q2048 -1104 2048 -896Q2048 -688 1967 -499Q1886 -310 1748 -172Q1610 -34 1421 47Q1232 128 1024 128Q816 128 627 47Q438 -34 300 -172Q162 -310 81 -499Q0 -688 0 -896Q0 -1104 81 -1293Q162 -1482 300 -1620Q438 -1758 627 -1839Z"/>
</svg>