<svg xmlns="http://www.w3.org/2000/svg" viewBox="0 -1920 2048 2048">
	<path d="M910 -404V-820Q910 -868 944 -901Q978 -934 1024 -934Q1070 -934 1104 -901Q1138 -868 1138 -820V-404Q1138 -356 1104 -323Q1070 -290 1024 -290Q978 -290 944 -323Q910 -356 910 -404ZM904 -1376Q954 -1426 1024 -1426Q1094 -1426 1144 -1376Q1194 -1326 1194 -1256Q1194 -1186 1144 -1136Q1094 -1086 1024 -1086Q954 -1086 904 -1136Q854 -1186 854 -1256Q854 -1326 904 -1376ZM1587 -1459Q1354 -1692 1024 -1692Q694 -1692 461 -1459Q228 -1226 228 -896Q228 -566 461 -333Q694 -100 1024 -100Q1354 -100 1587 -333Q1820 -566 1820 -896Q1820 -1226 1587 -1459ZM1421 47Q1232 128 1024 128Q816 128 627 47Q438 -34 300 -172Q162 -310 81 -499Q0 -688 0 -896Q0 -1104 81 -1293Q162 -1482 300 -1620Q438 -1758 627 -1839Q816 -1920 1024 -1920Q1232 -1920 1421 -1839Q1610 -1758 1748 -1620Q1886 -1482 1967 -1293Q2048 -1104 2048 -896Q2048 -688 1967 -499Q1886 -310 1748 -172Q1610 -34 1421 47Z"/>
</svg>