<svg xmlns="http://www.w3.org/2000/svg" viewBox="0 -1920 2048 2048">
	<path d="M1764 -332H1624V-84H1764ZM424 -332H284V-84H424ZM1764 -790H1624V-544H1764ZM1448 -790H600V-84H1448ZM424 -790H284V-544H424ZM1764 -1248H1624V-1002H1764ZM424 -1248H284V-1002H424ZM1764 -1708H1624V-1460H1764ZM1448 -1708H600V-1002H1448ZM424 -1708H284V-1460H424ZM284 -1920H1764Q1838 -1920 1890 -1868Q1942 -1816 1942 -1742V-50Q1942 24 1890 76Q1838 128 1764 128H284Q210 128 158 76Q106 24 106 -50V-1742Q106 -1816 158 -1868Q210 -1920 284 -1920Z"/>
</svg>