<svg xmlns="http://www.w3.org/2000/svg" viewBox="0 -1920 2048 2048">
	<path d="M1236 -434Q1324 -346 1324 -222Q1324 -98 1236 -10Q1148 78 1024 78Q900 78 812 -10Q724 -98 724 -222Q724 -346 812 -434Q900 -522 1024 -522Q1148 -522 1236 -434ZM1360 -626L1320 -656Q1280 -686 1196 -716Q1112 -746 1048 -746Q984 -746 943 -739Q902 -732 870 -722Q808 -703 757 -673Q706 -643 696 -632L686 -626Q652 -594 606 -597Q560 -600 528 -634Q496 -668 499 -714Q502 -760 528 -785Q554 -810 602 -844Q650 -878 773 -924Q896 -970 1024 -970Q1290 -970 1512 -792Q1546 -760 1548 -714Q1550 -668 1519 -632Q1488 -596 1440 -596Q1392 -596 1360 -626ZM1614 -972L1586 -1000Q1574 -1012 1514 -1053Q1454 -1094 1394 -1121Q1334 -1148 1233 -1172Q1132 -1196 1025 -1196Q918 -1196 818 -1173Q580 -1118 434 -972Q402 -936 356 -933Q310 -930 275 -961Q240 -992 237 -1039Q234 -1086 266 -1120Q302 -1163 385 -1221Q468 -1280 549 -1319Q630 -1358 759 -1389Q888 -1420 1024 -1420Q1160 -1420 1289 -1389Q1418 -1358 1499 -1319Q1580 -1280 1663 -1221Q1746 -1162 1782 -1120Q1814 -1086 1810 -1039Q1806 -992 1774 -963Q1742 -934 1694 -934Q1646 -934 1614 -972ZM688 -1602Q384 -1522 206 -1344Q174 -1310 128 -1308Q82 -1306 48 -1338Q14 -1370 12 -1418Q10 -1466 42 -1498Q74 -1530 108 -1559Q142 -1588 237 -1649Q332 -1710 435 -1754Q538 -1798 697 -1834Q856 -1870 1028 -1870Q1200 -1870 1366 -1831Q1532 -1792 1634 -1746Q1736 -1700 1834 -1633Q1932 -1566 1956 -1544Q1980 -1522 2008 -1493Q2036 -1464 2035 -1417Q2034 -1370 2000 -1339Q1966 -1308 1919 -1308Q1872 -1308 1839 -1347Q1806 -1386 1715 -1445Q1624 -1504 1535 -1544Q1446 -1584 1308 -1615Q1170 -1646 1010 -1646Q850 -1646 688 -1602Z"/>
</svg>