<svg xmlns="http://www.w3.org/2000/svg" viewBox="0 -1920 2048 2048">
	<path d="M1988 -76L1844 68Q1834 78 1822 78Q1810 78 1796 68L1452 -276L1416 -26Q1407 28 1356 32H1350Q1302 32 1286 -12L968 -866Q952 -906 983 -937Q1014 -968 1054 -952L1910 -634Q1958 -614 1953 -563Q1948 -512 1894 -504L1644 -468L1988 -124Q1998 -114 1998 -100Q1998 -86 1988 -76ZM286 -246H930Q972 -246 1002 -216Q1032 -186 1032 -144Q1032 -102 1002 -73Q972 -44 930 -44H220Q150 -44 100 -93Q50 -142 50 -212V-1700Q50 -1770 100 -1820Q150 -1870 220 -1870H1708Q1778 -1870 1827 -1820Q1876 -1770 1876 -1700V-990Q1876 -948 1847 -919Q1818 -890 1776 -890Q1734 -890 1704 -919Q1674 -948 1674 -990V-1634Q1674 -1648 1664 -1658Q1654 -1668 1640 -1668H286Q272 -1668 262 -1658Q252 -1648 252 -1634V-280Q252 -266 262 -256Q272 -246 286 -246Z"/>
</svg>