<svg xmlns="http://www.w3.org/2000/svg" viewBox="0 -1920 2048 2048">
	<path d="M1024 -128Q808 -128 628 -238L528 -108Q510 -86 492 -86Q438 -86 426 -130L334 -524Q328 -550 344 -571Q360 -592 388 -592L792 -606Q828 -606 844 -575Q860 -544 838 -514L732 -376Q870 -298 1024 -298Q1272 -298 1447 -473Q1622 -648 1622 -896Q1622 -1144 1447 -1319Q1272 -1494 1024 -1494Q776 -1494 601 -1319Q426 -1144 426 -896Q426 -860 401 -835Q376 -810 341 -810Q306 -810 281 -835Q256 -860 256 -896Q256 -1214 481 -1439Q706 -1664 1024 -1664Q1342 -1664 1567 -1439Q1792 -1214 1792 -896Q1792 -578 1567 -353Q1342 -128 1024 -128Z"/>
</svg>