<svg xmlns="http://www.w3.org/2000/svg" viewBox="0 -1920 2048 2048">
	<path d="M1304 -698Q1394 -794 1394 -896Q1394 -998 1304 -1094Q1280 -1120 1280 -1155Q1280 -1190 1306 -1214Q1332 -1238 1367 -1237Q1402 -1236 1428 -1210Q1564 -1066 1564 -896Q1564 -726 1428 -582Q1400 -554 1365 -554Q1330 -554 1305 -578Q1280 -602 1280 -637Q1280 -672 1304 -698ZM1560 -528Q1706 -680 1706 -896Q1706 -1112 1560 -1264Q1536 -1290 1536 -1325Q1536 -1360 1562 -1384Q1588 -1408 1623 -1408Q1658 -1408 1684 -1382Q1874 -1182 1878 -896Q1874 -610 1684 -410Q1658 -384 1622 -384Q1586 -384 1561 -408Q1536 -432 1536 -467Q1536 -502 1560 -528ZM1194 -1578V-214Q1194 -154 1141 -134Q1088 -114 1048 -154L618 -612H284Q250 -612 225 -637Q200 -662 200 -696V-1096Q200 -1130 225 -1155Q250 -1180 284 -1180H618L1048 -1638Q1088 -1678 1141 -1658Q1194 -1638 1194 -1578Z"/>
</svg>