<svg xmlns="http://www.w3.org/2000/svg" viewBox="0 -1920 2048 2048">
	<path d="M1910 -608Q1884 -584 1850 -584Q1816 -584 1788 -608L1622 -776L1454 -608Q1430 -584 1394 -584Q1358 -584 1333 -609Q1308 -634 1308 -669Q1308 -704 1334 -728L1500 -896L1334 -1064Q1308 -1088 1308 -1123Q1308 -1158 1333 -1184Q1358 -1210 1393 -1210Q1428 -1210 1454 -1184L1622 -1016L1788 -1184Q1814 -1210 1849 -1210Q1884 -1210 1909 -1184Q1934 -1158 1934 -1123Q1934 -1088 1910 -1064L1742 -896L1910 -728Q1934 -704 1934 -669Q1934 -634 1910 -608ZM1194 -1578V-214Q1194 -154 1141 -134Q1088 -114 1048 -154L618 -612H284Q250 -612 225 -637Q200 -662 200 -696V-1096Q200 -1130 225 -1155Q250 -1180 284 -1180H618L1048 -1638Q1088 -1678 1141 -1658Q1194 -1638 1194 -1578Z"/>
</svg>