<svg xmlns="http://www.w3.org/2000/svg" viewBox="0 -1920 2048 2048">
	<path d="M1768 -152Q1740 -128 1705 -128Q1670 -128 1646 -152L1252 -548V-356Q1252 -320 1227 -295Q1202 -270 1167 -270Q1132 -270 1106 -295Q1080 -320 1080 -356V-754Q1080 -788 1106 -814Q1132 -840 1166 -840H1564Q1600 -840 1625 -814Q1650 -788 1650 -753Q1650 -718 1625 -693Q1600 -668 1564 -668H1372L1768 -274Q1792 -248 1792 -213Q1792 -178 1768 -152ZM968 -1436V-1038Q968 -1004 942 -978Q916 -952 882 -952H484Q448 -952 423 -978Q398 -1004 398 -1039Q398 -1074 423 -1099Q448 -1124 484 -1124H676L280 -1518Q256 -1544 256 -1579Q256 -1614 280 -1640Q306 -1664 341 -1664Q376 -1664 402 -1640L796 -1244V-1436Q796 -1472 821 -1497Q846 -1522 881 -1522Q916 -1522 942 -1497Q968 -1472 968 -1436Z"/>
</svg>