<svg xmlns="http://www.w3.org/2000/svg" viewBox="0 -1920 2048 2048">
	<path d="M1792 -612V-214Q1792 -178 1767 -153Q1742 -128 1706 -128H1308Q1274 -128 1249 -153Q1224 -178 1224 -213Q1224 -248 1249 -273Q1274 -298 1308 -298H1500L1106 -694Q1080 -718 1080 -753Q1080 -788 1106 -814Q1132 -840 1167 -840Q1202 -840 1226 -814L1622 -420V-612Q1622 -646 1647 -671Q1672 -696 1707 -696Q1742 -696 1767 -671Q1792 -646 1792 -612ZM822 -978L426 -1372V-1180Q426 -1146 401 -1121Q376 -1096 341 -1096Q306 -1096 281 -1121Q256 -1146 256 -1180V-1578Q256 -1614 281 -1639Q306 -1664 342 -1664H740Q774 -1664 799 -1639Q824 -1614 824 -1579Q824 -1544 799 -1519Q774 -1494 740 -1494H548L942 -1098Q968 -1074 968 -1039Q968 -1004 942 -978Q916 -952 882 -952Q848 -952 822 -978Z"/>
</svg>