<svg xmlns="http://www.w3.org/2000/svg" viewBox="0 -1920 2048 2048">
	<path transform="translate(350 0)" d="M886 -1262Q886 -1090 982 -990Q1078 -890 1228 -890Q1284 -890 1340 -904V-720Q1236 -698 1156 -698Q1070 -514 932 -353Q794 -192 721 -150Q648 -108 572 -152Q534 -176 488 -218Q442 -260 366 -363Q290 -466 225 -599Q160 -732 97 -953Q34 -1174 0 -1438H260Q304 -1052 405 -808Q506 -564 660 -376Q812 -528 924 -752Q794 -820 719 -957Q644 -1094 644 -1268Q644 -1442 740 -1556Q836 -1670 1000 -1670Q1164 -1670 1252 -1572Q1340 -1474 1340 -1313Q1340 -1152 1286 -1032Q1214 -1016 1159 -1034Q1104 -1052 1084 -1078L1064 -1104Q1092 -1198 1092 -1276Q1092 -1354 1065 -1396Q1038 -1438 991 -1438Q944 -1438 915 -1392Q886 -1346 886 -1262Z"/>
</svg>