<svg xmlns="http://www.w3.org/2000/svg" viewBox="0 -1920 2048 2048">
	<path transform="scale(0.8, 0.8) translate(51 -220)" d="M2442 -840L2162 -564Q2144 -546 2126 -546Q2108 -546 2100 -552Q2066 -564 2066 -602V-1162Q2066 -1196 2100 -1212Q2134 -1228 2162 -1200L2442 -920Q2458 -906 2458 -885Q2458 -864 2442 -840ZM392 -1162V-602Q392 -564 358 -552Q350 -546 332 -546Q314 -546 296 -564L16 -840Q0 -864 0 -885Q0 -906 16 -920L296 -1200Q324 -1228 358 -1212Q392 -1196 392 -1162ZM1788 -662Q1788 -496 1693 -360Q1598 -224 1439 -165Q1280 -106 1110 -154Q940 -202 834 -347Q728 -492 728 -674Q725 -787 708 -841Q692 -896 663 -954Q634 -1012 653 -1075Q672 -1138 742 -1138Q784 -1138 822 -1103Q896 -1035 948 -866H950V-1558Q950 -1608 990 -1642Q1030 -1676 1077 -1667Q1124 -1658 1149 -1626Q1174 -1594 1174 -1552V-1082Q1174 -1134 1214 -1167Q1254 -1200 1301 -1191Q1348 -1182 1373 -1150Q1398 -1118 1398 -1078V-1044Q1446 -1094 1510 -1078Q1546 -1070 1569 -1038Q1592 -1006 1592 -968V-932Q1626 -970 1673 -970Q1720 -970 1752 -940Q1784 -910 1788 -866Z"/>
</svg>