<svg xmlns="http://www.w3.org/2000/svg" viewBox="0 -1920 2048 2048">
	<path transform="translate(345 -5)" d="M678 -1344Q822 -1344 924 -1245Q1026 -1146 1026 -1006Q1026 -866 924 -768Q822 -670 678 -670Q534 -670 432 -768Q330 -866 330 -1006Q330 -1072 354 -1128Q396 -1064 466 -1064Q536 -1064 578 -1105Q620 -1146 620 -1213Q620 -1280 554 -1322Q614 -1344 678 -1344ZM1200 -1002Q1200 -1212 1048 -1362Q896 -1512 680 -1512Q464 -1512 310 -1362Q156 -1212 156 -1002Q156 -900 222 -767Q288 -634 377 -528Q466 -422 554 -349Q642 -276 691 -276Q740 -276 862 -394Q984 -512 1092 -690Q1200 -868 1200 -1002ZM1356 -1002Q1356 -844 1237 -632Q1118 -420 958 -270Q798 -120 683 -120Q568 -120 404 -269Q240 -418 120 -630Q0 -842 0 -1002Q0 -1278 201 -1474Q402 -1670 681 -1670Q960 -1670 1158 -1473Q1356 -1276 1356 -1002Z"/>
</svg>