<svg xmlns="http://www.w3.org/2000/svg" viewBox="0 -1920 2048 2048">
	<path transform="translate(133 25)" d="M552 -648Q552 -554 620 -490L158 -28Q130 0 93 0Q56 0 28 -28Q0 -56 0 -94Q0 -132 28 -158L552 -684ZM1172 -874L804 -598Q788 -586 770 -586Q752 -586 740 -592Q706 -608 706 -648V-1200Q706 -1236 740 -1254Q774 -1272 804 -1248L1172 -972Q1198 -952 1198 -923Q1198 -894 1172 -874ZM1534 -922Q1534 -1038 1494 -1146L1634 -1286Q1718 -1114 1718 -922Q1718 -578 1476 -335Q1234 -92 890 -92Q702 -92 524 -178L666 -318Q774 -278 890 -278Q1156 -278 1345 -467Q1534 -656 1534 -922ZM246 -922Q246 -782 306 -652L168 -516Q62 -704 62 -922Q62 -1264 305 -1507Q548 -1750 890 -1750Q1108 -1750 1296 -1644L1158 -1506Q1032 -1566 890 -1566Q624 -1566 435 -1377Q246 -1188 246 -922ZM1784 -1654L1242 -1112L1094 -1224L1654 -1784Q1680 -1812 1718 -1812Q1756 -1812 1784 -1784Q1812 -1756 1812 -1718Q1812 -1680 1784 -1654Z"/>
</svg>