<svg xmlns="http://www.w3.org/2000/svg" viewBox="0 -1920 2048 2048">
	<path d="M1306 -642Q1442 -642 1522 -754L1420 -826Q1370 -766 1314 -766Q1258 -766 1225 -804Q1192 -842 1192 -897Q1192 -952 1225 -990Q1258 -1028 1314 -1028Q1370 -1028 1416 -970L1520 -1050Q1446 -1152 1323 -1152Q1200 -1152 1126 -1079Q1052 -1006 1052 -898V-896Q1052 -788 1126 -715Q1200 -642 1306 -642ZM794 -640Q928 -640 1012 -752L908 -824Q862 -764 805 -764Q748 -764 715 -802Q682 -840 682 -896V-898Q682 -952 715 -990Q748 -1028 803 -1028Q858 -1028 906 -970L1008 -1048Q934 -1152 811 -1152Q688 -1152 614 -1078Q540 -1004 540 -896V-894Q540 -786 614 -713Q688 -640 794 -640ZM456 -1578H1592Q1686 -1578 1753 -1511Q1820 -1444 1820 -1350V-442Q1820 -348 1753 -281Q1686 -214 1592 -214H456Q362 -214 295 -281Q228 -348 228 -442V-1350Q228 -1444 295 -1511Q362 -1578 456 -1578Z"/>
</svg>