<svg xmlns="http://www.w3.org/2000/svg" viewBox="0 -1920 2048 2048">
	<path d="M1764 -668V-242Q1764 -206 1739 -181Q1714 -156 1678 -156H1252Q1216 -156 1191 -181Q1166 -206 1166 -241Q1166 -276 1191 -302Q1216 -328 1252 -328H1564Q1592 -328 1592 -356V-668Q1592 -704 1618 -729Q1644 -754 1679 -754Q1714 -754 1739 -729Q1764 -704 1764 -668ZM484 -328H796Q832 -328 857 -302Q882 -276 882 -241Q882 -206 857 -181Q832 -156 796 -156H370Q334 -156 309 -181Q284 -206 284 -242V-668Q284 -704 309 -729Q334 -754 369 -754Q404 -754 430 -729Q456 -704 456 -668V-356Q456 -328 484 -328ZM1252 -1636H1678Q1714 -1636 1739 -1611Q1764 -1586 1764 -1550V-1124Q1764 -1088 1739 -1063Q1714 -1038 1679 -1038Q1644 -1038 1618 -1063Q1592 -1088 1592 -1124V-1436Q1592 -1464 1564 -1464H1252Q1216 -1464 1191 -1490Q1166 -1516 1166 -1551Q1166 -1586 1191 -1611Q1216 -1636 1252 -1636ZM370 -1636H796Q832 -1636 857 -1611Q882 -1586 882 -1551Q882 -1516 857 -1490Q832 -1464 796 -1464H484Q456 -1464 456 -1436V-1124Q456 -1088 430 -1063Q404 -1038 369 -1038Q334 -1038 309 -1063Q284 -1088 284 -1124V-1550Q284 -1586 309 -1611Q334 -1636 370 -1636Z"/>
</svg>