<svg xmlns="http://www.w3.org/2000/svg" viewBox="0 -1920 2048 2048">
	<path d="M1224 -782H1650Q1684 -782 1710 -757Q1736 -732 1736 -697Q1736 -662 1710 -637Q1684 -612 1650 -612H1336Q1326 -612 1317 -603Q1308 -594 1308 -584V-270Q1308 -236 1283 -210Q1258 -184 1223 -184Q1188 -184 1163 -210Q1138 -236 1138 -270V-696Q1138 -732 1163 -757Q1188 -782 1224 -782ZM398 -782H824Q860 -782 885 -757Q910 -732 910 -696V-270Q910 -236 885 -210Q860 -184 825 -184Q790 -184 765 -210Q740 -236 740 -270V-584Q740 -594 731 -603Q722 -612 712 -612H398Q364 -612 338 -637Q312 -662 312 -697Q312 -732 338 -757Q364 -782 398 -782ZM1650 -1010H1224Q1188 -1010 1163 -1035Q1138 -1060 1138 -1096V-1522Q1138 -1556 1163 -1582Q1188 -1608 1223 -1608Q1258 -1608 1283 -1582Q1308 -1556 1308 -1522V-1208Q1308 -1198 1317 -1189Q1326 -1180 1336 -1180H1650Q1684 -1180 1710 -1155Q1736 -1130 1736 -1095Q1736 -1060 1710 -1035Q1684 -1010 1650 -1010ZM910 -1522V-1096Q910 -1060 885 -1035Q860 -1010 824 -1010H398Q364 -1010 338 -1035Q312 -1060 312 -1095Q312 -1130 338 -1155Q364 -1180 398 -1180H712Q722 -1180 731 -1189Q740 -1198 740 -1208V-1522Q740 -1556 765 -1582Q790 -1608 825 -1608Q860 -1608 885 -1582Q910 -1556 910 -1522Z"/>
</svg>