<svg xmlns="http://www.w3.org/2000/svg" viewBox="0 -1920 2048 2048">
	<path transform="translate(-25 -25)" d="M1306 -1238H1638Q1696 -1238 1737 -1198Q1778 -1158 1778 -1100V-296Q1778 -238 1736 -197Q1694 -156 1636 -156H836Q778 -156 736 -197Q694 -238 694 -296V-628Q694 -662 719 -686Q744 -710 778 -710Q812 -710 837 -686Q862 -662 862 -628V-350Q862 -322 888 -322H1584Q1610 -322 1610 -350V-1044Q1610 -1072 1584 -1072H1306Q1272 -1072 1247 -1097Q1222 -1122 1222 -1156Q1222 -1190 1247 -1214Q1272 -1238 1306 -1238ZM1056 -1378V-932Q1056 -898 1031 -874Q1006 -850 972 -850H528Q494 -850 469 -874Q444 -898 444 -932Q444 -966 469 -991Q494 -1016 528 -1016H772L302 -1484Q278 -1510 278 -1544Q278 -1578 302 -1603Q326 -1628 361 -1628Q396 -1628 420 -1602L888 -1134V-1378Q888 -1412 913 -1436Q938 -1460 972 -1460Q1006 -1460 1031 -1436Q1056 -1412 1056 -1378Z"/>
</svg>