<svg xmlns="http://www.w3.org/2000/svg" viewBox="0 -1920 2048 2048">
	<path transform="translate(70 0)" d="M1383 -378Q1424 -336 1482 -336Q1540 -336 1582 -378Q1624 -420 1624 -478Q1624 -536 1582 -578Q1540 -620 1482 -620Q1424 -620 1383 -578Q1342 -536 1342 -478Q1342 -420 1383 -378ZM324 -378Q366 -336 424 -336Q482 -336 523 -378Q564 -420 564 -478Q564 -536 523 -578Q482 -620 424 -620Q366 -620 324 -578Q282 -536 282 -478Q282 -420 324 -378ZM636 -1326H424Q378 -1326 325 -1237Q272 -1148 242 -1060L212 -972H636ZM848 -1608H1694Q1782 -1608 1844 -1546Q1906 -1484 1906 -1398V-618Q1906 -548 1865 -493Q1824 -438 1758 -418Q1736 -322 1659 -259Q1582 -196 1483 -196Q1384 -196 1308 -256Q1232 -316 1210 -408H696Q674 -316 598 -256Q522 -196 423 -196Q324 -196 247 -259Q170 -322 148 -418Q82 -438 41 -493Q0 -548 0 -618V-832Q0 -908 58 -948L78 -1014Q214 -1466 424 -1466H716Q728 -1516 739 -1542Q767 -1608 848 -1608Z"/>
</svg>