<svg xmlns="http://www.w3.org/2000/svg" viewBox="0 -1920 2048 2048">
	<path transform="translate(75 -25)" d="M1304 -698V-578H772V-698ZM652 -698V-578H356V-698ZM1258 -910L1436 -1148Q1450 -1168 1474 -1171Q1498 -1174 1518 -1159Q1538 -1144 1541 -1120Q1544 -1096 1530 -1076L1352 -840Q1334 -816 1309 -816Q1284 -816 1267 -830Q1250 -844 1247 -867Q1244 -890 1258 -910ZM972 -828Q928 -862 960 -910L1138 -1148Q1154 -1168 1178 -1171Q1202 -1174 1222 -1159Q1242 -1144 1245 -1120Q1248 -1096 1234 -1076L1056 -840Q1038 -816 1014 -816Q990 -816 972 -828ZM664 -910L842 -1148Q858 -1168 882 -1171Q906 -1174 926 -1160Q946 -1146 949 -1121Q952 -1096 938 -1076L760 -840Q742 -816 717 -816Q692 -816 674 -830Q656 -844 653 -867Q650 -890 664 -910ZM368 -910L546 -1148Q562 -1168 585 -1171Q608 -1174 628 -1159Q648 -1144 651 -1120Q654 -1096 640 -1076L462 -840Q444 -816 420 -816Q396 -816 378 -830Q360 -844 357 -867Q354 -890 368 -910ZM238 -1290V-460H1660V-1290ZM238 -1528H1660Q1760 -1528 1829 -1458Q1898 -1388 1898 -1290V-460Q1898 -360 1829 -291Q1760 -222 1660 -222H238Q140 -222 70 -291Q0 -360 0 -460V-1290Q0 -1388 70 -1458Q140 -1528 238 -1528Z"/>
</svg>