<svg xmlns="http://www.w3.org/2000/svg" viewBox="0 -1920 2048 2048">
	<path transform="translate(50 -25)" d="M1041 -977Q1010 -1026 972 -1026Q934 -1026 903 -977Q872 -928 872 -857Q872 -786 903 -738Q934 -690 972 -690Q1010 -690 1041 -738Q1072 -786 1072 -857Q1072 -928 1041 -977ZM1187 -595Q1100 -488 972 -488Q844 -488 757 -595Q670 -702 670 -857Q670 -1012 757 -1119Q844 -1226 972 -1226Q1100 -1226 1187 -1119Q1274 -1012 1274 -857Q1274 -702 1187 -595ZM434 -422H1510Q1522 -514 1587 -579Q1652 -644 1744 -654V-1094Q1652 -1106 1587 -1171Q1522 -1236 1510 -1328H434Q422 -1236 357 -1171Q292 -1106 200 -1094V-654Q292 -644 357 -579Q422 -514 434 -422ZM168 -1528H1776Q1846 -1528 1895 -1479Q1944 -1430 1944 -1360V-388Q1944 -318 1895 -269Q1846 -220 1776 -220H168Q98 -220 49 -269Q0 -318 0 -388V-1360Q0 -1430 49 -1479Q98 -1528 168 -1528Z"/>
</svg>