<svg xmlns="http://www.w3.org/2000/svg" viewBox="0 -1920 2048 2048">
	<path transform="translate(0 -35)" d="M1240 -544L906 -778Q906 -780 904 -780Q862 -812 862 -862V-1194Q862 -1236 892 -1265Q922 -1294 963 -1294Q1004 -1294 1034 -1265Q1064 -1236 1064 -1194V-914L1356 -708Q1390 -686 1397 -644Q1404 -602 1376 -564Q1348 -526 1308 -526Q1268 -526 1240 -544ZM998 44Q734 44 507 -101Q280 -246 170 -494Q152 -534 167 -572Q182 -610 220 -628Q260 -644 298 -629Q336 -614 354 -576Q472 -310 743 -205Q1014 -100 1282 -218Q1456 -294 1567 -449Q1678 -604 1695 -783Q1712 -962 1640 -1146Q1562 -1320 1408 -1431Q1254 -1542 1075 -1560Q896 -1578 712 -1504Q540 -1428 428 -1276L614 -1164Q640 -1148 639 -1119Q638 -1090 608 -1076L112 -854Q104 -850 90 -850Q47 -850 40 -896L0 -1440Q0 -1470 24 -1486Q50 -1502 76 -1486L256 -1378Q402 -1586 630 -1688Q974 -1840 1322 -1704Q1492 -1640 1621 -1517Q1750 -1394 1824 -1227Q1898 -1060 1900 -878Q1902 -696 1840 -536Q1778 -376 1654 -242Q1530 -108 1357 -32Q1184 44 998 44Z"/>
</svg>