<svg xmlns="http://www.w3.org/2000/svg" viewBox="0 -1920 2048 2048">
	<path transform="translate(85 -25)" d="M368 -236Q354 -236 345 -246Q336 -256 336 -270V-404Q336 -418 345 -428Q354 -438 368 -438H1240Q1254 -438 1264 -428Q1274 -418 1274 -404V-270Q1274 -256 1264 -246Q1254 -236 1240 -236ZM1474 -102V-572Q1474 -586 1464 -596Q1454 -606 1440 -606H234Q220 -606 211 -596Q202 -586 202 -572V-102Q202 -70 234 -70H1440Q1474 -70 1474 -102ZM402 -974Q388 -974 378 -984Q368 -994 368 -1008V-1142Q368 -1156 378 -1165Q388 -1174 402 -1174H1274Q1306 -1174 1306 -1142V-1008Q1306 -974 1274 -974ZM202 -1308V-840Q202 -806 234 -806H1440Q1474 -806 1474 -840V-1308Q1474 -1342 1440 -1342H234Q202 -1342 202 -1308ZM1742 -1878Q1798 -1878 1837 -1839Q1876 -1800 1876 -1744V-236Q1876 -202 1856 -176L1654 92Q1624 132 1574 132H134Q78 132 39 93Q0 54 0 -2V-1410Q0 -1444 22 -1472L314 -1840Q346 -1882 402 -1878Z"/>
</svg>