<svg xmlns="http://www.w3.org/2000/svg" viewBox="0 -1920 2048 2048">
	<path transform="translate(85 -25)" d="M402 -602Q388 -602 378 -612Q368 -622 368 -636V-770Q368 -784 378 -794Q388 -804 402 -804H1274Q1288 -804 1297 -794Q1306 -784 1306 -770V-636Q1306 -622 1297 -612Q1288 -602 1274 -602ZM1474 -304V-1108Q1474 -1122 1464 -1132Q1454 -1142 1440 -1142H234Q220 -1142 211 -1132Q202 -1122 202 -1108V-304Q202 -270 234 -270H1440Q1474 -270 1474 -304ZM336 -1342H1514L1594 -1476H442ZM402 -1678H1742Q1798 -1678 1837 -1638Q1876 -1598 1876 -1544V-438Q1876 -404 1856 -378L1654 -110L1652 -106Q1644 -98 1642 -94L1634 -90Q1632 -86 1618 -79Q1600 -70 1574 -70H134Q78 -70 39 -109Q0 -148 0 -204V-1208Q0 -1242 22 -1270L314 -1640Q350 -1682 402 -1676Z"/>
</svg>