<svg xmlns="http://www.w3.org/2000/svg" viewBox="0 -1920 2048 2048">
	<path transform="translate(120 -25)" d="M436 -372Q402 -372 402 -406V-808Q402 -840 436 -840H1374Q1406 -840 1406 -808V-406Q1406 -372 1374 -372ZM436 -974Q422 -974 412 -984Q402 -994 402 -1008V-1076Q402 -1108 436 -1108H1374Q1406 -1108 1406 -1076V-1008Q1406 -994 1397 -984Q1388 -974 1374 -974ZM436 -1242Q422 -1242 412 -1252Q402 -1262 402 -1276V-1344Q402 -1376 436 -1376H1374Q1406 -1376 1406 -1344V-1276Q1406 -1262 1397 -1252Q1388 -1242 1374 -1242ZM1608 -204V-1544Q1608 -1558 1598 -1568Q1588 -1578 1574 -1578H234Q220 -1578 210 -1568Q200 -1558 200 -1544V-204Q200 -190 210 -180Q220 -170 234 -170H1574Q1588 -170 1598 -180Q1608 -190 1608 -204ZM168 -1778H1642Q1712 -1778 1760 -1729Q1808 -1680 1808 -1612V-138Q1808 -68 1760 -19Q1712 30 1642 30H168Q98 30 49 -19Q0 -68 0 -138V-1612Q0 -1682 49 -1730Q98 -1778 168 -1778Z"/>
</svg>