<svg xmlns="http://www.w3.org/2000/svg" viewBox="0 -1920 2048 2048">
	<path transform="scale(0.8, 0.8) translate(40 -250)" d="M1756 -442Q1562 -606 1240 -606Q918 -606 724 -442Q670 -396 670 -311Q670 -226 684 -200Q698 -174 704 -170H1778Q1810 -194 1810 -295Q1810 -396 1756 -442ZM2246 -508Q2106 -630 1876 -630H1842Q1858 -618 1886 -594Q2002 -496 2010 -328H2266Q2278 -356 2278 -417Q2278 -478 2246 -508ZM604 -630Q374 -630 234 -508Q202 -478 202 -417Q202 -356 214 -328H470Q478 -494 594 -594Q606 -606 638 -630ZM1584 -1006Q1530 -870 1442 -792Q1490 -784 1548 -770Q1596 -792 1668 -810Q1610 -888 1584 -1006ZM896 -1006Q870 -888 812 -810Q884 -792 932 -770Q990 -784 1038 -792Q950 -870 896 -1006ZM1980 -1109Q1980 -1276 1876 -1276Q1772 -1276 1772 -1109Q1772 -1032 1810 -960Q1848 -888 1876 -888Q1904 -888 1942 -960Q1980 -1032 1980 -1109ZM708 -1109Q708 -1276 604 -1276Q500 -1276 500 -1109Q500 -1032 538 -960Q576 -888 604 -888Q632 -888 670 -960Q708 -1032 708 -1109ZM1387 -1503Q1332 -1578 1240 -1578Q1148 -1578 1094 -1503Q1040 -1428 1040 -1291Q1040 -1154 1106 -1031Q1172 -908 1240 -908Q1308 -908 1375 -1031Q1442 -1154 1442 -1291Q1442 -1428 1387 -1503ZM2280 -128H1982Q1920 30 1778 30H702Q560 30 498 -128H200Q110 -128 55 -205Q0 -282 0 -424Q0 -566 100 -658Q232 -772 394 -810Q298 -944 298 -1111Q298 -1278 384 -1378Q470 -1478 612 -1478Q754 -1478 840 -1356Q856 -1546 965 -1662Q1074 -1778 1240 -1778Q1406 -1778 1515 -1662Q1624 -1546 1640 -1356Q1726 -1478 1868 -1478Q2010 -1478 2096 -1378Q2182 -1278 2182 -1111Q2182 -944 2086 -810Q2248 -772 2380 -658Q2480 -566 2480 -424Q2480 -282 2425 -205Q2370 -128 2280 -128Z"/>
</svg>