<svg xmlns="http://www.w3.org/2000/svg" viewBox="0 -1920 2048 2048">
	<path d="M1544 -506Q1588 -506 1618 -475Q1648 -444 1648 -400Q1648 -356 1618 -325Q1588 -294 1544 -294H358L566 -88Q596 -58 596 -14Q596 30 563 61Q530 92 489 92Q448 92 416 60L30 -326Q0 -356 0 -400Q0 -444 30 -474L416 -860Q448 -892 491 -892Q534 -892 565 -861Q596 -830 596 -786Q596 -742 566 -712L358 -506ZM2004 -1308L1618 -922Q1584 -892 1542 -892Q1500 -892 1468 -922Q1438 -954 1438 -997Q1438 -1040 1468 -1070L1674 -1278H490Q446 -1278 416 -1308Q386 -1338 386 -1382Q386 -1426 416 -1457Q446 -1488 490 -1488H1674L1468 -1694Q1438 -1724 1438 -1768Q1438 -1812 1469 -1843Q1500 -1874 1543 -1874Q1586 -1874 1618 -1842L2004 -1456Q2034 -1426 2034 -1382Q2034 -1338 2004 -1308Z"/>
</svg>