<svg xmlns="http://www.w3.org/2000/svg" viewBox="0 -1920 2048 2048">
	<path d="M1438 -379Q1426 -372 1416 -372Q1406 -372 1398 -380Q1390 -388 1381 -394Q1372 -400 1359 -409Q1346 -418 1328 -427Q1310 -436 1288 -446Q1266 -456 1238 -465Q1210 -474 1178 -480Q1146 -486 1106 -490Q1066 -494 1024 -494Q982 -494 942 -490Q902 -486 870 -480Q838 -474 810 -465Q782 -456 760 -446Q738 -436 720 -427Q702 -418 689 -409Q676 -400 667 -394Q658 -388 647 -375Q636 -362 617 -374Q598 -386 602 -401Q606 -416 618 -440Q630 -464 663 -506Q696 -548 741 -584Q786 -620 861 -647Q936 -674 1024 -674Q1112 -674 1187 -647Q1262 -620 1307 -584Q1352 -548 1385 -506Q1418 -464 1430 -440Q1442 -416 1446 -401Q1450 -386 1438 -379ZM1412 -1225Q1446 -1174 1446 -1104Q1446 -1034 1412 -984Q1378 -934 1328 -934Q1278 -934 1243 -984Q1208 -1034 1208 -1104Q1208 -1174 1243 -1225Q1278 -1276 1328 -1276Q1378 -1276 1412 -1225ZM805 -1225Q840 -1174 840 -1104Q840 -1034 805 -984Q770 -934 720 -934Q670 -934 636 -984Q602 -1034 602 -1104Q602 -1174 636 -1225Q670 -1276 720 -1276Q770 -1276 805 -1225ZM1640 -1513Q1384 -1768 1024 -1768Q664 -1768 408 -1513Q152 -1258 152 -897Q152 -536 408 -280Q664 -24 1024 -24Q1384 -24 1640 -280Q1896 -536 1896 -897Q1896 -1258 1640 -1513ZM1421 47Q1232 128 1024 128Q816 128 627 47Q438 -34 300 -172Q162 -310 81 -499Q0 -688 0 -896Q0 -1104 81 -1293Q162 -1482 300 -1620Q438 -1758 627 -1839Q816 -1920 1024 -1920Q1232 -1920 1421 -1839Q1610 -1758 1748 -1620Q1886 -1482 1967 -1293Q2048 -1104 2048 -896Q2048 -688 1967 -499Q1886 -310 1748 -172Q1610 -34 1421 47Z"/>
</svg>