<svg xmlns="http://www.w3.org/2000/svg" viewBox="0 -1920 2048 2048">
	<path d="M861 -647Q739 -603 658 -500Q577 -397 616 -376Q636 -362 647 -375Q658 -388 667 -394Q676 -400 689 -409Q702 -418 720 -427Q738 -436 760 -446Q782 -456 810 -465Q838 -474 870 -480Q902 -486 942 -490Q982 -494 1024 -494Q1066 -494 1106 -490Q1146 -486 1178 -480Q1210 -474 1238 -465Q1266 -456 1288 -446Q1310 -436 1328 -427Q1346 -418 1359 -409Q1372 -400 1381 -394Q1390 -388 1398 -380Q1406 -372 1416 -372Q1426 -372 1438 -379Q1450 -386 1446 -401Q1442 -416 1430 -440Q1418 -464 1385 -506Q1352 -548 1307 -584Q1262 -620 1187 -647Q1112 -674 1024 -674Q936 -674 861 -647ZM1243 -984Q1278 -934 1328 -934Q1378 -934 1412 -984Q1446 -1034 1446 -1104Q1446 -1174 1412 -1225Q1378 -1276 1328 -1276Q1278 -1276 1243 -1225Q1208 -1174 1208 -1104Q1208 -1034 1243 -984ZM805 -1225Q770 -1276 720 -1276Q670 -1276 636 -1225Q602 -1174 602 -1104Q602 -1034 636 -984Q670 -934 720 -934Q770 -934 805 -984Q840 -1034 840 -1104Q840 -1174 805 -1225ZM627 -1839Q816 -1920 1024 -1920Q1232 -1920 1421 -1839Q1610 -1758 1748 -1620Q1886 -1482 1967 -1293Q2048 -1104 2048 -896Q2048 -688 1967 -499Q1886 -310 1748 -172Q1610 -34 1421 47Q1232 128 1024 128Q816 128 627 47Q438 -34 300 -172Q162 -310 81 -499Q0 -688 0 -896Q0 -1104 81 -1293Q162 -1482 300 -1620Q438 -1758 627 -1839Z"/>
</svg>