<svg xmlns="http://www.w3.org/2000/svg" viewBox="0 -1920 2048 2048">
	<path d="M820 -424L800 -410Q784 -398 772 -408Q756 -414 758 -425Q760 -436 767 -454Q774 -472 793 -503Q812 -534 840 -562Q868 -590 917 -611Q966 -632 1024 -632Q1082 -632 1131 -611Q1180 -590 1208 -562Q1236 -534 1255 -503Q1274 -472 1281 -454Q1288 -436 1290 -425Q1292 -414 1280 -409Q1268 -404 1261 -404Q1254 -404 1248 -410Q1242 -416 1226 -426Q1210 -436 1153 -452Q1096 -468 1024 -468Q952 -468 896 -454Q840 -440 820 -424ZM1412 -1225Q1446 -1174 1446 -1104Q1446 -1034 1412 -984Q1378 -934 1328 -934Q1278 -934 1243 -984Q1208 -1034 1208 -1104Q1208 -1174 1243 -1225Q1278 -1276 1328 -1276Q1378 -1276 1412 -1225ZM805 -1225Q840 -1174 840 -1104Q840 -1034 805 -984Q770 -934 720 -934Q670 -934 636 -984Q602 -1034 602 -1104Q602 -1174 636 -1225Q670 -1276 720 -1276Q770 -1276 805 -1225ZM1640 -1513Q1384 -1768 1024 -1768Q664 -1768 408 -1513Q152 -1258 152 -897Q152 -536 408 -280Q664 -24 1024 -24Q1384 -24 1640 -280Q1896 -536 1896 -897Q1896 -1258 1640 -1513ZM1421 47Q1232 128 1024 128Q816 128 627 47Q438 -34 300 -172Q162 -310 81 -499Q0 -688 0 -896Q0 -1104 81 -1293Q162 -1482 300 -1620Q438 -1758 627 -1839Q816 -1920 1024 -1920Q1232 -1920 1421 -1839Q1610 -1758 1748 -1620Q1886 -1482 1967 -1293Q2048 -1104 2048 -896Q2048 -688 1967 -499Q1886 -310 1748 -172Q1610 -34 1421 47Z"/>
</svg>