<svg xmlns="http://www.w3.org/2000/svg" viewBox="0 -1920 2048 2048">
	<path d="M720 -440Q688 -440 666 -462Q644 -484 644 -516Q644 -548 666 -570Q688 -592 720 -592H1328Q1360 -592 1382 -570Q1404 -548 1404 -516Q1404 -484 1382 -462Q1360 -440 1328 -440ZM1412 -1225Q1446 -1174 1446 -1104Q1446 -1034 1412 -984Q1378 -934 1328 -934Q1278 -934 1243 -984Q1208 -1034 1208 -1104Q1208 -1174 1243 -1225Q1278 -1276 1328 -1276Q1378 -1276 1412 -1225ZM805 -1225Q840 -1174 840 -1104Q840 -1034 805 -984Q770 -934 720 -934Q670 -934 636 -984Q602 -1034 602 -1104Q602 -1174 636 -1225Q670 -1276 720 -1276Q770 -1276 805 -1225ZM1640 -1513Q1384 -1768 1024 -1768Q664 -1768 408 -1513Q152 -1258 152 -897Q152 -536 408 -280Q664 -24 1024 -24Q1384 -24 1640 -280Q1896 -536 1896 -897Q1896 -1258 1640 -1513ZM1421 47Q1232 128 1024 128Q816 128 627 47Q438 -34 300 -172Q162 -310 81 -499Q0 -688 0 -896Q0 -1104 81 -1293Q162 -1482 300 -1620Q438 -1758 627 -1839Q816 -1920 1024 -1920Q1232 -1920 1421 -1839Q1610 -1758 1748 -1620Q1886 -1482 1967 -1293Q2048 -1104 2048 -896Q2048 -688 1967 -499Q1886 -310 1748 -172Q1610 -34 1421 47Z"/>
</svg>