<svg xmlns="http://www.w3.org/2000/svg" viewBox="0 -1920 2048 2048">
	<path d="M720 -440H1328Q1360 -440 1382 -462Q1404 -484 1404 -516Q1404 -548 1382 -570Q1360 -592 1328 -592H720Q688 -592 666 -570Q644 -548 644 -516Q644 -484 666 -462Q688 -440 720 -440ZM1243 -984Q1278 -934 1328 -934Q1378 -934 1412 -984Q1446 -1034 1446 -1104Q1446 -1174 1412 -1225Q1378 -1276 1328 -1276Q1278 -1276 1243 -1225Q1208 -1174 1208 -1104Q1208 -1034 1243 -984ZM805 -1225Q770 -1276 720 -1276Q670 -1276 636 -1225Q602 -1174 602 -1104Q602 -1034 636 -984Q670 -934 720 -934Q770 -934 805 -984Q840 -1034 840 -1104Q840 -1174 805 -1225ZM627 -1839Q816 -1920 1024 -1920Q1232 -1920 1421 -1839Q1610 -1758 1748 -1620Q1886 -1482 1967 -1293Q2048 -1104 2048 -896Q2048 -688 1967 -499Q1886 -310 1748 -172Q1610 -34 1421 47Q1232 128 1024 128Q816 128 627 47Q438 -34 300 -172Q162 -310 81 -499Q0 -688 0 -896Q0 -1104 81 -1293Q162 -1482 300 -1620Q438 -1758 627 -1839Z"/>
</svg>