<svg xmlns="http://www.w3.org/2000/svg" viewBox="0 -1920 2048 2048">
	<path d="M917 -425Q839 -459 799 -523Q760 -587 758 -604Q756 -622 772 -628Q784 -638 800 -626L820 -612Q840 -596 896 -582Q952 -568 1024 -568Q1096 -568 1153 -584Q1210 -600 1226 -610Q1242 -620 1248 -626Q1254 -632 1261 -632Q1268 -632 1280 -627Q1292 -622 1290 -611Q1288 -600 1281 -582Q1274 -564 1255 -533Q1236 -502 1208 -474Q1180 -446 1131 -425Q1082 -404 1024 -404Q966 -404 917 -425ZM1412 -1225Q1446 -1174 1446 -1104Q1446 -1034 1412 -984Q1378 -934 1328 -934Q1278 -934 1243 -984Q1208 -1034 1208 -1104Q1208 -1174 1243 -1225Q1278 -1276 1328 -1276Q1378 -1276 1412 -1225ZM805 -1225Q840 -1174 840 -1104Q840 -1034 805 -984Q770 -934 720 -934Q670 -934 636 -984Q602 -1034 602 -1104Q602 -1174 636 -1225Q670 -1276 720 -1276Q770 -1276 805 -1225ZM1640 -1513Q1384 -1768 1024 -1768Q664 -1768 408 -1513Q152 -1258 152 -897Q152 -536 408 -280Q664 -24 1024 -24Q1384 -24 1640 -280Q1896 -536 1896 -897Q1896 -1258 1640 -1513ZM1421 47Q1232 128 1024 128Q816 128 627 47Q438 -34 300 -172Q162 -310 81 -499Q0 -688 0 -896Q0 -1104 81 -1293Q162 -1482 300 -1620Q438 -1758 627 -1839Q816 -1920 1024 -1920Q1232 -1920 1421 -1839Q1610 -1758 1748 -1620Q1886 -1482 1967 -1293Q2048 -1104 2048 -896Q2048 -688 1967 -499Q1886 -310 1748 -172Q1610 -34 1421 47Z"/>
</svg>