<svg xmlns="http://www.w3.org/2000/svg" viewBox="0 -1920 2048 2048">
	<path d="M1438 -667Q1426 -674 1416 -674Q1406 -674 1398 -666Q1390 -658 1381 -652Q1372 -646 1359 -637Q1346 -628 1328 -618Q1310 -608 1288 -599Q1266 -590 1238 -581Q1210 -572 1178 -566Q1146 -560 1106 -556Q1066 -552 1024 -552Q982 -552 942 -556Q902 -560 870 -566Q838 -572 810 -581Q782 -590 760 -599Q738 -608 720 -618Q702 -628 689 -637Q676 -646 667 -652Q658 -658 647 -671Q636 -684 617 -672Q598 -660 602 -645Q606 -630 618 -606Q630 -582 663 -540Q696 -498 741 -462Q786 -426 861 -399Q936 -372 1024 -372Q1112 -372 1187 -399Q1262 -426 1307 -462Q1352 -498 1385 -540Q1418 -582 1430 -606Q1442 -630 1446 -645Q1450 -660 1438 -667ZM1243 -984Q1278 -934 1328 -934Q1378 -934 1412 -984Q1446 -1034 1446 -1104Q1446 -1174 1412 -1225Q1378 -1276 1328 -1276Q1278 -1276 1243 -1225Q1208 -1174 1208 -1104Q1208 -1034 1243 -984ZM805 -1225Q770 -1276 720 -1276Q670 -1276 636 -1225Q602 -1174 602 -1104Q602 -1034 636 -984Q670 -934 720 -934Q770 -934 805 -984Q840 -1034 840 -1104Q840 -1174 805 -1225ZM627 -1839Q816 -1920 1024 -1920Q1232 -1920 1421 -1839Q1610 -1758 1748 -1620Q1886 -1482 1967 -1293Q2048 -1104 2048 -896Q2048 -688 1967 -499Q1886 -310 1748 -172Q1610 -34 1421 47Q1232 128 1024 128Q816 128 627 47Q438 -34 300 -172Q162 -310 81 -499Q0 -688 0 -896Q0 -1104 81 -1293Q162 -1482 300 -1620Q438 -1758 627 -1839Z"/>
</svg>