<svg xmlns="http://www.w3.org/2000/svg" viewBox="0 -1920 2048 2048">
	<path d="M645 4Q826 82 1024 82Q1222 82 1403 4Q1584 -74 1715 -205Q1846 -336 1924 -517Q2002 -698 2002 -896Q2002 -1094 1924 -1275Q1846 -1456 1715 -1587Q1584 -1718 1403 -1796Q1222 -1874 1024 -1874Q826 -1874 645 -1796Q464 -1718 333 -1587Q202 -1456 124 -1275Q46 -1094 46 -896Q46 -698 124 -517Q202 -336 333 -205Q464 -74 645 4ZM300 -1620Q600 -1920 1024 -1920Q1448 -1920 1748 -1620Q2048 -1320 2048 -896Q2048 -472 1748 -172Q1448 128 1024 128Q600 128 300 -172Q0 -472 0 -896Q0 -1320 300 -1620Z"/>
</svg>