<svg xmlns="http://www.w3.org/2000/svg" viewBox="0 -1920 2048 2048">
	<path d="M798 -640H1034Q1068 -640 1091 -618Q1114 -596 1114 -562Q1114 -528 1091 -505Q1068 -482 1034 -482H718Q670 -482 635 -517Q600 -552 600 -600V-954H442Q418 -954 406 -976Q396 -1002 414 -1018L648 -1296Q660 -1310 679 -1310Q698 -1310 710 -1296L946 -1018Q962 -1004 952 -976Q942 -954 918 -954H758V-680Q758 -664 770 -652Q782 -640 798 -640ZM1448 -838H1606Q1630 -838 1642 -816Q1652 -790 1634 -774L1400 -496Q1386 -482 1369 -482Q1352 -482 1338 -496L1102 -774Q1086 -788 1096 -816Q1106 -838 1130 -838H1290V-1112Q1290 -1128 1278 -1140Q1266 -1152 1250 -1152H1010Q978 -1152 956 -1175Q934 -1198 934 -1231Q934 -1264 956 -1287Q978 -1310 1010 -1310H1330Q1378 -1310 1413 -1275Q1448 -1240 1448 -1192Z"/>
</svg>