<svg xmlns="http://www.w3.org/2000/svg" viewBox="0 -1920 2048 2048">
	<path d="M1584 -1005Q1630 -960 1630 -896Q1630 -832 1584 -787Q1538 -742 1474 -742Q1410 -742 1364 -787Q1318 -832 1318 -896Q1318 -960 1364 -1005Q1410 -1050 1474 -1050Q1538 -1050 1584 -1005ZM1133 -1005Q1178 -960 1178 -896Q1178 -832 1133 -787Q1088 -742 1024 -742Q960 -742 915 -787Q870 -832 870 -896Q870 -960 915 -1005Q960 -1050 1024 -1050Q1088 -1050 1133 -1005ZM685 -1005Q730 -960 730 -896Q730 -832 685 -787Q640 -742 575 -742Q510 -742 464 -787Q418 -832 418 -896Q418 -960 464 -1005Q510 -1050 575 -1050Q640 -1050 685 -1005Z"/>
</svg>