<svg xmlns="http://www.w3.org/2000/svg" viewBox="0 -1920 2048 2048">
	<path d="M758 -894V-514Q758 -482 736 -460Q714 -438 682 -438Q650 -438 629 -460Q608 -482 608 -514V-894Q608 -926 629 -948Q650 -970 682 -970Q714 -970 736 -948Q758 -926 758 -894ZM1440 -1122V-514Q1440 -482 1419 -460Q1398 -438 1366 -438Q1334 -438 1312 -460Q1290 -482 1290 -514V-1122Q1290 -1152 1312 -1175Q1334 -1198 1365 -1198Q1396 -1198 1418 -1175Q1440 -1152 1440 -1122ZM1098 -1386V-514Q1098 -482 1077 -460Q1056 -438 1024 -438Q992 -438 971 -460Q950 -482 950 -514V-1386Q950 -1420 971 -1442Q992 -1464 1024 -1464Q1056 -1464 1077 -1442Q1098 -1420 1098 -1386Z"/>
</svg>