<svg xmlns="http://www.w3.org/2000/svg" viewBox="0 -1920 2048 2048">
	<path d="M1524 -650Q1524 -802 1417 -909Q1310 -1016 1160 -1016H1054V-1260Q1054 -1308 1008 -1332Q962 -1356 922 -1322L516 -998Q486 -972 486 -934Q486 -896 516 -872L922 -546Q944 -528 964 -528Q984 -528 1008 -536Q1054 -560 1054 -610V-854H1160Q1244 -854 1303 -794Q1362 -734 1362 -650Q1362 -616 1386 -593Q1410 -570 1443 -570Q1476 -570 1500 -593Q1524 -616 1524 -650ZM627 -1839Q816 -1920 1024 -1920Q1232 -1920 1421 -1839Q1610 -1758 1748 -1620Q1886 -1482 1967 -1293Q2048 -1104 2048 -896Q2048 -688 1967 -499Q1886 -310 1748 -172Q1610 -34 1421 47Q1232 128 1024 128Q816 128 627 47Q438 -34 300 -172Q162 -310 81 -499Q0 -688 0 -896Q0 -1104 81 -1293Q162 -1482 300 -1620Q438 -1758 627 -1839Z"/>
</svg>