<svg xmlns="http://www.w3.org/2000/svg" viewBox="0 -1920 2048 2048">
	<path d="M718 -482H1034Q1068 -482 1091 -505Q1114 -528 1114 -562Q1114 -596 1091 -618Q1068 -640 1034 -640H798Q782 -640 770 -652Q758 -664 758 -680V-954H918Q942 -954 952 -976Q962 -1004 946 -1018L710 -1296Q698 -1310 679 -1310Q660 -1310 648 -1296L414 -1018Q396 -1002 406 -976Q418 -954 442 -954H600V-600Q600 -552 635 -517Q670 -482 718 -482ZM1606 -838H1448V-1192Q1448 -1240 1413 -1275Q1378 -1310 1330 -1310H1010Q978 -1310 956 -1287Q934 -1264 934 -1231Q934 -1198 956 -1175Q978 -1152 1010 -1152H1250Q1266 -1152 1278 -1140Q1290 -1128 1290 -1112V-838H1130Q1106 -838 1096 -816Q1086 -788 1102 -774L1338 -496Q1352 -482 1369 -482Q1386 -482 1400 -496L1634 -774Q1652 -790 1642 -816Q1630 -838 1606 -838ZM300 -1620Q600 -1920 1024 -1920Q1448 -1920 1748 -1620Q2048 -1320 2048 -896Q2048 -472 1748 -172Q1448 128 1024 128Q600 128 300 -172Q0 -472 0 -896Q0 -1320 300 -1620Z"/>
</svg>