<svg xmlns="http://www.w3.org/2000/svg" viewBox="0 -1920 2048 2048">
	<path d="M1250 -1264Q1120 -1264 1024 -1110Q928 -1264 800 -1264Q708 -1264 641 -1190Q574 -1116 574 -1017Q574 -918 630 -805Q686 -692 762 -611Q838 -530 912 -476Q986 -422 1024 -422Q1062 -422 1136 -476Q1210 -530 1286 -611Q1362 -692 1418 -805Q1474 -918 1474 -1017Q1474 -1116 1408 -1190Q1342 -1264 1250 -1264ZM300 -1620Q600 -1920 1024 -1920Q1448 -1920 1748 -1620Q2048 -1320 2048 -896Q2048 -472 1748 -172Q1448 128 1024 128Q600 128 300 -172Q0 -472 0 -896Q0 -1320 300 -1620Z"/>
</svg>