<svg xmlns="http://www.w3.org/2000/svg" viewBox="0 -1920 2048 2048">
	<path d="M1364 -786Q1410 -740 1474 -740Q1538 -740 1584 -786Q1630 -832 1630 -896Q1630 -960 1584 -1006Q1538 -1052 1474 -1052Q1410 -1052 1364 -1006Q1318 -960 1318 -896Q1318 -832 1364 -786ZM914 -786Q960 -740 1024 -740Q1088 -740 1134 -786Q1180 -832 1180 -896Q1180 -960 1134 -1006Q1088 -1052 1024 -1052Q960 -1052 914 -1006Q868 -960 868 -896Q868 -832 914 -786ZM465 -786Q510 -740 574 -740Q638 -740 684 -786Q730 -832 730 -896Q730 -960 684 -1006Q638 -1052 574 -1052Q510 -1052 465 -1006Q420 -960 420 -896Q420 -832 465 -786ZM627 -1839Q816 -1920 1024 -1920Q1232 -1920 1421 -1839Q1610 -1758 1748 -1620Q1886 -1482 1967 -1293Q2048 -1104 2048 -896Q2048 -688 1967 -499Q1886 -310 1748 -172Q1610 -34 1421 47Q1232 128 1024 128Q816 128 627 47Q438 -34 300 -172Q162 -310 81 -499Q0 -688 0 -896Q0 -1104 81 -1293Q162 -1482 300 -1620Q438 -1758 627 -1839Z"/>
</svg>