<svg xmlns="http://www.w3.org/2000/svg" viewBox="0 -1920 2048 2048">
	<path d="M758 -516V-896Q758 -928 736 -950Q714 -972 682 -972Q650 -972 628 -950Q606 -928 606 -896V-516Q606 -484 628 -462Q650 -440 682 -440Q714 -440 736 -462Q758 -484 758 -516ZM1442 -516V-1124Q1442 -1156 1420 -1178Q1398 -1200 1366 -1200Q1334 -1200 1312 -1178Q1290 -1156 1290 -1124V-516Q1290 -484 1312 -462Q1334 -440 1366 -440Q1398 -440 1420 -462Q1442 -484 1442 -516ZM1100 -516V-1390Q1100 -1420 1078 -1442Q1056 -1464 1024 -1464Q992 -1464 970 -1442Q948 -1420 948 -1390V-516Q948 -484 970 -462Q992 -440 1024 -440Q1056 -440 1078 -462Q1100 -484 1100 -516ZM627 -1839Q816 -1920 1024 -1920Q1232 -1920 1421 -1839Q1610 -1758 1748 -1620Q1886 -1482 1967 -1293Q2048 -1104 2048 -896Q2048 -688 1967 -499Q1886 -310 1748 -172Q1610 -34 1421 47Q1232 128 1024 128Q816 128 627 47Q438 -34 300 -172Q162 -310 81 -499Q0 -688 0 -896Q0 -1104 81 -1293Q162 -1482 300 -1620Q438 -1758 627 -1839Z"/>
</svg>