<svg xmlns="http://www.w3.org/2000/svg" viewBox="0 -1920 2048 2048">
	<path d="M1520 -728V-1206Q1520 -1254 1482 -1282L1064 -878Q1044 -862 1024 -862Q1004 -862 984 -878L566 -1282Q528 -1254 528 -1206V-480Q528 -444 562 -428Q568 -424 588 -424Q608 -424 624 -438L834 -634H1426Q1464 -634 1492 -661Q1520 -688 1520 -728ZM720 -1302L1024 -1016L1328 -1302ZM627 -1839Q816 -1920 1024 -1920Q1232 -1920 1421 -1839Q1610 -1758 1748 -1620Q1886 -1482 1967 -1293Q2048 -1104 2048 -896Q2048 -688 1967 -499Q1886 -310 1748 -172Q1610 -34 1421 47Q1232 128 1024 128Q816 128 627 47Q438 -34 300 -172Q162 -310 81 -499Q0 -688 0 -896Q0 -1104 81 -1293Q162 -1482 300 -1620Q438 -1758 627 -1839Z"/>
</svg>