<svg xmlns="http://www.w3.org/2000/svg" viewBox="0 -1920 2048 2048">
	<path d="M1480 -630H948Q916 -630 894 -608Q872 -586 872 -554Q872 -522 894 -500Q916 -478 948 -478H1480Q1510 -478 1532 -500Q1554 -522 1554 -554Q1554 -586 1532 -608Q1510 -630 1480 -630ZM692 -488Q720 -516 720 -555Q720 -594 693 -622Q666 -650 626 -650Q586 -650 558 -622Q530 -594 530 -555Q530 -516 558 -488Q586 -460 625 -460Q664 -460 692 -488ZM948 -820H1480Q1510 -820 1532 -842Q1554 -864 1554 -896Q1554 -928 1532 -950Q1510 -972 1480 -972H948Q916 -972 894 -950Q872 -928 872 -896Q872 -864 894 -842Q916 -820 948 -820ZM558 -830Q586 -802 625 -802Q664 -802 692 -829Q720 -856 720 -896Q720 -936 692 -963Q664 -990 625 -990Q586 -990 558 -962Q530 -934 530 -896Q530 -858 558 -830ZM948 -1162H1480Q1510 -1162 1532 -1184Q1554 -1206 1554 -1238Q1554 -1270 1532 -1292Q1510 -1314 1480 -1314H948Q916 -1314 894 -1292Q872 -1270 872 -1238Q872 -1206 894 -1184Q916 -1162 948 -1162ZM558 -1170Q586 -1142 626 -1142Q666 -1142 693 -1170Q720 -1198 720 -1237Q720 -1276 692 -1304Q664 -1332 625 -1332Q586 -1332 558 -1304Q530 -1276 530 -1237Q530 -1198 558 -1170ZM627 -1839Q816 -1920 1024 -1920Q1232 -1920 1421 -1839Q1610 -1758 1748 -1620Q1886 -1482 1967 -1293Q2048 -1104 2048 -896Q2048 -688 1967 -499Q1886 -310 1748 -172Q1610 -34 1421 47Q1232 128 1024 128Q816 128 627 47Q438 -34 300 -172Q162 -310 81 -499Q0 -688 0 -896Q0 -1104 81 -1293Q162 -1482 300 -1620Q438 -1758 627 -1839Z"/>
</svg>