<svg xmlns="http://www.w3.org/2000/svg" viewBox="0 -1920 2048 2048">
	<path d="M564 -478H1484Q1518 -478 1518 -558Q1518 -638 1466 -666Q1464 -666 1448 -676Q1432 -686 1200 -744Q1124 -656 1024 -656Q924 -656 848 -744Q612 -684 598 -675Q584 -666 582 -666Q530 -638 530 -558Q530 -478 564 -478ZM908 -1350Q860 -1344 829 -1290Q798 -1236 792 -1184L786 -1134Q772 -1134 762 -1114Q752 -1094 757 -1056Q762 -1018 787 -984Q812 -950 834 -950Q839 -932 862 -892Q940 -760 1018 -760Q1076 -760 1124 -808Q1172 -856 1192 -904L1214 -950Q1236 -950 1261 -984Q1286 -1018 1291 -1056Q1296 -1094 1288 -1112Q1280 -1130 1272 -1132L1262 -1134Q1262 -1164 1247 -1216Q1232 -1268 1209 -1301Q1186 -1334 1138 -1362Q1090 -1390 1023 -1390Q956 -1390 908 -1350ZM627 -1839Q816 -1920 1024 -1920Q1232 -1920 1421 -1839Q1610 -1758 1748 -1620Q1886 -1482 1967 -1293Q2048 -1104 2048 -896Q2048 -688 1967 -499Q1886 -310 1748 -172Q1610 -34 1421 47Q1232 128 1024 128Q816 128 627 47Q438 -34 300 -172Q162 -310 81 -499Q0 -688 0 -896Q0 -1104 81 -1293Q162 -1482 300 -1620Q438 -1758 627 -1839Z"/>
</svg>