<svg xmlns="http://www.w3.org/2000/svg" viewBox="0 -1920 2048 2048">
	<path d="M1448 -1038V-1064Q1506 -1108 1550 -1170Q1500 -1148 1432 -1138Q1498 -1178 1522 -1252Q1456 -1216 1392 -1202Q1330 -1268 1242 -1268Q1154 -1268 1094 -1208Q1034 -1148 1034 -1062Q1034 -1046 1038 -1014Q780 -1026 612 -1230Q586 -1182 586 -1126Q586 -1018 676 -954Q626 -958 584 -978Q584 -904 631 -847Q678 -790 750 -774Q722 -768 695 -768Q668 -768 656 -772Q676 -710 729 -670Q782 -630 848 -628Q738 -540 592 -540Q560 -540 542 -542Q688 -450 842 -450Q996 -450 1111 -503Q1226 -556 1298 -642Q1448 -821 1448 -1038ZM627 -1839Q816 -1920 1024 -1920Q1232 -1920 1421 -1839Q1610 -1758 1748 -1620Q1886 -1482 1967 -1293Q2048 -1104 2048 -896Q2048 -688 1967 -499Q1886 -310 1748 -172Q1610 -34 1421 47Q1232 128 1024 128Q816 128 627 47Q438 -34 300 -172Q162 -310 81 -499Q0 -688 0 -896Q0 -1104 81 -1293Q162 -1482 300 -1620Q438 -1758 627 -1839Z"/>
</svg>